G04*
G04 #@! TF.GenerationSoftware,Altium Limited,Altium Designer,25.2.1 (25)*
G04*
G04 Layer_Color=128*
%FSLAX25Y25*%
%MOIN*%
G70*
G04*
G04 #@! TF.SameCoordinates,AD5E336D-F693-4BD2-921A-DB4C2101B080*
G04*
G04*
G04 #@! TF.FilePolarity,Positive*
G04*
G01*
G75*
%ADD82C,0.00200*%
D82*
X115945Y60827D02*
X116732D01*
X116339Y60433D02*
Y61221D01*
X121457Y60827D02*
X122244D01*
X121850Y60433D02*
Y61221D01*
X110433Y60827D02*
X111221D01*
X110827Y60433D02*
Y61221D01*
X121457Y66339D02*
X122244D01*
X121850Y65945D02*
Y66733D01*
X115945Y66339D02*
X116732D01*
X116339Y65945D02*
Y66733D01*
X110433Y66339D02*
X111221D01*
X110827Y65945D02*
Y66733D01*
X118701Y58071D02*
X119488D01*
X119095Y57677D02*
Y58465D01*
X113189Y58071D02*
X113977D01*
X113583Y57677D02*
Y58465D01*
X118701Y63583D02*
X119488D01*
X119095Y63189D02*
Y63977D01*
X113189Y63583D02*
X113977D01*
X113583Y63189D02*
Y63977D01*
X118701Y69095D02*
X119488D01*
X119095Y68701D02*
Y69489D01*
X113189Y69095D02*
X113977D01*
X113583Y68701D02*
Y69489D01*
X190019Y12313D02*
X194350D01*
X192185Y10147D02*
Y14478D01*
X180019Y12313D02*
X184350D01*
X182185Y10147D02*
Y14478D01*
X121555Y120276D02*
X123917D01*
X122736Y119095D02*
Y121457D01*
X78839Y120276D02*
X81201D01*
X80020Y119095D02*
Y121457D01*
X121555Y137992D02*
X123917D01*
X122736Y136811D02*
Y139173D01*
X78839Y137992D02*
X81201D01*
X80020Y136811D02*
Y139173D01*
X151378Y65866D02*
X155709D01*
X153543Y63701D02*
Y68032D01*
X151378Y45866D02*
X155709D01*
X153543Y43701D02*
Y48031D01*
X151378Y35866D02*
X155709D01*
X153543Y33701D02*
Y38032D01*
X151378Y55866D02*
X155709D01*
X153543Y53701D02*
Y58031D01*
X151378Y75866D02*
X155709D01*
X153543Y73701D02*
Y78031D01*
X151378Y85866D02*
X155709D01*
X153543Y83701D02*
Y88032D01*
X64764Y85866D02*
X69095D01*
X66929Y83701D02*
Y88032D01*
X64764Y65866D02*
X69095D01*
X66929Y63701D02*
Y68032D01*
X64764Y45866D02*
X69095D01*
X66929Y43701D02*
Y48031D01*
X64764Y35866D02*
X69095D01*
X66929Y33701D02*
Y38032D01*
X64764Y55866D02*
X69095D01*
X66929Y53701D02*
Y58031D01*
X64764Y75866D02*
X69095D01*
X66929Y73701D02*
Y78031D01*
X64764Y95866D02*
X69095D01*
X66929Y93701D02*
Y98032D01*
X64764Y105866D02*
X69095D01*
X66929Y103701D02*
Y108031D01*
X159252Y121801D02*
X161614D01*
X160433Y120620D02*
Y122982D01*
X182874Y121801D02*
X185236D01*
X184055Y120620D02*
Y122982D01*
X151496Y134006D02*
X158976D01*
X155236Y130266D02*
Y137746D01*
X185512Y134006D02*
X192992D01*
X189252Y130266D02*
Y137746D01*
X152087Y118947D02*
X158386D01*
X155236Y115797D02*
Y122096D01*
X186102Y118947D02*
X192402D01*
X189252Y115797D02*
Y122096D01*
X95527Y130622D02*
X96708D01*
X96118Y130032D02*
Y131213D01*
X104733Y126680D02*
X105914D01*
X105324Y126090D02*
Y127271D01*
X133539Y39696D02*
X134721D01*
X134130Y39105D02*
Y40286D01*
X138472Y34933D02*
X139654D01*
X139063Y34343D02*
Y35524D01*
X176278Y69860D02*
X177460D01*
X176869Y69269D02*
Y70450D01*
X94779Y120276D02*
X95961D01*
X95370Y119685D02*
Y120866D01*
X85957Y123622D02*
X87138D01*
X86548Y123031D02*
Y124213D01*
X96118Y112544D02*
X97299D01*
X96708Y111954D02*
Y113135D01*
X108849Y112589D02*
X110030D01*
X109439Y111998D02*
Y113180D01*
X105512Y112589D02*
X106693D01*
X106102Y111998D02*
Y113180D01*
X100861Y112544D02*
X102042D01*
X101451Y111954D02*
Y113135D01*
X187534Y99963D02*
X188716D01*
X188125Y99373D02*
Y100554D01*
X138472Y43189D02*
X139654D01*
X139063Y42599D02*
Y43780D01*
X36257Y124008D02*
X37438D01*
X36847Y123417D02*
Y124598D01*
X37598Y24442D02*
X38779D01*
X38189Y23852D02*
Y25033D01*
X94902Y68116D02*
X96083D01*
X95492Y67525D02*
Y68706D01*
X97342Y73189D02*
X98523D01*
X97933Y72599D02*
Y73780D01*
X187068Y74466D02*
X188249D01*
X187659Y73875D02*
Y75057D01*
X127992Y45866D02*
X129173D01*
X128583Y45276D02*
Y46457D01*
X131221Y45865D02*
X132403D01*
X131812Y45274D02*
Y46455D01*
X80005Y32993D02*
X81186D01*
X80596Y32402D02*
Y33583D01*
X127342Y98189D02*
X128524D01*
X127933Y97599D02*
Y98780D01*
X87343Y86614D02*
X88524D01*
X87933Y86024D02*
Y87205D01*
X87324Y78189D02*
X88505D01*
X87914Y77599D02*
Y78780D01*
X114822Y112440D02*
X116003D01*
X115412Y111849D02*
Y113031D01*
X85957Y120472D02*
X87138D01*
X86548Y119882D02*
Y121063D01*
X89764Y109368D02*
X90945D01*
X90354Y108777D02*
Y109958D01*
X99888Y121577D02*
X101069D01*
X100478Y120987D02*
Y122168D01*
X113386Y120276D02*
X114567D01*
X113976Y119685D02*
Y120866D01*
X107087Y122933D02*
X108268D01*
X107677Y122343D02*
Y123524D01*
X173780Y62429D02*
X174961D01*
X174371Y61839D02*
Y63020D01*
X20957Y85370D02*
X22138D01*
X21547Y84780D02*
Y85961D01*
X34555Y85370D02*
X35736D01*
X35146Y84780D02*
Y85961D01*
X50590Y48169D02*
X51771D01*
X51181Y47578D02*
Y48759D01*
X28937Y50197D02*
X30118D01*
X29527Y49606D02*
Y50787D01*
X19094Y124008D02*
X20276D01*
X19685Y123417D02*
Y124598D01*
X37598Y6642D02*
X38779D01*
X38189Y6051D02*
Y7232D01*
X174095Y66981D02*
X175276D01*
X174685Y66390D02*
Y67571D01*
X85957Y12524D02*
X87138D01*
X86548Y11933D02*
Y13114D01*
X171525Y12524D02*
X172706D01*
X172116Y11933D02*
Y13114D01*
X108575Y23167D02*
X109756D01*
X109166Y22577D02*
Y23758D01*
X128925Y6133D02*
X130106D01*
X129516Y5542D02*
Y6724D01*
X134732Y14394D02*
X135913D01*
X135323Y13803D02*
Y14984D01*
X162932Y28504D02*
X164113D01*
X163522Y27914D02*
Y29095D01*
X193307Y55823D02*
X194488D01*
X193898Y55232D02*
Y56413D01*
X197877Y51396D02*
X199058D01*
X198467Y50805D02*
Y51986D01*
X177298Y60686D02*
X178479D01*
X177888Y60096D02*
Y61277D01*
X188662Y68661D02*
X189843D01*
X189252Y68070D02*
Y69251D01*
X193307Y68346D02*
X194488D01*
X193898Y67755D02*
Y68937D01*
X196294Y119301D02*
X197475D01*
X196884Y118710D02*
Y119892D01*
X196260Y132547D02*
X197441D01*
X196850Y131956D02*
Y133138D01*
X168701Y61646D02*
X169882D01*
X169291Y61055D02*
Y62237D01*
X107343Y6327D02*
X108524D01*
X107933Y5736D02*
Y6917D01*
X90776Y37598D02*
X91958D01*
X91367Y37008D02*
Y38189D01*
X90776Y43523D02*
X91958D01*
X91367Y42932D02*
Y44113D01*
X90667Y63189D02*
X91848D01*
X91258Y62599D02*
Y63780D01*
X197835Y40354D02*
X199016D01*
X198425Y39764D02*
Y40945D01*
X197835Y84646D02*
X199016D01*
X198425Y84055D02*
Y85236D01*
X139390Y88189D02*
X140571D01*
X139980Y87599D02*
Y88780D01*
X158248Y113086D02*
X159429D01*
X158839Y112495D02*
Y113676D01*
X186417Y112544D02*
X187598D01*
X187008Y111954D02*
Y113135D01*
X171656Y101048D02*
X172837D01*
X172247Y100458D02*
Y101639D01*
X176230Y121360D02*
X177411D01*
X176821Y120770D02*
Y121951D01*
X166732Y121222D02*
X167913D01*
X167323Y120631D02*
Y121812D01*
X92204Y123268D02*
X93385D01*
X92795Y122677D02*
Y123858D01*
M02*
