M48
;Layer_Color=9474304
;FILE_FORMAT=2:5
INCH,LZ
;TYPE=PLATED
T01F00S00C0.00787
T02F00S00C0.01181
T04F00S00C0.04331
;TYPE=NON_PLATED
T05F00S00C0.02362
%
T01
X0113583Y0058071
X0119095
X012185Y0060827
X0119095Y0063583
X012185Y0066339
X0119095Y0069095
X0113583
Y0063583
X0116339Y0066339
X0110827
Y0060827
X0116339
T02
X0135323Y0014394
X0139063Y0034933
Y0043189
X013413Y0039696
X0131812Y0045865
X0163522Y0028504
X0172116Y0012524
X0169291Y0061646
X0174371Y0062429
X0174685Y0066981
X0176869Y006986
X0177888Y0060686
X0189252Y0068661
X0193898Y0068346
X0187659Y0074466
X0198425Y0084646
X0188125Y0099963
X0187008Y0112544
X0196884Y0119301
X019685Y0132547
X0176821Y012136
X0167323Y0121222
X0158839Y0113086
X0172247Y0101048
X013998Y0088189
X0193898Y0055823
X0198467Y0051396
X0198425Y0040354
X0128583Y0045866
X0091367Y0043523
Y0037598
X0080596Y0032993
X0086548Y0012524
X0107933Y0006327
X0109166Y0023167
X0129516Y0006133
X0038189Y0006642
Y0024442
X0029527Y0050197
X0051181Y0048169
X0035146Y008537
X0021547
X0019685Y0124008
X0036847
X0086548Y0123622
Y0120472
X009537Y0120276
X0092795Y0123268
X0100478Y0121577
X0107677Y0122933
X0105324Y012668
X0096118Y0130622
X0096708Y0112544
X0101451Y0112544
X0106102Y0112589
X0109439
X0115412Y011244
X0113976Y0120276
X0090354Y0109368
X0087933Y0086614
X0087914Y0078189
X0097933Y0073189
X0095492Y0068116
X0091258Y0063189
X0127933Y0098189
T04
X0153543Y0035866
Y0045866
Y0055866
Y0065866
Y0075866
Y0085866
X0182185Y0012313
X0192185
X0066929Y0035866
Y0045866
Y0055866
Y0065866
Y0075866
Y0085866
Y0095866
Y0105866
T05
X0184055Y0121801
M30
