G04*
G04 #@! TF.GenerationSoftware,Altium Limited,Altium Designer,25.2.1 (25)*
G04*
G04 Layer_Color=65535*
%FSLAX25Y25*%
%MOIN*%
G70*
G04*
G04 #@! TF.SameCoordinates,AD5E336D-F693-4BD2-921A-DB4C2101B080*
G04*
G04*
G04 #@! TF.FilePolarity,Positive*
G04*
G01*
G75*
%ADD10C,0.00984*%
%ADD11C,0.00787*%
%ADD12C,0.00598*%
%ADD13C,0.00500*%
%ADD14C,0.00591*%
%ADD15C,0.01000*%
%ADD16C,0.00602*%
G36*
X194326Y17778D02*
X190412D01*
Y37971D01*
X194326D01*
Y17778D01*
D02*
G37*
G36*
X169793Y18523D02*
X149600D01*
Y22104D01*
X169793D01*
Y18523D01*
D02*
G37*
G36*
X184102Y37971D02*
Y17778D01*
X180188D01*
Y37971D01*
X184102D01*
D02*
G37*
G36*
X79331Y116176D02*
X71055D01*
Y141914D01*
X79331D01*
Y116176D01*
D02*
G37*
%LPC*%
G36*
X193396Y37236D02*
X192903D01*
Y36177D01*
X192848Y36211D01*
X192806Y36249D01*
X192785Y36262D01*
X192772Y36274D01*
X192763Y36283D01*
X192759Y36287D01*
X192742Y36304D01*
X192726Y36321D01*
X192679Y36367D01*
X192629Y36418D01*
X192578Y36473D01*
X192527Y36523D01*
X192489Y36566D01*
X192472Y36578D01*
X192460Y36591D01*
X192455Y36599D01*
X192451Y36603D01*
X192371Y36692D01*
X192299Y36764D01*
X192236Y36827D01*
X192185Y36873D01*
X192147Y36911D01*
X192118Y36937D01*
X192101Y36950D01*
X192097Y36954D01*
X192029Y37004D01*
X191966Y37051D01*
X191907Y37089D01*
X191852Y37118D01*
X191810Y37139D01*
X191776Y37156D01*
X191755Y37165D01*
X191746Y37169D01*
X191683Y37190D01*
X191616Y37207D01*
X191557Y37220D01*
X191502Y37228D01*
X191455Y37232D01*
X191417Y37236D01*
X191388D01*
X191329Y37232D01*
X191270Y37228D01*
X191164Y37198D01*
X191071Y37161D01*
X190991Y37118D01*
X190928Y37076D01*
X190898Y37055D01*
X190877Y37038D01*
X190860Y37021D01*
X190848Y37009D01*
X190843Y37004D01*
X190839Y37000D01*
X190801Y36954D01*
X190763Y36907D01*
X190734Y36852D01*
X190708Y36802D01*
X190670Y36692D01*
X190645Y36591D01*
X190632Y36540D01*
X190628Y36498D01*
X190624Y36456D01*
X190620Y36422D01*
X190616Y36392D01*
Y37236D01*
Y36287D01*
X190624Y36219D01*
X190645Y36101D01*
X190679Y35996D01*
X190696Y35949D01*
X190713Y35907D01*
X190729Y35865D01*
X190746Y35831D01*
X190763Y35802D01*
X190780Y35781D01*
X190793Y35759D01*
X190801Y35747D01*
X190805Y35738D01*
X190810Y35734D01*
X190848Y35692D01*
X190890Y35650D01*
X190936Y35616D01*
X190987Y35582D01*
X191092Y35532D01*
X191194Y35494D01*
X191244Y35477D01*
X191291Y35468D01*
X191329Y35456D01*
X191367Y35451D01*
X191396Y35443D01*
X191417D01*
X191434Y35439D01*
X191438D01*
X191489Y35966D01*
X191409Y35975D01*
X191337Y35987D01*
X191282Y36008D01*
X191236Y36025D01*
X191198Y36046D01*
X191177Y36059D01*
X191160Y36072D01*
X191156Y36076D01*
X191122Y36118D01*
X191097Y36160D01*
X191080Y36207D01*
X191067Y36249D01*
X191059Y36283D01*
X191054Y36316D01*
Y36342D01*
X191059Y36401D01*
X191071Y36456D01*
X191084Y36502D01*
X191101Y36540D01*
X191122Y36570D01*
X191135Y36591D01*
X191147Y36603D01*
X191151Y36608D01*
X191190Y36641D01*
X191236Y36663D01*
X191282Y36679D01*
X191324Y36692D01*
X191363Y36700D01*
X191396Y36705D01*
X191417D01*
X191426D01*
X191485Y36700D01*
X191544Y36688D01*
X191599Y36671D01*
X191649Y36650D01*
X191692Y36629D01*
X191721Y36612D01*
X191742Y36599D01*
X191751Y36595D01*
X191776Y36578D01*
X191806Y36553D01*
X191835Y36523D01*
X191869Y36489D01*
X191945Y36418D01*
X192021Y36342D01*
X192088Y36270D01*
X192122Y36236D01*
X192147Y36211D01*
X192168Y36186D01*
X192190Y36169D01*
X192198Y36156D01*
X192202Y36152D01*
X192278Y36072D01*
X192350Y35996D01*
X192418Y35932D01*
X192481Y35869D01*
X192540Y35814D01*
X192595Y35768D01*
X192645Y35721D01*
X192692Y35684D01*
X192730Y35654D01*
X192768Y35624D01*
X192797Y35603D01*
X192823Y35582D01*
X192844Y35570D01*
X192856Y35561D01*
X192865Y35553D01*
X192869D01*
X192962Y35502D01*
X193055Y35464D01*
X193143Y35430D01*
X193228Y35409D01*
X193295Y35392D01*
X193325Y35388D01*
X193350Y35384D01*
X193367Y35380D01*
X193384Y35375D01*
X193396D01*
Y37236D01*
D02*
G37*
G36*
X193042Y35375D02*
X190616D01*
D01*
X193042D01*
D02*
G37*
G36*
X193396Y35194D02*
Y34380D01*
X191092D01*
Y35194D01*
X190624D01*
Y33004D01*
X193396D01*
Y35194D01*
D02*
G37*
G36*
Y32607D02*
X190624D01*
Y32088D01*
X192485D01*
X190624Y30944D01*
Y30404D01*
X193396D01*
Y32607D01*
D02*
G37*
G36*
Y29873D02*
X190624D01*
Y29311D01*
X193396D01*
Y29873D01*
D02*
G37*
G36*
X194160Y29062D02*
X193396D01*
Y26855D01*
D01*
Y29062D01*
X193814D01*
Y26855D01*
X194160D01*
Y29062D01*
D02*
G37*
G36*
X192548Y26695D02*
X192544D01*
X192375Y26151D01*
X192485Y26121D01*
X192574Y26083D01*
X192654Y26045D01*
X192717Y26007D01*
X192763Y25973D01*
X192801Y25944D01*
X192818Y25927D01*
X192827Y25918D01*
X192873Y25855D01*
X192907Y25792D01*
X192932Y25728D01*
X192949Y25665D01*
X192958Y25615D01*
X192962Y25572D01*
X192966Y25556D01*
Y25534D01*
X192962Y25480D01*
X192958Y25429D01*
X192932Y25332D01*
X192899Y25247D01*
X192856Y25176D01*
X192814Y25121D01*
X192780Y25079D01*
X192755Y25053D01*
X192751Y25049D01*
X192747Y25045D01*
X192700Y25011D01*
X192650Y24986D01*
X192595Y24961D01*
X192536Y24939D01*
X192409Y24906D01*
X192287Y24884D01*
X192228Y24876D01*
X192173Y24868D01*
X192126Y24863D01*
X192080D01*
X192046Y24859D01*
X192017D01*
X192000D01*
X191996D01*
X191907Y24863D01*
X191823Y24868D01*
X191742Y24876D01*
X191675Y24889D01*
X191607Y24901D01*
X191548Y24918D01*
X191498Y24935D01*
X191451Y24956D01*
X191409Y24973D01*
X191375Y24990D01*
X191346Y25007D01*
X191320Y25019D01*
X191303Y25032D01*
X191287Y25041D01*
X191282Y25049D01*
X191278D01*
X191240Y25087D01*
X191202Y25125D01*
X191173Y25167D01*
X191147Y25205D01*
X191109Y25290D01*
X191084Y25370D01*
X191067Y25442D01*
X191063Y25471D01*
X191059Y25496D01*
X191054Y25517D01*
Y25547D01*
X191059Y25627D01*
X191076Y25699D01*
X191092Y25767D01*
X191118Y25821D01*
X191139Y25868D01*
X191160Y25897D01*
X191177Y25918D01*
X191181Y25927D01*
X191232Y25982D01*
X191287Y26024D01*
X191341Y26062D01*
X191396Y26087D01*
X191447Y26108D01*
X191485Y26125D01*
X191510Y26129D01*
X191514Y26134D01*
X191519D01*
X191388Y26686D01*
X191270Y26649D01*
X191168Y26602D01*
X191084Y26551D01*
X191012Y26505D01*
X190953Y26463D01*
X190915Y26429D01*
X190890Y26408D01*
X190881Y26404D01*
Y26399D01*
X190826Y26336D01*
X190780Y26273D01*
X190742Y26205D01*
X190704Y26138D01*
X190675Y26070D01*
X190654Y25999D01*
X190632Y25935D01*
X190616Y25868D01*
X190603Y25809D01*
X190594Y25754D01*
X190586Y25703D01*
X190582Y25661D01*
X190578Y25627D01*
Y26695D01*
D01*
Y24281D01*
Y25577D01*
X190582Y25471D01*
X190594Y25370D01*
X190611Y25273D01*
X190637Y25184D01*
X190666Y25100D01*
X190700Y25024D01*
X190734Y24952D01*
X190768Y24889D01*
X190805Y24830D01*
X190839Y24779D01*
X190873Y24737D01*
X190902Y24699D01*
X190928Y24674D01*
X190945Y24652D01*
X190957Y24640D01*
X190962Y24635D01*
X191038Y24572D01*
X191118Y24517D01*
X191202Y24471D01*
X191291Y24429D01*
X191379Y24395D01*
X191472Y24370D01*
X191557Y24344D01*
X191645Y24328D01*
X191725Y24311D01*
X191797Y24298D01*
X191865Y24294D01*
X191924Y24285D01*
X191970D01*
X192008Y24281D01*
X190578D01*
X192038D01*
X192156Y24285D01*
X192270Y24298D01*
X192375Y24315D01*
X192472Y24336D01*
X192565Y24365D01*
X192650Y24395D01*
X192730Y24424D01*
X192797Y24458D01*
X192861Y24492D01*
X192915Y24522D01*
X192962Y24555D01*
X193000Y24581D01*
X193029Y24602D01*
X193051Y24619D01*
X193063Y24631D01*
X193067Y24635D01*
X193135Y24703D01*
X193190Y24775D01*
X193240Y24851D01*
X193283Y24927D01*
X193321Y25003D01*
X193350Y25079D01*
X193375Y25150D01*
X193396Y25222D01*
X193413Y25290D01*
X193422Y25349D01*
X193430Y25404D01*
X193439Y25450D01*
Y25488D01*
X193443Y25517D01*
Y25543D01*
X193439Y25623D01*
X193435Y25703D01*
X193422Y25775D01*
X193409Y25847D01*
X193392Y25910D01*
X193375Y25969D01*
X193354Y26024D01*
X193333Y26074D01*
X193312Y26121D01*
X193291Y26163D01*
X193274Y26197D01*
X193257Y26226D01*
X193245Y26248D01*
X193232Y26264D01*
X193228Y26273D01*
X193224Y26277D01*
X193181Y26332D01*
X193131Y26378D01*
X193025Y26467D01*
X192911Y26539D01*
X192801Y26594D01*
X192751Y26619D01*
X192700Y26640D01*
X192658Y26657D01*
X192620Y26670D01*
X192586Y26682D01*
X192565Y26691D01*
X192548Y26695D01*
D02*
G37*
G36*
Y23901D02*
X192544D01*
X192375Y23357D01*
X192485Y23327D01*
X192574Y23289D01*
X192654Y23251D01*
X192717Y23213D01*
X192763Y23180D01*
X192801Y23150D01*
X192818Y23133D01*
X192827Y23125D01*
X192873Y23062D01*
X192907Y22998D01*
X192932Y22935D01*
X192949Y22872D01*
X192958Y22821D01*
X192962Y22779D01*
X192966Y22762D01*
Y22741D01*
X192962Y22686D01*
X192958Y22635D01*
X192932Y22538D01*
X192899Y22454D01*
X192856Y22382D01*
X192814Y22327D01*
X192780Y22285D01*
X192755Y22260D01*
X192751Y22255D01*
X192747Y22251D01*
X192700Y22218D01*
X192650Y22192D01*
X192595Y22167D01*
X192536Y22146D01*
X192409Y22112D01*
X192287Y22091D01*
X192228Y22082D01*
X192173Y22074D01*
X192126Y22070D01*
X192080D01*
X192046Y22065D01*
X192017D01*
X192000D01*
X191996D01*
X191907Y22070D01*
X191823Y22074D01*
X191742Y22082D01*
X191675Y22095D01*
X191607Y22108D01*
X191548Y22125D01*
X191498Y22141D01*
X191451Y22163D01*
X191409Y22179D01*
X191375Y22196D01*
X191346Y22213D01*
X191320Y22226D01*
X191303Y22239D01*
X191287Y22247D01*
X191282Y22255D01*
X191278D01*
X191240Y22293D01*
X191202Y22331D01*
X191173Y22374D01*
X191147Y22412D01*
X191109Y22496D01*
X191084Y22576D01*
X191067Y22648D01*
X191063Y22677D01*
X191059Y22703D01*
X191054Y22724D01*
Y22753D01*
X191059Y22834D01*
X191076Y22905D01*
X191092Y22973D01*
X191118Y23028D01*
X191139Y23074D01*
X191160Y23104D01*
X191177Y23125D01*
X191181Y23133D01*
X191232Y23188D01*
X191287Y23230D01*
X191341Y23268D01*
X191396Y23294D01*
X191447Y23315D01*
X191485Y23332D01*
X191510Y23336D01*
X191514Y23340D01*
X191519D01*
X191388Y23893D01*
X191270Y23855D01*
X191168Y23808D01*
X191084Y23758D01*
X191012Y23711D01*
X190953Y23669D01*
X190915Y23635D01*
X190890Y23614D01*
X190881Y23610D01*
Y23606D01*
X190826Y23542D01*
X190780Y23479D01*
X190742Y23412D01*
X190704Y23344D01*
X190675Y23277D01*
X190654Y23205D01*
X190632Y23142D01*
X190616Y23074D01*
X190603Y23015D01*
X190594Y22960D01*
X190586Y22909D01*
X190582Y22867D01*
X190578Y22834D01*
Y22783D01*
X190582Y22677D01*
X190594Y22576D01*
X190611Y22479D01*
X190637Y22390D01*
X190666Y22306D01*
X190700Y22230D01*
X190734Y22158D01*
X190768Y22095D01*
X190805Y22036D01*
X190839Y21985D01*
X190873Y21943D01*
X190902Y21905D01*
X190928Y21880D01*
X190945Y21859D01*
X190957Y21846D01*
X190962Y21842D01*
X191038Y21779D01*
X191118Y21724D01*
X191202Y21677D01*
X191291Y21635D01*
X191379Y21601D01*
X191472Y21576D01*
X191557Y21551D01*
X191645Y21534D01*
X191725Y21517D01*
X191797Y21504D01*
X191865Y21500D01*
X191924Y21492D01*
X191970D01*
X192008Y21487D01*
X190578D01*
X192038D01*
X192156Y21492D01*
X192270Y21504D01*
X192375Y21521D01*
X192472Y21542D01*
X192565Y21572D01*
X192650Y21601D01*
X192730Y21631D01*
X192797Y21665D01*
X192861Y21698D01*
X192915Y21728D01*
X192962Y21762D01*
X193000Y21787D01*
X193029Y21808D01*
X193051Y21825D01*
X193063Y21838D01*
X193067Y21842D01*
X193135Y21909D01*
X193190Y21981D01*
X193240Y22057D01*
X193283Y22133D01*
X193321Y22209D01*
X193350Y22285D01*
X193375Y22357D01*
X193396Y22429D01*
X193413Y22496D01*
X193422Y22555D01*
X193430Y22610D01*
X193439Y22656D01*
Y22694D01*
X193443Y22724D01*
Y21859D01*
Y22724D01*
Y22749D01*
X193439Y22829D01*
X193435Y22909D01*
X193422Y22981D01*
X193409Y23053D01*
X193392Y23116D01*
X193375Y23175D01*
X193354Y23230D01*
X193333Y23281D01*
X193312Y23327D01*
X193291Y23370D01*
X193274Y23403D01*
X193257Y23433D01*
X193245Y23454D01*
X193232Y23471D01*
X193228Y23479D01*
X193224Y23483D01*
X193181Y23538D01*
X193131Y23585D01*
X193025Y23673D01*
X192911Y23745D01*
X192801Y23800D01*
X192751Y23825D01*
X192700Y23846D01*
X192658Y23863D01*
X192620Y23876D01*
X192586Y23889D01*
X192565Y23897D01*
X192548Y23901D01*
D02*
G37*
G36*
X193396Y21293D02*
X190624Y20179D01*
Y19588D01*
X193396Y18512D01*
X190624D01*
D01*
X193396D01*
Y19103D01*
X192768Y19331D01*
Y20449D01*
X193396Y20686D01*
Y21293D01*
D02*
G37*
%LPD*%
G36*
Y33004D02*
X191092D01*
Y33818D01*
X193396D01*
Y33004D01*
D02*
G37*
G36*
Y30923D02*
X191578D01*
X193396Y32046D01*
Y30923D01*
D02*
G37*
G36*
X192299Y19504D02*
X191270Y19880D01*
X192299Y20268D01*
Y19504D01*
D02*
G37*
%LPC*%
G36*
X156762Y21881D02*
X156707D01*
X156550Y21877D01*
X156412Y21858D01*
X156347Y21844D01*
X156287Y21835D01*
X156232Y21821D01*
X156181Y21808D01*
X156140Y21789D01*
X156098Y21775D01*
X156066Y21766D01*
X156034Y21752D01*
X156010Y21743D01*
X155997Y21734D01*
X155987Y21729D01*
X155983D01*
X155849Y21646D01*
X155729Y21558D01*
X155632Y21462D01*
X155550Y21370D01*
X155485Y21291D01*
X155462Y21254D01*
X155439Y21222D01*
X155425Y21199D01*
X155411Y21181D01*
X155406Y21167D01*
X155402Y21162D01*
X155337Y21019D01*
X155291Y20876D01*
X155254Y20733D01*
X155231Y20604D01*
X155227Y20544D01*
X155218Y20494D01*
X155213Y20443D01*
Y20401D01*
X155208Y20369D01*
Y20323D01*
X155218Y20162D01*
X155236Y20010D01*
X155264Y19876D01*
X155278Y19811D01*
X155296Y19751D01*
X155314Y19701D01*
X155328Y19655D01*
X155342Y19613D01*
X155356Y19576D01*
X155370Y19549D01*
X155374Y19530D01*
X155384Y19516D01*
Y19512D01*
X155457Y19383D01*
X155540Y19267D01*
X155628Y19171D01*
X155711Y19092D01*
X155789Y19028D01*
X155822Y19000D01*
X155854Y18981D01*
X155877Y18968D01*
X155895Y18954D01*
X155904Y18949D01*
X155909Y18945D01*
X155978Y18908D01*
X156047Y18880D01*
X156190Y18829D01*
X156328Y18797D01*
X156458Y18769D01*
X156518Y18765D01*
X156568Y18756D01*
X156619Y18751D01*
X156660D01*
X156693Y18746D01*
X156739D01*
X156877Y18751D01*
X157011Y18769D01*
X157135Y18792D01*
X157246Y18816D01*
X157297Y18829D01*
X157343Y18843D01*
X157380Y18853D01*
X157412Y18862D01*
X157440Y18871D01*
X157458Y18880D01*
X157472Y18885D01*
X157476D01*
X157606Y18940D01*
X157716Y18995D01*
X157813Y19051D01*
X157891Y19101D01*
X157956Y19148D01*
X157997Y19180D01*
X158025Y19203D01*
X158034Y19212D01*
Y20425D01*
X156720D01*
Y19913D01*
X157416D01*
Y19525D01*
X157361Y19484D01*
X157306Y19452D01*
X157250Y19420D01*
X157200Y19392D01*
X157154Y19369D01*
X157117Y19355D01*
X157094Y19346D01*
X157085Y19341D01*
X157011Y19318D01*
X156942Y19300D01*
X156877Y19286D01*
X156822Y19277D01*
X156771Y19272D01*
X156734Y19267D01*
X156702D01*
X156633Y19272D01*
X156564Y19281D01*
X156499Y19290D01*
X156439Y19309D01*
X156333Y19350D01*
X156246Y19401D01*
X156204Y19424D01*
X156172Y19452D01*
X156144Y19475D01*
X156116Y19493D01*
X156098Y19512D01*
X156084Y19525D01*
X156080Y19530D01*
X156075Y19535D01*
X156034Y19590D01*
X155997Y19650D01*
X155964Y19710D01*
X155941Y19774D01*
X155895Y19913D01*
X155868Y20042D01*
X155858Y20106D01*
X155854Y20162D01*
X155849Y20212D01*
X155844Y20258D01*
X155840Y20295D01*
Y20323D01*
Y20342D01*
Y20346D01*
X155844Y20438D01*
X155849Y20521D01*
X155863Y20604D01*
X155877Y20678D01*
X155895Y20743D01*
X155914Y20807D01*
X155932Y20862D01*
X155955Y20913D01*
X155978Y20959D01*
X155997Y20996D01*
X156015Y21028D01*
X156034Y21056D01*
X156047Y21075D01*
X156061Y21088D01*
X156066Y21098D01*
X156070Y21102D01*
X156116Y21148D01*
X156167Y21190D01*
X156218Y21222D01*
X156269Y21250D01*
X156375Y21296D01*
X156476Y21328D01*
X156568Y21347D01*
X156605Y21351D01*
X156642Y21356D01*
X156670Y21360D01*
X156707D01*
X156799Y21356D01*
X156886Y21342D01*
X156960Y21319D01*
X157025Y21296D01*
X157075Y21273D01*
X157112Y21250D01*
X157135Y21236D01*
X157144Y21231D01*
X157204Y21181D01*
X157255Y21121D01*
X157297Y21065D01*
X157329Y21010D01*
X157357Y20959D01*
X157370Y20918D01*
X157380Y20890D01*
X157384Y20886D01*
Y20881D01*
X157993Y20996D01*
X157974Y21070D01*
X157947Y21144D01*
X157891Y21268D01*
X157859Y21328D01*
X157822Y21379D01*
X157790Y21429D01*
X157753Y21471D01*
X157721Y21512D01*
X157688Y21545D01*
X157661Y21572D01*
X157633Y21600D01*
X157615Y21619D01*
X157596Y21632D01*
X157587Y21637D01*
X157582Y21642D01*
X157522Y21683D01*
X157453Y21720D01*
X157384Y21752D01*
X157315Y21780D01*
X157168Y21821D01*
X157029Y21854D01*
X156960Y21863D01*
X156900Y21867D01*
X156845Y21872D01*
X156799Y21877D01*
X156762Y21881D01*
D02*
G37*
G36*
X161008Y21831D02*
X160441D01*
Y19797D01*
X159191Y21831D01*
X158601D01*
Y18802D01*
X159168D01*
Y20789D01*
X160395Y18802D01*
X161008D01*
Y21831D01*
D02*
G37*
G36*
X162856D02*
X161653D01*
Y18802D01*
X162796D01*
X162916Y18806D01*
X163027Y18811D01*
X163119Y18820D01*
X163193Y18834D01*
X163257Y18843D01*
X163299Y18853D01*
X163327Y18857D01*
X163336Y18862D01*
X163433Y18899D01*
X163515Y18936D01*
X163589Y18977D01*
X163654Y19018D01*
X163700Y19051D01*
X163737Y19078D01*
X163755Y19101D01*
X163765Y19106D01*
X163838Y19189D01*
X163903Y19277D01*
X163958Y19364D01*
X164004Y19452D01*
X164041Y19525D01*
X164055Y19558D01*
X164069Y19586D01*
X164078Y19609D01*
X164083Y19627D01*
X164087Y19636D01*
Y19641D01*
X164120Y19747D01*
X164143Y19858D01*
X164161Y19963D01*
X164170Y20065D01*
X164179Y20153D01*
Y20189D01*
X164184Y20222D01*
Y20286D01*
X164179Y20438D01*
X164170Y20577D01*
X164152Y20701D01*
X164143Y20752D01*
X164133Y20802D01*
X164124Y20849D01*
X164115Y20886D01*
X164106Y20922D01*
X164096Y20950D01*
X164092Y20973D01*
X164087Y20987D01*
X164083Y20996D01*
Y21001D01*
X164041Y21107D01*
X163995Y21199D01*
X163949Y21282D01*
X163903Y21356D01*
X163857Y21411D01*
X163824Y21452D01*
X163801Y21480D01*
X163797Y21489D01*
X163792D01*
X163718Y21558D01*
X163640Y21619D01*
X163566Y21669D01*
X163497Y21706D01*
X163433Y21734D01*
X163386Y21757D01*
X163368Y21761D01*
X163354Y21766D01*
X163345Y21771D01*
X163340D01*
X163257Y21789D01*
X163165Y21808D01*
X163073Y21817D01*
X162976Y21821D01*
X162893Y21826D01*
X162856Y21831D01*
D02*
G37*
%LPD*%
G36*
X162723Y21314D02*
X162773D01*
X162819Y21310D01*
X162856D01*
X162893Y21305D01*
X162926D01*
X162976Y21296D01*
X163008Y21291D01*
X163031Y21286D01*
X163036D01*
X163096Y21268D01*
X163151Y21250D01*
X163202Y21227D01*
X163239Y21204D01*
X163271Y21181D01*
X163299Y21162D01*
X163313Y21148D01*
X163317Y21144D01*
X163359Y21102D01*
X163391Y21051D01*
X163419Y21005D01*
X163446Y20955D01*
X163465Y20913D01*
X163479Y20881D01*
X163483Y20858D01*
X163488Y20849D01*
X163511Y20775D01*
X163525Y20687D01*
X163539Y20600D01*
X163543Y20512D01*
X163548Y20434D01*
X163552Y20401D01*
Y20374D01*
Y20346D01*
Y20328D01*
Y20319D01*
Y20314D01*
X163548Y20189D01*
X163543Y20079D01*
X163534Y19982D01*
X163520Y19904D01*
X163506Y19839D01*
X163497Y19793D01*
X163493Y19779D01*
Y19765D01*
X163488Y19761D01*
Y19756D01*
X163465Y19687D01*
X163437Y19627D01*
X163414Y19576D01*
X163386Y19535D01*
X163363Y19502D01*
X163350Y19484D01*
X163336Y19470D01*
X163331Y19466D01*
X163294Y19433D01*
X163253Y19410D01*
X163170Y19369D01*
X163137Y19360D01*
X163110Y19350D01*
X163087Y19341D01*
X163082D01*
X163036Y19332D01*
X162981Y19327D01*
X162916Y19318D01*
X162861D01*
X162806Y19313D01*
X162266D01*
Y21319D01*
X162667D01*
X162723Y21314D01*
D02*
G37*
%LPC*%
G36*
X183173Y37021D02*
X180392D01*
Y35802D01*
X183173D01*
X181573D01*
X181518Y35945D01*
X181455Y36076D01*
X181392Y36190D01*
X181358Y36245D01*
X181324Y36291D01*
X181295Y36338D01*
X181265Y36376D01*
X181240Y36409D01*
X181219Y36439D01*
X181198Y36460D01*
X181185Y36477D01*
X181176Y36485D01*
X181172Y36489D01*
X183173D01*
Y37021D01*
D02*
G37*
G36*
Y35409D02*
Y34595D01*
X180868D01*
Y35409D01*
X180400D01*
Y33219D01*
X183173D01*
Y35409D01*
D02*
G37*
G36*
Y32822D02*
X180400D01*
Y30619D01*
X183173D01*
Y32822D01*
D02*
G37*
G36*
Y30088D02*
X180400D01*
Y29526D01*
X183173D01*
Y30088D01*
D02*
G37*
G36*
X183936Y29278D02*
X183173D01*
Y27071D01*
D01*
Y29278D01*
X183590D01*
Y27071D01*
X183936D01*
Y29278D01*
D02*
G37*
G36*
X182324Y26910D02*
X182320D01*
X182151Y26366D01*
X182261Y26336D01*
X182350Y26298D01*
X182430Y26260D01*
X182493Y26222D01*
X182539Y26188D01*
X182578Y26159D01*
X182594Y26142D01*
X182603Y26134D01*
X182649Y26070D01*
X182683Y26007D01*
X182708Y25944D01*
X182725Y25880D01*
X182734Y25830D01*
X182738Y25788D01*
X182742Y25771D01*
Y25750D01*
X182738Y25695D01*
X182734Y25644D01*
X182708Y25547D01*
X182675Y25463D01*
X182632Y25391D01*
X182590Y25336D01*
X182556Y25294D01*
X182531Y25269D01*
X182527Y25264D01*
X182523Y25260D01*
X182476Y25226D01*
X182426Y25201D01*
X182371Y25176D01*
X182312Y25155D01*
X182185Y25121D01*
X182063Y25100D01*
X182004Y25091D01*
X181949Y25083D01*
X181902Y25079D01*
X181856D01*
X181822Y25074D01*
X181793D01*
X181776D01*
X181772D01*
X181683Y25079D01*
X181598Y25083D01*
X181518Y25091D01*
X181451Y25104D01*
X181383Y25117D01*
X181324Y25133D01*
X181273Y25150D01*
X181227Y25172D01*
X181185Y25188D01*
X181151Y25205D01*
X181122Y25222D01*
X181096Y25235D01*
X181079Y25247D01*
X181062Y25256D01*
X181058Y25264D01*
X181054D01*
X181016Y25302D01*
X180978Y25340D01*
X180949Y25383D01*
X180923Y25420D01*
X180885Y25505D01*
X180860Y25585D01*
X180843Y25657D01*
X180839Y25686D01*
X180835Y25712D01*
X180830Y25733D01*
Y25762D01*
X180835Y25842D01*
X180851Y25914D01*
X180868Y25982D01*
X180894Y26037D01*
X180915Y26083D01*
X180936Y26112D01*
X180953Y26134D01*
X180957Y26142D01*
X181008Y26197D01*
X181062Y26239D01*
X181117Y26277D01*
X181172Y26302D01*
X181223Y26324D01*
X181261Y26340D01*
X181286Y26345D01*
X181290Y26349D01*
X181295D01*
X181164Y26902D01*
X181046Y26864D01*
X180944Y26817D01*
X180860Y26767D01*
X180788Y26720D01*
X180729Y26678D01*
X180691Y26644D01*
X180666Y26623D01*
X180657Y26619D01*
Y26615D01*
X180603Y26551D01*
X180556Y26488D01*
X180518Y26421D01*
X180480Y26353D01*
X180451Y26285D01*
X180429Y26214D01*
X180408Y26151D01*
X180392Y26083D01*
X180379Y26024D01*
X180370Y25969D01*
X180362Y25918D01*
X180358Y25876D01*
X180353Y25842D01*
Y26910D01*
D01*
Y24496D01*
D01*
Y25792D01*
X180358Y25686D01*
X180370Y25585D01*
X180387Y25488D01*
X180413Y25399D01*
X180442Y25315D01*
X180476Y25239D01*
X180510Y25167D01*
X180543Y25104D01*
X180581Y25045D01*
X180615Y24994D01*
X180649Y24952D01*
X180678Y24914D01*
X180704Y24889D01*
X180721Y24868D01*
X180733Y24855D01*
X180738Y24851D01*
X180814Y24787D01*
X180894Y24733D01*
X180978Y24686D01*
X181067Y24644D01*
X181155Y24610D01*
X181248Y24585D01*
X181333Y24560D01*
X181421Y24543D01*
X181501Y24526D01*
X181573Y24513D01*
X181641Y24509D01*
X181700Y24500D01*
X181746D01*
X181784Y24496D01*
X180353D01*
X181814D01*
X181932Y24500D01*
X182046Y24513D01*
X182151Y24530D01*
X182248Y24551D01*
X182341Y24581D01*
X182426Y24610D01*
X182506Y24640D01*
X182573Y24674D01*
X182637Y24707D01*
X182691Y24737D01*
X182738Y24771D01*
X182776Y24796D01*
X182805Y24817D01*
X182826Y24834D01*
X182839Y24847D01*
X182843Y24851D01*
X182911Y24918D01*
X182966Y24990D01*
X183016Y25066D01*
X183059Y25142D01*
X183097Y25218D01*
X183126Y25294D01*
X183151Y25366D01*
X183173Y25437D01*
X183189Y25505D01*
X183198Y25564D01*
X183206Y25619D01*
X183215Y25665D01*
Y25703D01*
X183219Y25733D01*
Y25758D01*
X183215Y25838D01*
X183211Y25918D01*
X183198Y25990D01*
X183185Y26062D01*
X183168Y26125D01*
X183151Y26184D01*
X183130Y26239D01*
X183109Y26290D01*
X183088Y26336D01*
X183067Y26378D01*
X183050Y26412D01*
X183033Y26442D01*
X183021Y26463D01*
X183008Y26480D01*
X183004Y26488D01*
X183000Y26492D01*
X182957Y26547D01*
X182907Y26594D01*
X182801Y26682D01*
X182687Y26754D01*
X182578Y26809D01*
X182527Y26834D01*
X182476Y26855D01*
X182434Y26872D01*
X182396Y26885D01*
X182362Y26897D01*
X182341Y26906D01*
X182324Y26910D01*
D02*
G37*
G36*
Y24116D02*
X182320D01*
X182151Y23572D01*
X182261Y23542D01*
X182350Y23505D01*
X182430Y23467D01*
X182493Y23429D01*
X182539Y23395D01*
X182578Y23365D01*
X182594Y23348D01*
X182603Y23340D01*
X182649Y23277D01*
X182683Y23213D01*
X182708Y23150D01*
X182725Y23087D01*
X182734Y23036D01*
X182738Y22994D01*
X182742Y22977D01*
Y22956D01*
X182738Y22901D01*
X182734Y22851D01*
X182708Y22753D01*
X182675Y22669D01*
X182632Y22597D01*
X182590Y22542D01*
X182556Y22500D01*
X182531Y22475D01*
X182527Y22471D01*
X182523Y22466D01*
X182476Y22433D01*
X182426Y22407D01*
X182371Y22382D01*
X182312Y22361D01*
X182185Y22327D01*
X182063Y22306D01*
X182004Y22298D01*
X181949Y22289D01*
X181902Y22285D01*
X181856D01*
X181822Y22281D01*
X181793D01*
X181776D01*
X181772D01*
X181683Y22285D01*
X181598Y22289D01*
X181518Y22298D01*
X181451Y22310D01*
X181383Y22323D01*
X181324Y22340D01*
X181273Y22357D01*
X181227Y22378D01*
X181185Y22395D01*
X181151Y22412D01*
X181122Y22429D01*
X181096Y22441D01*
X181079Y22454D01*
X181062Y22462D01*
X181058Y22471D01*
X181054D01*
X181016Y22509D01*
X180978Y22547D01*
X180949Y22589D01*
X180923Y22627D01*
X180885Y22711D01*
X180860Y22791D01*
X180843Y22863D01*
X180839Y22893D01*
X180835Y22918D01*
X180830Y22939D01*
Y22969D01*
X180835Y23049D01*
X180851Y23121D01*
X180868Y23188D01*
X180894Y23243D01*
X180915Y23289D01*
X180936Y23319D01*
X180953Y23340D01*
X180957Y23348D01*
X181008Y23403D01*
X181062Y23446D01*
X181117Y23483D01*
X181172Y23509D01*
X181223Y23530D01*
X181261Y23547D01*
X181286Y23551D01*
X181290Y23555D01*
X181295D01*
X181164Y24108D01*
X181046Y24070D01*
X180944Y24024D01*
X180860Y23973D01*
X180788Y23927D01*
X180729Y23884D01*
X180691Y23851D01*
X180666Y23830D01*
X180657Y23825D01*
Y23821D01*
X180603Y23758D01*
X180556Y23695D01*
X180518Y23627D01*
X180480Y23559D01*
X180451Y23492D01*
X180429Y23420D01*
X180408Y23357D01*
X180392Y23289D01*
X180379Y23230D01*
X180370Y23175D01*
X180362Y23125D01*
X180358Y23083D01*
X180353Y23049D01*
Y24116D01*
D01*
Y21703D01*
Y22998D01*
X180358Y22893D01*
X180370Y22791D01*
X180387Y22694D01*
X180413Y22606D01*
X180442Y22521D01*
X180476Y22445D01*
X180510Y22374D01*
X180543Y22310D01*
X180581Y22251D01*
X180615Y22201D01*
X180649Y22158D01*
X180678Y22120D01*
X180704Y22095D01*
X180721Y22074D01*
X180733Y22061D01*
X180738Y22057D01*
X180814Y21994D01*
X180894Y21939D01*
X180978Y21892D01*
X181067Y21850D01*
X181155Y21817D01*
X181248Y21791D01*
X181333Y21766D01*
X181421Y21749D01*
X181501Y21732D01*
X181573Y21720D01*
X181641Y21715D01*
X181700Y21707D01*
X181746D01*
X181784Y21703D01*
X180353D01*
X181814D01*
X181932Y21707D01*
X182046Y21720D01*
X182151Y21736D01*
X182248Y21757D01*
X182341Y21787D01*
X182426Y21817D01*
X182506Y21846D01*
X182573Y21880D01*
X182637Y21914D01*
X182691Y21943D01*
X182738Y21977D01*
X182776Y22002D01*
X182805Y22023D01*
X182826Y22040D01*
X182839Y22053D01*
X182843Y22057D01*
X182911Y22125D01*
X182966Y22196D01*
X183016Y22272D01*
X183059Y22348D01*
X183097Y22424D01*
X183126Y22500D01*
X183151Y22572D01*
X183173Y22644D01*
X183189Y22711D01*
X183198Y22770D01*
X183206Y22825D01*
X183215Y22872D01*
Y22909D01*
X183219Y22939D01*
Y22964D01*
X183215Y23045D01*
X183211Y23125D01*
X183198Y23197D01*
X183185Y23268D01*
X183168Y23332D01*
X183151Y23391D01*
X183130Y23446D01*
X183109Y23496D01*
X183088Y23542D01*
X183067Y23585D01*
X183050Y23618D01*
X183033Y23648D01*
X183021Y23669D01*
X183008Y23686D01*
X183004Y23695D01*
X183000Y23699D01*
X182957Y23753D01*
X182907Y23800D01*
X182801Y23889D01*
X182687Y23960D01*
X182578Y24015D01*
X182527Y24040D01*
X182476Y24062D01*
X182434Y24079D01*
X182396Y24091D01*
X182362Y24104D01*
X182341Y24112D01*
X182324Y24116D01*
D02*
G37*
G36*
X183173Y21508D02*
X180400Y20394D01*
Y21508D01*
D01*
Y18728D01*
X183173D01*
Y19318D01*
X182544Y19546D01*
Y20664D01*
X183173Y20901D01*
Y21508D01*
D02*
G37*
%LPD*%
G36*
X180484Y36549D02*
X180569Y36498D01*
X180645Y36443D01*
X180708Y36388D01*
X180763Y36333D01*
X180801Y36291D01*
X180814Y36279D01*
X180826Y36266D01*
X180830Y36257D01*
X180835Y36253D01*
X180902Y36165D01*
X180953Y36080D01*
X180999Y36004D01*
X181033Y35937D01*
X181062Y35882D01*
X181079Y35840D01*
X181084Y35823D01*
X181088Y35810D01*
X181092Y35806D01*
Y35802D01*
X180392D01*
Y36587D01*
X180484Y36549D01*
D02*
G37*
G36*
X183173Y33219D02*
X180868D01*
Y34034D01*
X183173D01*
Y33219D01*
D02*
G37*
G36*
X180400Y31160D02*
Y32303D01*
X182261D01*
X180400Y31160D01*
D02*
G37*
G36*
X183173Y31139D02*
X181354D01*
X183173Y32261D01*
Y31139D01*
D02*
G37*
G36*
X182075Y19719D02*
X181046Y20095D01*
X182075Y20483D01*
Y19719D01*
D02*
G37*
G36*
X183173Y18728D02*
X180400D01*
Y19804D01*
X183173Y18728D01*
D02*
G37*
%LPC*%
G36*
X77082Y137581D02*
X75274D01*
X75176Y137576D01*
X75089Y137570D01*
X75020Y137564D01*
X74968Y137553D01*
X74928Y137547D01*
X74905Y137541D01*
X74899D01*
X74836Y137524D01*
X74778Y137501D01*
X74726Y137478D01*
X74680Y137455D01*
X74646Y137432D01*
X74617Y137414D01*
X74600Y137403D01*
X74594Y137397D01*
X74542Y137357D01*
X74502Y137305D01*
X74461Y137259D01*
X74427Y137207D01*
X74404Y137167D01*
X74386Y137132D01*
X74375Y137109D01*
X74369Y137098D01*
X74340Y137023D01*
X74317Y136948D01*
X74306Y136873D01*
X74294Y136804D01*
X74288Y136746D01*
X74283Y136700D01*
Y136723D01*
Y136660D01*
X74288Y136562D01*
X74300Y136464D01*
X74323Y136378D01*
X74352Y136291D01*
X74392Y136211D01*
X74427Y136136D01*
X74473Y136072D01*
X74513Y136009D01*
X74554Y135951D01*
X74600Y135905D01*
X74634Y135859D01*
X74669Y135825D01*
X74703Y135796D01*
X74726Y135779D01*
X74738Y135767D01*
X74744Y135761D01*
X74340D01*
Y135087D01*
X77082D01*
Y137581D01*
D02*
G37*
G36*
X77151Y134506D02*
X75775D01*
X75631Y134494D01*
X75504Y134477D01*
X75383Y134459D01*
X75274Y134431D01*
X75170Y134402D01*
X75078Y134373D01*
X74997Y134339D01*
X74922Y134310D01*
X74865Y134275D01*
X74813Y134246D01*
X74767Y134223D01*
X74732Y134200D01*
X74709Y134183D01*
X74698Y134171D01*
X74692Y134166D01*
X74617Y134097D01*
X74559Y134022D01*
X74502Y133947D01*
X74456Y133866D01*
X74415Y133786D01*
X74381Y133705D01*
X74358Y133624D01*
X74335Y133549D01*
X74317Y133480D01*
X74306Y133411D01*
X74294Y133354D01*
X74288Y133302D01*
X74283Y133256D01*
Y133198D01*
X74288Y133100D01*
X74300Y133002D01*
X74317Y132916D01*
X74346Y132829D01*
X74375Y132749D01*
X74404Y132674D01*
X74444Y132611D01*
X74479Y132547D01*
X74513Y132490D01*
X74548Y132443D01*
X74582Y132397D01*
X74611Y132363D01*
X74640Y132334D01*
X74657Y132317D01*
X74669Y132305D01*
X74674Y132299D01*
X74749Y132236D01*
X74830Y132184D01*
X74916Y132138D01*
X75003Y132098D01*
X75095Y132063D01*
X75181Y132035D01*
X75354Y131994D01*
X75429Y131977D01*
X75504Y131965D01*
X75573Y131960D01*
X75625Y131954D01*
X75677Y131948D01*
X74283D01*
X77151D01*
Y133273D01*
X77140Y133434D01*
X77117Y133578D01*
X77088Y133705D01*
X77048Y133814D01*
X77007Y133901D01*
X76990Y133941D01*
X76978Y133970D01*
X76961Y133993D01*
X76955Y134010D01*
X76944Y134016D01*
Y134022D01*
X76858Y134125D01*
X76760Y134218D01*
X76662Y134292D01*
X76564Y134356D01*
X76477Y134402D01*
X76437Y134425D01*
X76402Y134437D01*
X76379Y134448D01*
X76356Y134459D01*
X76345Y134465D01*
X76339D01*
X76218Y133745D01*
X76293Y133722D01*
X76351Y133693D01*
X76402Y133659D01*
X76443Y133630D01*
X76477Y133607D01*
X76500Y133584D01*
X76512Y133572D01*
X76518Y133567D01*
X76546Y133521D01*
X76569Y133475D01*
X76587Y133423D01*
X76598Y133382D01*
X76604Y133342D01*
X76610Y133308D01*
Y133279D01*
X76604Y133192D01*
X76581Y133112D01*
X76552Y133037D01*
X76518Y132979D01*
X76489Y132927D01*
X76460Y132893D01*
X76437Y132870D01*
X76431Y132864D01*
X76356Y132806D01*
X76276Y132766D01*
X76195Y132737D01*
X76109Y132714D01*
X76040Y132703D01*
X75976Y132697D01*
X75953Y132691D01*
X75936D01*
X75930D01*
X75924D01*
Y134506D01*
X77151D01*
D02*
G37*
G36*
Y131568D02*
X75775D01*
X75631Y131556D01*
X75504Y131539D01*
X75383Y131522D01*
X75274Y131493D01*
X75170Y131464D01*
X75078Y131436D01*
X74997Y131401D01*
X74922Y131372D01*
X74865Y131338D01*
X74813Y131309D01*
X74767Y131286D01*
X74732Y131263D01*
X74709Y131245D01*
X74698Y131234D01*
X74692Y131228D01*
X74617Y131159D01*
X74559Y131084D01*
X74502Y131009D01*
X74456Y130929D01*
X74415Y130848D01*
X74381Y130767D01*
X74358Y130687D01*
X74335Y130612D01*
X74317Y130543D01*
X74306Y130474D01*
X74294Y130416D01*
X74288Y130364D01*
X74283Y130318D01*
Y130261D01*
X74288Y130163D01*
X74300Y130065D01*
X74317Y129978D01*
X74346Y129892D01*
X74375Y129811D01*
X74404Y129736D01*
X74444Y129673D01*
X74479Y129610D01*
X74513Y129552D01*
X74548Y129506D01*
X74582Y129460D01*
X74611Y129425D01*
X74640Y129396D01*
X74657Y129379D01*
X74669Y129368D01*
X74674Y129362D01*
X74749Y129299D01*
X74830Y129247D01*
X74916Y129201D01*
X75003Y129160D01*
X75095Y129126D01*
X75181Y129097D01*
X75354Y129057D01*
X75429Y129039D01*
X75504Y129028D01*
X75573Y129022D01*
X75625Y129016D01*
X75677Y129011D01*
X74283D01*
X77151D01*
Y130335D01*
X77140Y130497D01*
X77117Y130641D01*
X77088Y130767D01*
X77048Y130877D01*
X77007Y130963D01*
X76990Y131003D01*
X76978Y131032D01*
X76961Y131055D01*
X76955Y131073D01*
X76944Y131078D01*
Y131084D01*
X76858Y131188D01*
X76760Y131280D01*
X76662Y131355D01*
X76564Y131418D01*
X76477Y131464D01*
X76437Y131487D01*
X76402Y131499D01*
X76379Y131510D01*
X76356Y131522D01*
X76345Y131528D01*
X76339D01*
X76218Y130808D01*
X76293Y130785D01*
X76351Y130756D01*
X76402Y130721D01*
X76443Y130693D01*
X76477Y130669D01*
X76500Y130646D01*
X76512Y130635D01*
X76518Y130629D01*
X76546Y130583D01*
X76569Y130537D01*
X76587Y130485D01*
X76598Y130445D01*
X76604Y130404D01*
X76610Y130370D01*
Y130341D01*
X76604Y130255D01*
X76581Y130174D01*
X76552Y130099D01*
X76518Y130042D01*
X76489Y129990D01*
X76460Y129955D01*
X76437Y129932D01*
X76431Y129926D01*
X76356Y129869D01*
X76276Y129829D01*
X76195Y129800D01*
X76109Y129777D01*
X76040Y129765D01*
X75976Y129759D01*
X75953Y129754D01*
X75936D01*
X75930D01*
X75924D01*
Y131568D01*
X77151D01*
D02*
G37*
G36*
X77082Y128913D02*
D01*
Y127859D01*
X76241D01*
X76114D01*
X75999D01*
X75896Y127864D01*
X75803Y127870D01*
X75717D01*
X75642Y127876D01*
X75579Y127882D01*
X75521Y127887D01*
X75475Y127893D01*
X75429Y127899D01*
X75394Y127905D01*
X75371D01*
X75348Y127910D01*
X75337Y127916D01*
X75325D01*
X75250Y127939D01*
X75187Y127968D01*
X75129Y127997D01*
X75089Y128026D01*
X75060Y128049D01*
X75037Y128066D01*
X75026Y128077D01*
X75020Y128083D01*
X74991Y128123D01*
X74968Y128170D01*
X74957Y128216D01*
X74945Y128256D01*
X74939Y128291D01*
X74934Y128319D01*
Y128342D01*
X74939Y128406D01*
X74951Y128463D01*
X74974Y128521D01*
X74991Y128579D01*
X75014Y128619D01*
X75037Y128659D01*
X75049Y128682D01*
X75055Y128688D01*
X74421Y128913D01*
D01*
X74375Y128826D01*
X74340Y128740D01*
X74317Y128653D01*
X74300Y128584D01*
X74288Y128521D01*
X74283Y128469D01*
Y128429D01*
X74288Y128365D01*
X74294Y128308D01*
X74312Y128256D01*
X74323Y128210D01*
X74340Y128170D01*
X74358Y128141D01*
X74363Y128123D01*
X74369Y128118D01*
X74410Y128066D01*
X74461Y128008D01*
X74519Y127956D01*
X74582Y127910D01*
X74640Y127870D01*
X74686Y127836D01*
X74721Y127813D01*
X74726Y127807D01*
X74340D01*
Y127133D01*
X77082D01*
Y128913D01*
D02*
G37*
G36*
X77151Y126655D02*
D01*
Y125382D01*
X77145Y125480D01*
X77140Y125572D01*
X77111Y125739D01*
X77094Y125814D01*
X77071Y125883D01*
X77048Y125946D01*
X77025Y126004D01*
X77002Y126050D01*
X76984Y126096D01*
X76961Y126136D01*
X76944Y126165D01*
X76927Y126188D01*
X76915Y126211D01*
X76904Y126217D01*
Y126223D01*
X76852Y126280D01*
X76800Y126332D01*
X76685Y126424D01*
X76558Y126499D01*
X76437Y126557D01*
X76328Y126603D01*
X76281Y126620D01*
X76241Y126632D01*
X76207Y126643D01*
X76184Y126649D01*
X76166Y126655D01*
X74283D01*
X76161D01*
X76040Y125941D01*
X76138Y125917D01*
X76224Y125889D01*
X76293Y125854D01*
X76351Y125825D01*
X76391Y125796D01*
X76420Y125773D01*
X76437Y125756D01*
X76443Y125750D01*
X76483Y125699D01*
X76512Y125641D01*
X76529Y125583D01*
X76541Y125531D01*
X76552Y125485D01*
X76558Y125445D01*
Y125411D01*
X76552Y125313D01*
X76529Y125226D01*
X76495Y125151D01*
X76460Y125088D01*
X76425Y125036D01*
X76391Y125002D01*
X76368Y124979D01*
X76362Y124973D01*
X76322Y124944D01*
X76276Y124921D01*
X76166Y124881D01*
X76057Y124852D01*
X75942Y124835D01*
X75838Y124823D01*
X75792Y124817D01*
X75752Y124811D01*
X75717D01*
X75694D01*
X75677D01*
X75671D01*
X75590D01*
X75515Y124817D01*
X75389Y124835D01*
X75279Y124863D01*
X75193Y124892D01*
X75124Y124921D01*
X75078Y124950D01*
X75055Y124967D01*
X75043Y124973D01*
X74980Y125036D01*
X74934Y125111D01*
X74899Y125180D01*
X74876Y125249D01*
X74865Y125313D01*
X74853Y125359D01*
Y125405D01*
X74859Y125480D01*
X74870Y125543D01*
X74888Y125601D01*
X74905Y125653D01*
X74928Y125687D01*
X74945Y125716D01*
X74957Y125733D01*
X74962Y125739D01*
X75008Y125785D01*
X75060Y125820D01*
X75112Y125848D01*
X75164Y125871D01*
X75210Y125889D01*
X75245Y125900D01*
X75268Y125906D01*
X75279D01*
X75152Y126620D01*
X74997Y126563D01*
X74865Y126499D01*
X74755Y126424D01*
X74663Y126355D01*
X74594Y126292D01*
X74542Y126240D01*
X74513Y126200D01*
X74502Y126194D01*
Y126188D01*
X74427Y126067D01*
X74375Y125941D01*
X74335Y125808D01*
X74312Y125681D01*
X74294Y125566D01*
X74288Y125520D01*
Y125474D01*
X74283Y125439D01*
Y125393D01*
X74288Y125284D01*
X74300Y125174D01*
X74317Y125076D01*
X74340Y124984D01*
X74369Y124898D01*
X74404Y124817D01*
X74438Y124748D01*
X74473Y124679D01*
X74507Y124621D01*
X74542Y124570D01*
X74576Y124529D01*
X74605Y124489D01*
X74628Y124460D01*
X74646Y124443D01*
X74657Y124431D01*
X74663Y124426D01*
X74738Y124362D01*
X74818Y124310D01*
X74899Y124259D01*
X74991Y124218D01*
X75078Y124184D01*
X75164Y124155D01*
X75337Y124115D01*
X75412Y124097D01*
X75487Y124086D01*
X75556Y124080D01*
X75608Y124074D01*
X75659Y124068D01*
X75723D01*
X75844Y124074D01*
X75959Y124086D01*
X76068Y124103D01*
X76172Y124126D01*
X76264Y124149D01*
X76351Y124184D01*
X76431Y124213D01*
X76500Y124247D01*
X76564Y124282D01*
X76621Y124310D01*
X76667Y124345D01*
X76708Y124368D01*
X76736Y124391D01*
X76760Y124408D01*
X76771Y124420D01*
X76777Y124426D01*
X76840Y124495D01*
X76898Y124570D01*
X76950Y124644D01*
X76996Y124725D01*
X77030Y124806D01*
X77059Y124886D01*
X77105Y125036D01*
X77122Y125111D01*
X77134Y125174D01*
X77140Y125232D01*
X77145Y125284D01*
X77151Y125324D01*
Y124155D01*
Y126655D01*
D02*
G37*
G36*
X76040Y123585D02*
X73234D01*
X75982D01*
X75855Y123579D01*
X75740Y123562D01*
X75636Y123533D01*
X75550Y123510D01*
X75481Y123481D01*
X75423Y123452D01*
X75394Y123435D01*
X75383Y123429D01*
X75296Y123366D01*
X75216Y123302D01*
X75152Y123233D01*
X75095Y123164D01*
X75055Y123107D01*
X75020Y123061D01*
X75003Y123026D01*
X74997Y123020D01*
Y123014D01*
X74968Y122963D01*
X74945Y122905D01*
X74893Y122773D01*
X74853Y122640D01*
X74807Y122502D01*
X74778Y122381D01*
X74761Y122329D01*
X74749Y122283D01*
X74738Y122243D01*
X74732Y122214D01*
X74726Y122196D01*
Y122191D01*
X74703Y122093D01*
X74674Y122001D01*
X74651Y121920D01*
X74628Y121851D01*
X74611Y121782D01*
X74588Y121730D01*
X74571Y121678D01*
X74548Y121638D01*
X74530Y121597D01*
X74519Y121569D01*
X74496Y121523D01*
X74479Y121500D01*
X74473Y121494D01*
X74432Y121459D01*
X74398Y121430D01*
X74358Y121413D01*
X74323Y121396D01*
X74288Y121390D01*
X74265Y121384D01*
X74248D01*
X74242D01*
X74191Y121390D01*
X74145Y121402D01*
X74104Y121419D01*
X74070Y121442D01*
X74041Y121465D01*
X74024Y121482D01*
X74012Y121494D01*
X74006Y121500D01*
X73960Y121574D01*
X73926Y121661D01*
X73903Y121747D01*
X73885Y121828D01*
X73874Y121903D01*
X73868Y121966D01*
Y122018D01*
X73874Y122133D01*
X73891Y122231D01*
X73908Y122312D01*
X73931Y122381D01*
X73960Y122433D01*
X73978Y122467D01*
X73995Y122490D01*
X74001Y122496D01*
X74052Y122554D01*
X74116Y122600D01*
X74185Y122634D01*
X74254Y122663D01*
X74317Y122686D01*
X74369Y122698D01*
X74404Y122709D01*
X74410D01*
X74415D01*
X74386Y123475D01*
X74294Y123469D01*
X74202Y123452D01*
X74116Y123429D01*
X74035Y123406D01*
X73897Y123343D01*
X73834Y123314D01*
X73776Y123279D01*
X73724Y123245D01*
X73678Y123210D01*
X73638Y123181D01*
X73609Y123153D01*
X73586Y123130D01*
X73568Y123112D01*
X73557Y123101D01*
X73551Y123095D01*
X73494Y123026D01*
X73448Y122945D01*
X73401Y122865D01*
X73367Y122778D01*
X73309Y122600D01*
X73275Y122427D01*
X73263Y122346D01*
X73252Y122271D01*
X73246Y122202D01*
X73240Y122139D01*
X73234Y122093D01*
Y122024D01*
X73240Y121868D01*
X73257Y121724D01*
X73275Y121597D01*
X73298Y121488D01*
X73327Y121402D01*
X73338Y121367D01*
X73344Y121338D01*
X73355Y121315D01*
X73361Y121292D01*
X73367Y121286D01*
Y121281D01*
X73419Y121171D01*
X73482Y121079D01*
X73545Y120998D01*
X73609Y120935D01*
X73666Y120883D01*
X73712Y120843D01*
X73741Y120820D01*
X73747Y120814D01*
X73753D01*
X73851Y120762D01*
X73943Y120722D01*
X74035Y120693D01*
X74116Y120676D01*
X74191Y120664D01*
X74242Y120653D01*
X74265D01*
X74283D01*
X74288D01*
X74294D01*
X74375Y120659D01*
X74456Y120670D01*
X74530Y120687D01*
X74600Y120705D01*
X74732Y120762D01*
X74841Y120826D01*
X74888Y120860D01*
X74934Y120889D01*
X74968Y120918D01*
X74997Y120947D01*
X75020Y120964D01*
X75037Y120981D01*
X75049Y120993D01*
X75055Y120998D01*
X75095Y121050D01*
X75135Y121108D01*
X75210Y121235D01*
X75274Y121379D01*
X75325Y121523D01*
X75371Y121649D01*
X75389Y121707D01*
X75400Y121759D01*
X75412Y121799D01*
X75423Y121828D01*
X75429Y121851D01*
Y121857D01*
X75452Y121943D01*
X75469Y122018D01*
X75487Y122087D01*
X75504Y122150D01*
X75521Y122208D01*
X75533Y122254D01*
X75544Y122300D01*
X75556Y122335D01*
X75573Y122392D01*
X75585Y122433D01*
X75596Y122456D01*
Y122461D01*
X75625Y122531D01*
X75654Y122588D01*
X75677Y122634D01*
X75705Y122675D01*
X75728Y122703D01*
X75746Y122721D01*
X75757Y122732D01*
X75763Y122738D01*
X75798Y122767D01*
X75838Y122784D01*
X75907Y122807D01*
X75942Y122813D01*
X75965Y122819D01*
X75982D01*
X75988D01*
X76063Y122813D01*
X76132Y122790D01*
X76195Y122761D01*
X76247Y122726D01*
X76293Y122686D01*
X76322Y122657D01*
X76345Y122634D01*
X76351Y122628D01*
X76402Y122554D01*
X76443Y122467D01*
X76466Y122375D01*
X76489Y122283D01*
X76500Y122202D01*
X76506Y122139D01*
Y122075D01*
X76500Y121949D01*
X76477Y121839D01*
X76449Y121747D01*
X76420Y121667D01*
X76385Y121603D01*
X76362Y121557D01*
X76339Y121528D01*
X76333Y121517D01*
X76258Y121448D01*
X76172Y121390D01*
X76080Y121344D01*
X75994Y121309D01*
X75907Y121281D01*
X75844Y121263D01*
X75815Y121258D01*
X75798D01*
X75786Y121252D01*
X75780D01*
X75855Y120509D01*
D01*
X75970Y120526D01*
X76080Y120549D01*
X76184Y120578D01*
X76276Y120607D01*
X76362Y120647D01*
X76443Y120682D01*
X76512Y120722D01*
X76581Y120762D01*
X76633Y120803D01*
X76685Y120837D01*
X76725Y120872D01*
X76760Y120900D01*
X76788Y120929D01*
X76806Y120947D01*
X76817Y120958D01*
X76823Y120964D01*
X76881Y121039D01*
X76932Y121125D01*
X76973Y121212D01*
X77013Y121298D01*
X77042Y121390D01*
X77071Y121482D01*
X77111Y121661D01*
X77122Y121747D01*
X77134Y121822D01*
X77140Y121891D01*
X77145Y121949D01*
X77151Y122001D01*
Y122070D01*
X77145Y122248D01*
X77128Y122404D01*
X77111Y122542D01*
X77082Y122663D01*
X77071Y122715D01*
X77059Y122761D01*
X77048Y122795D01*
X77042Y122830D01*
X77030Y122853D01*
X77025Y122870D01*
X77019Y122882D01*
Y122888D01*
X76961Y123009D01*
X76892Y123107D01*
X76823Y123199D01*
X76754Y123268D01*
X76696Y123325D01*
X76644Y123366D01*
X76610Y123395D01*
X76604Y123400D01*
X76598D01*
X76489Y123464D01*
X76379Y123510D01*
X76276Y123539D01*
X76184Y123562D01*
X76103Y123573D01*
X76040Y123585D01*
D02*
G37*
%LPD*%
G36*
X77082Y135813D02*
X75844D01*
X75763D01*
X75682D01*
X75613Y135819D01*
X75550D01*
X75492Y135825D01*
X75441Y135830D01*
X75394Y135836D01*
X75354Y135842D01*
X75291Y135848D01*
X75250Y135859D01*
X75222Y135865D01*
X75216D01*
X75152Y135888D01*
X75101Y135923D01*
X75055Y135957D01*
X75014Y135986D01*
X74980Y136021D01*
X74957Y136044D01*
X74945Y136061D01*
X74939Y136067D01*
X74905Y136124D01*
X74882Y136182D01*
X74859Y136239D01*
X74847Y136291D01*
X74841Y136337D01*
X74836Y136372D01*
Y136406D01*
X74841Y136458D01*
X74847Y136504D01*
X74859Y136550D01*
X74870Y136585D01*
X74888Y136614D01*
X74899Y136637D01*
X74905Y136648D01*
X74911Y136654D01*
X74974Y136723D01*
X75043Y136769D01*
X75072Y136787D01*
X75095Y136798D01*
X75112Y136804D01*
X75118D01*
X75147Y136815D01*
X75181Y136821D01*
X75262Y136833D01*
X75354Y136844D01*
X75452Y136850D01*
X75538Y136856D01*
X75579D01*
X75619D01*
X75648D01*
X75671D01*
X75682D01*
X75688D01*
X77082D01*
Y135813D01*
D02*
G37*
G36*
X75481Y132703D02*
X75377Y132709D01*
X75285Y132726D01*
X75204Y132749D01*
X75135Y132778D01*
X75083Y132806D01*
X75043Y132829D01*
X75020Y132847D01*
X75014Y132852D01*
X74957Y132916D01*
X74911Y132979D01*
X74882Y133043D01*
X74859Y133106D01*
X74847Y133163D01*
X74836Y133204D01*
Y133244D01*
X74841Y133325D01*
X74859Y133400D01*
X74888Y133463D01*
X74916Y133515D01*
X74951Y133561D01*
X74974Y133590D01*
X74997Y133613D01*
X75003Y133619D01*
X75072Y133670D01*
X75147Y133711D01*
X75227Y133739D01*
X75302Y133763D01*
X75371Y133774D01*
X75429Y133780D01*
X75452Y133786D01*
X75469D01*
X75475D01*
X75481D01*
Y132703D01*
D02*
G37*
G36*
X77151Y131948D02*
X75740D01*
X75844Y131954D01*
X75942Y131960D01*
X76126Y131989D01*
X76212Y132011D01*
X76287Y132035D01*
X76362Y132058D01*
X76425Y132081D01*
X76483Y132104D01*
X76535Y132127D01*
X76581Y132150D01*
X76616Y132173D01*
X76644Y132190D01*
X76667Y132202D01*
X76679Y132213D01*
X76685D01*
X76765Y132282D01*
X76840Y132357D01*
X76904Y132438D01*
X76955Y132524D01*
X77002Y132611D01*
X77036Y132703D01*
X77071Y132789D01*
X77094Y132876D01*
X77111Y132956D01*
X77128Y133031D01*
X77134Y133094D01*
X77145Y133158D01*
Y133204D01*
X77151Y133244D01*
Y131948D01*
D02*
G37*
G36*
X75481Y129765D02*
X75377Y129771D01*
X75285Y129788D01*
X75204Y129811D01*
X75135Y129840D01*
X75083Y129869D01*
X75043Y129892D01*
X75020Y129909D01*
X75014Y129915D01*
X74957Y129978D01*
X74911Y130042D01*
X74882Y130105D01*
X74859Y130168D01*
X74847Y130226D01*
X74836Y130266D01*
Y130307D01*
X74841Y130387D01*
X74859Y130462D01*
X74888Y130525D01*
X74916Y130577D01*
X74951Y130623D01*
X74974Y130652D01*
X74997Y130675D01*
X75003Y130681D01*
X75072Y130733D01*
X75147Y130773D01*
X75227Y130802D01*
X75302Y130825D01*
X75371Y130836D01*
X75429Y130842D01*
X75452Y130848D01*
X75469D01*
X75475D01*
X75481D01*
Y129765D01*
D02*
G37*
G36*
X77151Y129011D02*
X75740D01*
X75844Y129016D01*
X75942Y129022D01*
X76126Y129051D01*
X76212Y129074D01*
X76287Y129097D01*
X76362Y129120D01*
X76425Y129143D01*
X76483Y129166D01*
X76535Y129189D01*
X76581Y129212D01*
X76616Y129235D01*
X76644Y129253D01*
X76667Y129264D01*
X76679Y129276D01*
X76685D01*
X76765Y129345D01*
X76840Y129420D01*
X76904Y129500D01*
X76955Y129587D01*
X77002Y129673D01*
X77036Y129765D01*
X77071Y129851D01*
X77094Y129938D01*
X77111Y130019D01*
X77128Y130093D01*
X77134Y130157D01*
X77145Y130220D01*
Y130266D01*
X77151Y130307D01*
Y129011D01*
D02*
G37*
D10*
X183204Y100610D02*
G03*
X183204Y100610I-492J0D01*
G01*
X175314Y12313D02*
G03*
X175314Y12313I-492J0D01*
G01*
X184941Y113337D02*
G03*
X184941Y113337I-492J0D01*
G01*
X174663Y99725D02*
G03*
X174663Y99725I-492J0D01*
G01*
X116703Y19847D02*
G03*
X116703Y19847I-492J0D01*
G01*
X40256Y54319D02*
G03*
X40256Y54319I-492J0D01*
G01*
D11*
X152165Y33189D02*
G03*
X152165Y33189I-394J0D01*
G01*
X179921Y59702D02*
G03*
X179921Y59702I-394J0D01*
G01*
X203381Y86339D02*
Y88406D01*
X185271Y86339D02*
Y88406D01*
X203381Y100020D02*
Y102087D01*
X185271Y100020D02*
Y102087D01*
Y86339D02*
X203381D01*
X185271Y102087D02*
X203381D01*
X197775Y7017D02*
Y17608D01*
X176594D02*
X197775D01*
X176594Y7017D02*
Y17608D01*
Y7017D02*
X197775D01*
X81890Y115945D02*
X85630D01*
X117126D02*
X120866D01*
X79331Y125197D02*
Y133465D01*
X123425Y125197D02*
Y133465D01*
X197378Y56807D02*
Y66485D01*
X190417Y56807D02*
Y66485D01*
X190040Y124951D02*
Y127411D01*
X154449Y124951D02*
Y127411D01*
X167911Y89685D02*
Y94803D01*
X176573Y89685D02*
Y94803D01*
X25197Y111016D02*
Y119677D01*
Y111016D02*
X46850D01*
X51181Y115347D01*
Y119677D01*
X25197Y128339D02*
Y137000D01*
X46850D01*
X51181Y132669D01*
Y128339D02*
Y132669D01*
X103120Y12858D02*
X115325D01*
X103120Y16795D02*
X115325D01*
X103120Y12858D02*
Y16795D01*
X115325Y12858D02*
Y16795D01*
X33858Y54319D02*
Y80697D01*
X22835Y54319D02*
Y80697D01*
Y54319D02*
X33858D01*
X22835Y80697D02*
X33858D01*
X123744Y17973D02*
X133422D01*
X123744Y11011D02*
X133422D01*
X23507Y81931D02*
X33185D01*
X23507Y88893D02*
X33185D01*
X42520Y12598D02*
X51181D01*
Y34252D01*
X46850Y38583D02*
X51181Y34252D01*
X42520Y38583D02*
X46850D01*
X25197Y12598D02*
X33858D01*
X25197D02*
Y34252D01*
X29527Y38583D01*
X33858D01*
D12*
X163235Y18523D02*
X169735D01*
X149735D02*
X154235D01*
X169735Y6523D02*
Y18523D01*
X149735Y8744D02*
Y18523D01*
X154235D02*
X163235D01*
X149735Y6523D02*
X169735D01*
X149735D02*
Y8744D01*
D13*
X75000Y28504D02*
Y30158D01*
Y101221D02*
Y104095D01*
X140965D02*
X145866D01*
X75000D02*
X79902D01*
X145866Y28504D02*
Y30158D01*
Y101221D02*
Y104095D01*
X75000Y28504D02*
X145866D01*
X187185Y61671D02*
X187401D01*
X177559D02*
X177775D01*
X187401Y71297D02*
Y73482D01*
Y61671D02*
Y63856D01*
X187185Y73482D02*
X187401D01*
X177559D02*
X177775D01*
X177559Y71297D02*
Y73482D01*
Y61671D02*
Y63856D01*
D14*
X194094Y112544D02*
X199606D01*
X198425Y118056D02*
X199606D01*
Y107032D02*
Y118056D01*
X198425Y107032D02*
X199606D01*
X194094D02*
X195276D01*
X194094D02*
Y118056D01*
X195276D01*
X197286Y52970D02*
Y54151D01*
X186263D02*
X197286D01*
X186263Y52970D02*
Y54151D01*
Y48640D02*
Y49821D01*
Y48640D02*
X197286D01*
Y49821D01*
X191774Y48640D02*
Y54151D01*
X195472Y68954D02*
X196653D01*
Y79978D01*
X195472D02*
X196653D01*
X191142D02*
X192323D01*
X191142Y68954D02*
Y79978D01*
Y68954D02*
X192323D01*
X191142Y74466D02*
X196653D01*
X194094Y125728D02*
X199606D01*
X194094Y120728D02*
X194850D01*
X194094D02*
Y130728D01*
X194850D01*
X198850D02*
X199606D01*
Y120728D02*
Y130728D01*
X198850Y120728D02*
X199606D01*
X92933Y3571D02*
Y9083D01*
X97933Y3571D02*
Y4327D01*
X87933Y3571D02*
X97933D01*
X87933D02*
Y4327D01*
Y8327D02*
Y9083D01*
X97933D01*
Y8327D02*
Y9083D01*
X128583Y19883D02*
Y25395D01*
X123583Y24639D02*
Y25395D01*
X133583D01*
Y24639D02*
Y25395D01*
Y19883D02*
Y20639D01*
X123583Y19883D02*
X133583D01*
X123583D02*
Y20639D01*
X128445Y7688D02*
Y8869D01*
X117421D02*
X128445D01*
X117421Y7688D02*
Y8869D01*
Y3357D02*
Y4539D01*
Y3357D02*
X128445D01*
Y4539D01*
X122933Y3357D02*
Y8869D01*
X48425Y65946D02*
X53937D01*
X48425Y60946D02*
X49181D01*
X48425D02*
Y70946D01*
X49181D01*
X53181D02*
X53937D01*
Y60946D02*
Y70946D01*
X53181Y60946D02*
X53937D01*
X35824Y82656D02*
Y83837D01*
Y82656D02*
X46848D01*
Y83837D01*
Y86987D02*
Y88168D01*
X35824D02*
X46848D01*
X35824Y86987D02*
Y88168D01*
X41336Y82656D02*
Y88168D01*
X48425Y54319D02*
X53937D01*
X48425Y49319D02*
X49181D01*
X48425D02*
Y59319D01*
X49181D01*
X53181D02*
X53937D01*
Y49319D02*
Y59319D01*
X53181Y49319D02*
X53937D01*
X30707Y47441D02*
Y48622D01*
Y47441D02*
X41731D01*
Y48622D01*
Y51772D02*
Y52953D01*
X30707D02*
X41731D01*
X30707Y51772D02*
Y52953D01*
X36219Y47441D02*
Y52953D01*
X97768Y88004D02*
X96719D01*
X97244D01*
Y85380D01*
X96719Y84855D01*
X96194D01*
X95669Y85380D01*
X98818Y88004D02*
Y84855D01*
X100917D01*
X104066Y87479D02*
X103541Y88004D01*
X102491D01*
X101967Y87479D01*
Y85380D01*
X102491Y84855D01*
X103541D01*
X104066Y85380D01*
X107214Y88004D02*
X106165D01*
X106689D01*
Y85380D01*
X106165Y84855D01*
X105640D01*
X105115Y85380D01*
X108264Y88004D02*
Y84855D01*
X110363D01*
X113511Y87479D02*
X112987Y88004D01*
X111937D01*
X111412Y87479D01*
Y85380D01*
X111937Y84855D01*
X112987D01*
X113511Y85380D01*
X116660Y88004D02*
X115610D01*
X116135D01*
Y85380D01*
X115610Y84855D01*
X115086D01*
X114561Y85380D01*
X117710Y88004D02*
Y84855D01*
X119808D01*
X122957Y87479D02*
X122432Y88004D01*
X121383D01*
X120858Y87479D01*
Y85380D01*
X121383Y84855D01*
X122432D01*
X122957Y85380D01*
X126106Y88004D02*
X125056D01*
X125581D01*
Y85380D01*
X125056Y84855D01*
X124531D01*
X124007Y85380D01*
X127155Y88004D02*
Y84855D01*
X129254D01*
X132403Y87479D02*
X131878Y88004D01*
X130829D01*
X130304Y87479D01*
Y85380D01*
X130829Y84855D01*
X131878D01*
X132403Y85380D01*
D15*
X-310953Y627174D02*
X-311953Y628173D01*
X-313952D01*
X-314952Y627174D01*
Y626174D01*
X-313952Y625174D01*
X-311953D01*
X-310953Y624175D01*
Y623175D01*
X-311953Y622175D01*
X-313952D01*
X-314952Y623175D01*
X-308953Y628173D02*
X-304955D01*
X-306954D01*
Y622175D01*
X-298957Y628173D02*
X-302956D01*
Y622175D01*
X-298957D01*
X-302956Y625174D02*
X-300956D01*
X-296957Y622175D02*
Y628173D01*
X-292959Y622175D01*
Y628173D01*
X-286961Y627174D02*
X-287960Y628173D01*
X-289960D01*
X-290959Y627174D01*
Y623175D01*
X-289960Y622175D01*
X-287960D01*
X-286961Y623175D01*
X-284961Y628173D02*
X-282962D01*
X-283962D01*
Y622175D01*
X-284961D01*
X-282962D01*
X-279963Y628173D02*
Y622175D01*
X-275964D01*
X-273965D02*
X-271966D01*
X-272965D01*
Y628173D01*
X-273965Y627174D01*
D16*
X150069Y5425D02*
X152693D01*
X151381D01*
Y1489D01*
X154005D02*
Y5425D01*
X155973D01*
X156629Y4769D01*
Y3457D01*
X155973Y2801D01*
X154005D01*
X157941Y1489D02*
X159253D01*
X158597D01*
Y5425D01*
X157941Y4769D01*
X185411Y108058D02*
Y104123D01*
X187379D01*
X188034Y104779D01*
Y107402D01*
X187379Y108058D01*
X185411D01*
X191970Y104123D02*
X189347D01*
X191970Y106746D01*
Y107402D01*
X191314Y108058D01*
X190002D01*
X189347Y107402D01*
X177330Y1677D02*
Y5613D01*
X179298D01*
X179954Y4957D01*
Y3645D01*
X179298Y2989D01*
X177330D01*
X181266Y4957D02*
X181922Y5613D01*
X183234D01*
X183890Y4957D01*
Y4301D01*
X183234Y3645D01*
X182578D01*
X183234D01*
X183890Y2989D01*
Y2333D01*
X183234Y1677D01*
X181922D01*
X181266Y2333D01*
X165835Y102834D02*
X161899D01*
Y104802D01*
X162555Y105458D01*
X163867D01*
X164523Y104802D01*
Y102834D01*
Y104146D02*
X165835Y105458D01*
Y106770D02*
Y108082D01*
Y107426D01*
X161899D01*
X162555Y106770D01*
X161899Y112674D02*
X162555Y111362D01*
X163867Y110050D01*
X165179D01*
X165835Y110706D01*
Y112018D01*
X165179Y112674D01*
X164523D01*
X163867Y112018D01*
Y110050D01*
X182480Y102834D02*
X178544D01*
Y104802D01*
X179200Y105458D01*
X180512D01*
X181168Y104802D01*
Y102834D01*
Y104146D02*
X182480Y105458D01*
Y106770D02*
Y108082D01*
Y107426D01*
X178544D01*
X179200Y106770D01*
X178544Y112674D02*
Y110050D01*
X180512D01*
X179856Y111362D01*
Y112018D01*
X180512Y112674D01*
X181824D01*
X182480Y112018D01*
Y110706D01*
X181824Y110050D01*
X191118Y46802D02*
X190462Y47458D01*
X189151D01*
X188495Y46802D01*
Y44179D01*
X189151Y43523D01*
X190462D01*
X191118Y44179D01*
X192430Y47458D02*
X195054D01*
Y46802D01*
X192430Y44179D01*
Y43523D01*
X97332Y11484D02*
X100611D01*
X101267Y12140D01*
Y13452D01*
X100611Y14108D01*
X97332D01*
X97988Y15420D02*
X97332Y16076D01*
Y17388D01*
X97988Y18044D01*
X98644D01*
X99300Y17388D01*
Y16732D01*
Y17388D01*
X99955Y18044D01*
X100611D01*
X101267Y17388D01*
Y16076D01*
X100611Y15420D01*
X73590Y26607D02*
Y23327D01*
X74246Y22671D01*
X75558D01*
X76214Y23327D01*
Y26607D01*
X80150Y22671D02*
X77526D01*
X80150Y25295D01*
Y25951D01*
X79494Y26607D01*
X78182D01*
X77526Y25951D01*
X13124Y80157D02*
Y76877D01*
X13780Y76221D01*
X15092D01*
X15748Y76877D01*
Y80157D01*
X17060Y76221D02*
X18372D01*
X17716D01*
Y80157D01*
X17060Y79501D01*
X136810Y121545D02*
X132875D01*
Y123513D01*
X133530Y124169D01*
X134842D01*
X135498Y123513D01*
Y121545D01*
Y122857D02*
X136810Y124169D01*
Y125481D02*
Y126793D01*
Y126137D01*
X132875D01*
X133530Y125481D01*
X136810Y130729D02*
X132875D01*
X134842Y128761D01*
Y131385D01*
X204724Y120809D02*
X200788D01*
Y122777D01*
X201444Y123433D01*
X202756D01*
X203412Y122777D01*
Y120809D01*
Y122121D02*
X204724Y123433D01*
Y124745D02*
Y126057D01*
Y125400D01*
X200788D01*
X201444Y124745D01*
Y128024D02*
X200788Y128680D01*
Y129992D01*
X201444Y130648D01*
X202100D01*
X202756Y129992D01*
Y129336D01*
Y129992D01*
X203412Y130648D01*
X204068D01*
X204724Y129992D01*
Y128680D01*
X204068Y128024D01*
X148051Y121663D02*
X144115D01*
Y123631D01*
X144771Y124287D01*
X146083D01*
X146739Y123631D01*
Y121663D01*
Y122975D02*
X148051Y124287D01*
Y125599D02*
Y126911D01*
Y126255D01*
X144115D01*
X144771Y125599D01*
X148051Y131502D02*
Y128878D01*
X145427Y131502D01*
X144771D01*
X144115Y130846D01*
Y129534D01*
X144771Y128878D01*
X79866Y4359D02*
Y8295D01*
X81834D01*
X82490Y7639D01*
Y6327D01*
X81834Y5671D01*
X79866D01*
X81178D02*
X82490Y4359D01*
X83802Y7639D02*
X84458Y8295D01*
X85770D01*
X86426Y7639D01*
Y6983D01*
X85770Y6327D01*
X86426Y5671D01*
Y5015D01*
X85770Y4359D01*
X84458D01*
X83802Y5015D01*
Y5671D01*
X84458Y6327D01*
X83802Y6983D01*
Y7639D01*
X84458Y6327D02*
X85770D01*
X135323Y20703D02*
Y24639D01*
X137291D01*
X137947Y23983D01*
Y22671D01*
X137291Y22015D01*
X135323D01*
X136635D02*
X137947Y20703D01*
X139259Y24639D02*
X141882D01*
Y23983D01*
X139259Y21359D01*
Y20703D01*
X59468Y51039D02*
X55532D01*
Y53007D01*
X56188Y53663D01*
X57500D01*
X58156Y53007D01*
Y51039D01*
Y52351D02*
X59468Y53663D01*
Y57599D02*
Y54975D01*
X56844Y57599D01*
X56188D01*
X55532Y56943D01*
Y55631D01*
X56188Y54975D01*
X59468Y63323D02*
X55532D01*
Y65290D01*
X56188Y65947D01*
X57500D01*
X58156Y65290D01*
Y63323D01*
Y64635D02*
X59468Y65947D01*
Y67258D02*
Y68570D01*
Y67914D01*
X55532D01*
X56188Y67258D01*
X177888Y76002D02*
Y79938D01*
X179200Y78626D01*
X180512Y79938D01*
Y76002D01*
X181824Y79938D02*
X184448D01*
X183136D01*
Y76002D01*
X185760D02*
X187072D01*
X186416D01*
Y79938D01*
X185760Y79282D01*
X130874Y140460D02*
X129562D01*
X130218D01*
Y137180D01*
X129562Y136524D01*
X128906D01*
X128250Y137180D01*
X134809Y136524D02*
X132185D01*
X134809Y139148D01*
Y139804D01*
X134153Y140460D01*
X132841D01*
X132185Y139804D01*
X148248Y118315D02*
X146936D01*
X147592D01*
Y115035D01*
X146936Y114379D01*
X146280D01*
X145624Y115035D01*
X149560Y114379D02*
X150872D01*
X150216D01*
Y118315D01*
X149560Y117659D01*
X177778Y89620D02*
X181714D01*
Y91588D01*
X181058Y92244D01*
X178434D01*
X177778Y91588D01*
Y89620D01*
X181714Y93556D02*
Y94868D01*
Y94212D01*
X177778D01*
X178434Y93556D01*
X45736Y107666D02*
X45080Y108322D01*
X43768D01*
X43112Y107666D01*
Y105042D01*
X43768Y104386D01*
X45080D01*
X45736Y105042D01*
X47047Y104386D02*
X48359D01*
X47703D01*
Y108322D01*
X47047Y107666D01*
X50327D02*
X50983Y108322D01*
X52295D01*
X52951Y107666D01*
Y107010D01*
X52295Y106354D01*
X51639D01*
X52295D01*
X52951Y105698D01*
Y105042D01*
X52295Y104386D01*
X50983D01*
X50327Y105042D01*
X134492Y7445D02*
X133836Y8101D01*
X132524D01*
X131868Y7445D01*
Y4821D01*
X132524Y4165D01*
X133836D01*
X134492Y4821D01*
X135804Y4165D02*
X137116D01*
X136460D01*
Y8101D01*
X135804Y7445D01*
X141708Y4165D02*
X139084D01*
X141708Y6789D01*
Y7445D01*
X141052Y8101D01*
X139740D01*
X139084Y7445D01*
X139923Y15846D02*
X139267Y16502D01*
X137955D01*
X137300Y15846D01*
Y13222D01*
X137955Y12566D01*
X139267D01*
X139923Y13222D01*
X141235Y12566D02*
X142547D01*
X141891D01*
Y16502D01*
X141235Y15846D01*
X144515Y12566D02*
X145827D01*
X145171D01*
Y16502D01*
X144515Y15846D01*
X26050Y93555D02*
X25394Y94211D01*
X24083D01*
X23427Y93555D01*
Y90931D01*
X24083Y90275D01*
X25394D01*
X26050Y90931D01*
X27362Y90275D02*
X28674D01*
X28018D01*
Y94211D01*
X27362Y93555D01*
X30642D02*
X31298Y94211D01*
X32610D01*
X33266Y93555D01*
Y90931D01*
X32610Y90275D01*
X31298D01*
X30642Y90931D01*
Y93555D01*
X201444Y111888D02*
X200788Y111232D01*
Y109920D01*
X201444Y109265D01*
X204068D01*
X204724Y109920D01*
Y111232D01*
X204068Y111888D01*
X201444Y113200D02*
X200788Y113856D01*
Y115168D01*
X201444Y115824D01*
X202100D01*
X202756Y115168D01*
X203412Y115824D01*
X204068D01*
X204724Y115168D01*
Y113856D01*
X204068Y113200D01*
X203412D01*
X202756Y113856D01*
X202100Y113200D01*
X201444D01*
X202756Y113856D02*
Y115168D01*
X198491Y73810D02*
X197835Y73154D01*
Y71842D01*
X198491Y71186D01*
X201115D01*
X201771Y71842D01*
Y73154D01*
X201115Y73810D01*
X197835Y77746D02*
X198491Y76434D01*
X199803Y75122D01*
X201115D01*
X201771Y75778D01*
Y77090D01*
X201115Y77746D01*
X200459D01*
X199803Y77090D01*
Y75122D01*
X199475Y61520D02*
X198819Y60864D01*
Y59552D01*
X199475Y58896D01*
X202099D01*
X202755Y59552D01*
Y60864D01*
X202099Y61520D01*
X198819Y65455D02*
Y62831D01*
X200787D01*
X200131Y64143D01*
Y64799D01*
X200787Y65455D01*
X202099D01*
X202755Y64799D01*
Y63487D01*
X202099Y62831D01*
X23360Y51509D02*
X22704Y52165D01*
X21392D01*
X20736Y51509D01*
Y48885D01*
X21392Y48229D01*
X22704D01*
X23360Y48885D01*
X24671Y51509D02*
X25328Y52165D01*
X26639D01*
X27295Y51509D01*
Y50853D01*
X26639Y50197D01*
X25984D01*
X26639D01*
X27295Y49541D01*
Y48885D01*
X26639Y48229D01*
X25328D01*
X24671Y48885D01*
X40680Y93597D02*
X40024Y94253D01*
X38712D01*
X38056Y93597D01*
Y90973D01*
X38712Y90317D01*
X40024D01*
X40680Y90973D01*
X44616Y90317D02*
X41992D01*
X44616Y92941D01*
Y93597D01*
X43960Y94253D01*
X42648D01*
X41992Y93597D01*
X19101Y35433D02*
X18445Y34777D01*
Y33465D01*
X19101Y32809D01*
X21725D01*
X22381Y33465D01*
Y34777D01*
X21725Y35433D01*
X22381Y36745D02*
Y38057D01*
Y37401D01*
X18445D01*
X19101Y36745D01*
M02*
