G04*
G04 #@! TF.GenerationSoftware,Altium Limited,Altium Designer,25.2.1 (25)*
G04*
G04 Layer_Color=16711935*
%FSLAX25Y25*%
%MOIN*%
G70*
G04*
G04 #@! TF.SameCoordinates,1EA917CA-CC95-4D02-909B-EEF24D63748B*
G04*
G04*
G04 #@! TF.FilePolarity,Negative*
G04*
G01*
G75*
%ADD28R,0.03812X0.03963*%
%ADD48R,0.04337X0.03943*%
%ADD54R,0.04140X0.03747*%
%ADD55R,0.03747X0.04140*%
%ADD60C,0.06699*%
G04:AMPARAMS|DCode=61|XSize=66.99mil|YSize=66.99mil|CornerRadius=17.75mil|HoleSize=0mil|Usage=FLASHONLY|Rotation=0.000|XOffset=0mil|YOffset=0mil|HoleType=Round|Shape=RoundedRectangle|*
%AMROUNDEDRECTD61*
21,1,0.06699,0.03150,0,0,0.0*
21,1,0.03150,0.06699,0,0,0.0*
1,1,0.03550,0.01575,-0.01575*
1,1,0.03550,-0.01575,-0.01575*
1,1,0.03550,-0.01575,0.01575*
1,1,0.03550,0.01575,0.01575*
%
%ADD61ROUNDEDRECTD61*%
%ADD62O,0.05124X0.07880*%
%ADD63O,0.05124X0.07093*%
G04:AMPARAMS|DCode=64|XSize=66.99mil|YSize=66.99mil|CornerRadius=17.75mil|HoleSize=0mil|Usage=FLASHONLY|Rotation=90.000|XOffset=0mil|YOffset=0mil|HoleType=Round|Shape=RoundedRectangle|*
%AMROUNDEDRECTD64*
21,1,0.06699,0.03150,0,0,90.0*
21,1,0.03150,0.06699,0,0,90.0*
1,1,0.03550,0.01575,0.01575*
1,1,0.03550,0.01575,-0.01575*
1,1,0.03550,-0.01575,-0.01575*
1,1,0.03550,-0.01575,0.01575*
%
%ADD64ROUNDEDRECTD64*%
G04:AMPARAMS|DCode=65|XSize=33.47mil|YSize=23.62mil|CornerRadius=11.81mil|HoleSize=0mil|Usage=FLASHONLY|Rotation=180.000|XOffset=0mil|YOffset=0mil|HoleType=Round|Shape=RoundedRectangle|*
%AMROUNDEDRECTD65*
21,1,0.03347,0.00000,0,0,180.0*
21,1,0.00984,0.02362,0,0,180.0*
1,1,0.02362,-0.00492,0.00000*
1,1,0.02362,0.00492,0.00000*
1,1,0.02362,0.00492,0.00000*
1,1,0.02362,-0.00492,0.00000*
%
%ADD65ROUNDEDRECTD65*%
%ADD66C,0.02362*%
G04:AMPARAMS|DCode=67|XSize=51.18mil|YSize=102.36mil|CornerRadius=25.59mil|HoleSize=0mil|Usage=FLASHONLY|Rotation=180.000|XOffset=0mil|YOffset=0mil|HoleType=Round|Shape=RoundedRectangle|*
%AMROUNDEDRECTD67*
21,1,0.05118,0.05118,0,0,180.0*
21,1,0.00000,0.10236,0,0,180.0*
1,1,0.05118,0.00000,0.02559*
1,1,0.05118,0.00000,0.02559*
1,1,0.05118,0.00000,-0.02559*
1,1,0.05118,0.00000,-0.02559*
%
%ADD67ROUNDEDRECTD67*%
G04:AMPARAMS|DCode=68|XSize=51.18mil|YSize=90.55mil|CornerRadius=25.59mil|HoleSize=0mil|Usage=FLASHONLY|Rotation=180.000|XOffset=0mil|YOffset=0mil|HoleType=Round|Shape=RoundedRectangle|*
%AMROUNDEDRECTD68*
21,1,0.05118,0.03937,0,0,180.0*
21,1,0.00000,0.09055,0,0,180.0*
1,1,0.05118,0.00000,0.01968*
1,1,0.05118,0.00000,0.01968*
1,1,0.05118,0.00000,-0.01968*
1,1,0.05118,0.00000,-0.01968*
%
%ADD68ROUNDEDRECTD68*%
G36*
X67124Y24419D02*
X67286D01*
Y24396D01*
X67403D01*
Y24373D01*
X67472D01*
Y24349D01*
X67565D01*
Y24326D01*
X67635D01*
Y24303D01*
X67705D01*
Y24280D01*
X67751D01*
Y24256D01*
X67821D01*
Y24233D01*
X67867D01*
Y24210D01*
X67914D01*
Y24187D01*
X67960D01*
Y24163D01*
X68007D01*
Y24140D01*
X68053D01*
Y24117D01*
X68076D01*
Y24094D01*
X68123D01*
Y24071D01*
X68169D01*
Y24047D01*
X68192D01*
Y24024D01*
X68239D01*
Y24001D01*
X68262D01*
Y23978D01*
X68285D01*
Y23955D01*
X68332D01*
Y23931D01*
X68355D01*
Y23908D01*
X68378D01*
Y23885D01*
X68401D01*
Y23862D01*
X68448D01*
Y23838D01*
X68471D01*
Y23815D01*
X68494D01*
Y23792D01*
X68518D01*
Y23769D01*
X68541D01*
Y23745D01*
X68564D01*
Y23722D01*
X68587D01*
Y23699D01*
X68611D01*
Y23676D01*
X68634D01*
Y23629D01*
X68680D01*
Y23583D01*
X68703D01*
Y23560D01*
X68727D01*
Y23536D01*
X68750D01*
Y23513D01*
X68773D01*
Y23467D01*
X68796D01*
Y23444D01*
X68819D01*
Y23420D01*
X68843D01*
Y23374D01*
X68866D01*
Y23327D01*
X68889D01*
Y23304D01*
X68913D01*
Y23258D01*
X68936D01*
Y23234D01*
X68959D01*
Y23165D01*
X68982D01*
Y23142D01*
X69005D01*
Y23095D01*
X69029D01*
Y23049D01*
X69052D01*
Y22979D01*
X69075D01*
Y22932D01*
X69098D01*
Y22863D01*
X69121D01*
Y22793D01*
X69145D01*
Y22723D01*
X69168D01*
Y22654D01*
X69191D01*
Y22538D01*
X69214D01*
Y22445D01*
X69238D01*
Y22189D01*
X69261D01*
Y21911D01*
X69238D01*
Y21632D01*
X69214D01*
Y21539D01*
X69191D01*
Y21446D01*
X69168D01*
Y21353D01*
X69145D01*
Y21283D01*
X69121D01*
Y21214D01*
X69098D01*
Y21144D01*
X69075D01*
Y21098D01*
X69052D01*
Y21051D01*
X69029D01*
Y21005D01*
X69005D01*
Y20935D01*
X68982D01*
Y20912D01*
X68959D01*
Y20865D01*
X68936D01*
Y20819D01*
X68913D01*
Y20772D01*
X68889D01*
Y20749D01*
X68866D01*
Y20703D01*
X68843D01*
Y20679D01*
X68819D01*
Y20633D01*
X68796D01*
Y20610D01*
X68773D01*
Y20586D01*
X68750D01*
Y20540D01*
X68727D01*
Y20517D01*
X68703D01*
Y20494D01*
X68680D01*
Y20470D01*
X68657D01*
Y20447D01*
X68634D01*
Y20401D01*
X68611D01*
Y20378D01*
X68587D01*
Y20354D01*
X68564D01*
Y20331D01*
X68541D01*
Y20308D01*
X68518D01*
Y20285D01*
X68471D01*
Y20261D01*
X68448D01*
Y20238D01*
X68425D01*
Y20215D01*
X68401D01*
Y20192D01*
X68378D01*
Y20168D01*
X68355D01*
Y20145D01*
X68332D01*
Y20122D01*
X68285D01*
Y20099D01*
X68262D01*
Y20076D01*
X68216D01*
Y20052D01*
X68192D01*
Y20029D01*
X68169D01*
Y20006D01*
X68123D01*
Y19983D01*
X68076D01*
Y19959D01*
X68030D01*
Y19936D01*
X68007D01*
Y19913D01*
X67960D01*
Y19890D01*
X67914D01*
Y19866D01*
X67867D01*
Y19843D01*
X67798D01*
Y19820D01*
X67751D01*
Y19797D01*
X67681D01*
Y19774D01*
X67635D01*
Y19750D01*
X67565D01*
Y19727D01*
X67472D01*
Y19704D01*
X67403D01*
Y19681D01*
X67240D01*
Y19658D01*
X67124D01*
Y19634D01*
X66590D01*
Y19658D01*
X66450D01*
Y19681D01*
X66311D01*
Y19704D01*
X66241D01*
Y19727D01*
X66125D01*
Y19750D01*
X66079D01*
Y19774D01*
X66009D01*
Y19797D01*
X65939D01*
Y19820D01*
X65893D01*
Y19843D01*
X65823D01*
Y19866D01*
X65800D01*
Y19890D01*
X65754D01*
Y19913D01*
X65707D01*
Y19936D01*
X65661D01*
Y19959D01*
X65614D01*
Y19983D01*
X65591D01*
Y20006D01*
X65544D01*
Y20029D01*
X65498D01*
Y20052D01*
X65475D01*
Y20076D01*
X65452D01*
Y20099D01*
X65405D01*
Y20122D01*
X65382D01*
Y20145D01*
X65359D01*
Y20168D01*
X65312D01*
Y20192D01*
X65289D01*
Y20215D01*
X65266D01*
Y20238D01*
X65243D01*
Y20261D01*
X65219D01*
Y20285D01*
X65196D01*
Y20308D01*
X65173D01*
Y20331D01*
X65150D01*
Y20354D01*
X65126D01*
Y20378D01*
X65103D01*
Y20401D01*
X65080D01*
Y20424D01*
X65057D01*
Y20447D01*
X65034D01*
Y20470D01*
X65010D01*
Y20494D01*
X64987D01*
Y20517D01*
X64964D01*
Y20563D01*
X64941D01*
Y20586D01*
X64917D01*
Y20610D01*
X64894D01*
Y20656D01*
X64871D01*
Y20679D01*
X64848D01*
Y20726D01*
X64824D01*
Y20749D01*
X64801D01*
Y20796D01*
X64778D01*
Y20842D01*
X64755D01*
Y20865D01*
X64732D01*
Y20912D01*
X64708D01*
Y20958D01*
X64476D01*
Y20935D01*
X64337D01*
Y20912D01*
X64151D01*
Y20842D01*
X64174D01*
Y20819D01*
X64197D01*
Y20796D01*
X64221D01*
Y20772D01*
X64244D01*
Y20749D01*
X64267D01*
Y20726D01*
X64290D01*
Y20703D01*
X64314D01*
Y20679D01*
X64337D01*
Y20656D01*
X64360D01*
Y20633D01*
X64383D01*
Y20610D01*
X64406D01*
Y20586D01*
X64430D01*
Y20563D01*
X64453D01*
Y20540D01*
X64476D01*
Y20517D01*
X64522D01*
Y20494D01*
X64546D01*
Y20470D01*
X64569D01*
Y20447D01*
X64592D01*
Y20424D01*
X64615D01*
Y20401D01*
X64639D01*
Y20378D01*
X64662D01*
Y20354D01*
X64685D01*
Y20331D01*
X64708D01*
Y20308D01*
X64732D01*
Y20285D01*
X64755D01*
Y20261D01*
X64778D01*
Y20238D01*
X64801D01*
Y20215D01*
X64824D01*
Y20192D01*
X64848D01*
Y20168D01*
X64871D01*
Y20145D01*
X64894D01*
Y20122D01*
X64917D01*
Y20099D01*
X64941D01*
Y20076D01*
X64964D01*
Y20052D01*
X64987D01*
Y20029D01*
X65010D01*
Y20006D01*
X65034D01*
Y19983D01*
X65057D01*
Y19959D01*
X65080D01*
Y19936D01*
X65103D01*
Y19913D01*
X65126D01*
Y19890D01*
X65150D01*
Y19866D01*
X65173D01*
Y19843D01*
X65219D01*
Y19797D01*
X65266D01*
Y19774D01*
X65289D01*
Y19750D01*
X65312D01*
Y19727D01*
X65336D01*
Y19704D01*
X65359D01*
Y19681D01*
X65382D01*
Y19658D01*
X65405D01*
Y19634D01*
X65428D01*
Y19611D01*
X65452D01*
Y19588D01*
X65475D01*
Y19565D01*
X65498D01*
Y19541D01*
X65521D01*
Y19518D01*
X65544D01*
Y19495D01*
X65568D01*
Y19472D01*
X65591D01*
Y19448D01*
X65614D01*
Y19425D01*
X65637D01*
Y19402D01*
X65661D01*
Y19379D01*
X65684D01*
Y19355D01*
X65707D01*
Y19332D01*
X65730D01*
Y19309D01*
X65754D01*
Y19286D01*
X65777D01*
Y19263D01*
X65800D01*
Y19239D01*
X65823D01*
Y19216D01*
X65847D01*
Y19193D01*
X65870D01*
Y19170D01*
X65916D01*
Y19147D01*
X65939D01*
Y19123D01*
X65963D01*
Y19100D01*
X65986D01*
Y19077D01*
X66009D01*
Y19054D01*
X66032D01*
Y19030D01*
X66056D01*
Y19007D01*
X66079D01*
Y18984D01*
X66102D01*
Y18961D01*
X66125D01*
Y18937D01*
X66148D01*
Y18914D01*
X66172D01*
Y18891D01*
X66195D01*
Y18868D01*
X66218D01*
Y18845D01*
X66241D01*
Y18821D01*
X66264D01*
Y18798D01*
X66288D01*
Y18775D01*
X66311D01*
Y18752D01*
X66334D01*
Y18728D01*
X66357D01*
Y18705D01*
X66381D01*
Y18682D01*
X66404D01*
Y18659D01*
X66427D01*
Y18635D01*
X66450D01*
Y18612D01*
X66474D01*
Y18589D01*
X66497D01*
Y18566D01*
X66543D01*
Y18542D01*
X66566D01*
Y18519D01*
X66590D01*
Y18496D01*
X66613D01*
Y18473D01*
X66636D01*
Y18450D01*
X66659D01*
Y18426D01*
X66683D01*
Y18403D01*
X66706D01*
Y18380D01*
X66729D01*
Y18357D01*
X66752D01*
Y18334D01*
X66776D01*
Y18310D01*
X66799D01*
Y18287D01*
X66822D01*
Y18264D01*
X66845D01*
Y18241D01*
X66869D01*
Y18217D01*
X66892D01*
Y18194D01*
X66915D01*
Y18171D01*
X66938D01*
Y18148D01*
X66961D01*
Y18124D01*
X66985D01*
Y18101D01*
X67008D01*
Y18078D01*
X67031D01*
Y18055D01*
X67054D01*
Y18032D01*
X67077D01*
Y18008D01*
X67101D01*
Y17985D01*
X67124D01*
Y17962D01*
X67147D01*
Y17939D01*
X67170D01*
Y17915D01*
X67194D01*
Y17892D01*
X67240D01*
Y17846D01*
X67286D01*
Y17822D01*
X67310D01*
Y17799D01*
X67333D01*
Y17776D01*
X67356D01*
Y17753D01*
X67379D01*
Y17730D01*
X67403D01*
Y17706D01*
X67426D01*
Y17660D01*
X67449D01*
Y17637D01*
X67472D01*
Y17614D01*
X67496D01*
Y17590D01*
X67519D01*
Y17567D01*
X67542D01*
Y17544D01*
X67565D01*
Y17521D01*
X67589D01*
Y17497D01*
X67612D01*
Y17474D01*
X67635D01*
Y17451D01*
X67658D01*
Y17404D01*
X67681D01*
Y17381D01*
X67705D01*
Y17358D01*
X67728D01*
Y17312D01*
X67751D01*
Y17265D01*
X67774D01*
Y17219D01*
X67798D01*
Y17172D01*
X67821D01*
Y17126D01*
X67844D01*
Y17033D01*
X67867D01*
Y16986D01*
X67891D01*
Y16847D01*
X67914D01*
Y9646D01*
X67891D01*
Y9577D01*
X67914D01*
Y9554D01*
X67937D01*
Y9530D01*
X67983D01*
Y9507D01*
X68030D01*
Y9484D01*
X68076D01*
Y9461D01*
X68099D01*
Y9437D01*
X68146D01*
Y9414D01*
X68169D01*
Y9391D01*
X68216D01*
Y9368D01*
X68239D01*
Y9345D01*
X68285D01*
Y9321D01*
X68309D01*
Y9298D01*
X68332D01*
Y9275D01*
X68355D01*
Y9252D01*
X68401D01*
Y9228D01*
X68425D01*
Y9205D01*
X68448D01*
Y9182D01*
X68471D01*
Y9159D01*
X68494D01*
Y9136D01*
X68518D01*
Y9112D01*
X68541D01*
Y9089D01*
X68564D01*
Y9066D01*
X68587D01*
Y9043D01*
X68611D01*
Y9019D01*
X68634D01*
Y8996D01*
X68657D01*
Y8973D01*
X68680D01*
Y8950D01*
X68703D01*
Y8926D01*
X68727D01*
Y8880D01*
X68750D01*
Y8857D01*
X68773D01*
Y8834D01*
X68796D01*
Y8787D01*
X68819D01*
Y8764D01*
X68843D01*
Y8717D01*
X68866D01*
Y8694D01*
X68889D01*
Y8648D01*
X68913D01*
Y8625D01*
X68936D01*
Y8578D01*
X68959D01*
Y8532D01*
X68982D01*
Y8485D01*
X69005D01*
Y8439D01*
X69029D01*
Y8392D01*
X69052D01*
Y8346D01*
X69075D01*
Y8276D01*
X69098D01*
Y8230D01*
X69121D01*
Y8160D01*
X69145D01*
Y8090D01*
X69168D01*
Y7997D01*
X69191D01*
Y7904D01*
X69214D01*
Y7788D01*
X69238D01*
Y7533D01*
X69261D01*
Y7231D01*
X69238D01*
Y6999D01*
X69214D01*
Y6882D01*
X69191D01*
Y6790D01*
X69168D01*
Y6697D01*
X69145D01*
Y6650D01*
X69121D01*
Y6557D01*
X69098D01*
Y6511D01*
X69075D01*
Y6441D01*
X69052D01*
Y6395D01*
X69029D01*
Y6348D01*
X69005D01*
Y6302D01*
X68982D01*
Y6255D01*
X68959D01*
Y6209D01*
X68936D01*
Y6186D01*
X68913D01*
Y6139D01*
X68889D01*
Y6093D01*
X68866D01*
Y6070D01*
X68843D01*
Y6023D01*
X68819D01*
Y6000D01*
X68796D01*
Y5953D01*
X68773D01*
Y5930D01*
X68750D01*
Y5907D01*
X68727D01*
Y5861D01*
X68703D01*
Y5837D01*
X68680D01*
Y5814D01*
X68657D01*
Y5791D01*
X68634D01*
Y5768D01*
X68611D01*
Y5744D01*
X68587D01*
Y5721D01*
X68564D01*
Y5698D01*
X68541D01*
Y5675D01*
X68518D01*
Y5652D01*
X68494D01*
Y5628D01*
X68471D01*
Y5605D01*
X68448D01*
Y5582D01*
X68425D01*
Y5559D01*
X68401D01*
Y5535D01*
X68355D01*
Y5512D01*
X68332D01*
Y5489D01*
X68309D01*
Y5466D01*
X68262D01*
Y5442D01*
X68239D01*
Y5419D01*
X68216D01*
Y5396D01*
X68169D01*
Y5373D01*
X68146D01*
Y5350D01*
X68099D01*
Y5326D01*
X68076D01*
Y5303D01*
X68007D01*
Y5280D01*
X67983D01*
Y5257D01*
X67937D01*
Y5233D01*
X67891D01*
Y5210D01*
X67844D01*
Y5187D01*
X67774D01*
Y5164D01*
X67728D01*
Y5141D01*
X67658D01*
Y5117D01*
X67612D01*
Y5094D01*
X67519D01*
Y5071D01*
X67426D01*
Y5048D01*
X67333D01*
Y5024D01*
X67170D01*
Y5001D01*
X66985D01*
Y4978D01*
X66706D01*
Y5001D01*
X66520D01*
Y5024D01*
X66357D01*
Y5048D01*
X66264D01*
Y5071D01*
X66172D01*
Y5094D01*
X66102D01*
Y5117D01*
X66032D01*
Y5141D01*
X65963D01*
Y5164D01*
X65916D01*
Y5187D01*
X65870D01*
Y5210D01*
X65823D01*
Y5233D01*
X65777D01*
Y5257D01*
X65707D01*
Y5280D01*
X65684D01*
Y5303D01*
X65637D01*
Y5326D01*
X65591D01*
Y5350D01*
X65568D01*
Y5373D01*
X65521D01*
Y5396D01*
X65498D01*
Y5419D01*
X65452D01*
Y5442D01*
X65428D01*
Y5466D01*
X65382D01*
Y5489D01*
X65359D01*
Y5512D01*
X65336D01*
Y5535D01*
X65312D01*
Y5559D01*
X65289D01*
Y5582D01*
X65243D01*
Y5605D01*
X65219D01*
Y5628D01*
X65196D01*
Y5652D01*
X65173D01*
Y5675D01*
X65150D01*
Y5698D01*
X65126D01*
Y5721D01*
X65103D01*
Y5744D01*
X65080D01*
Y5768D01*
X65057D01*
Y5814D01*
X65034D01*
Y5837D01*
X65010D01*
Y5861D01*
X64987D01*
Y5884D01*
X64964D01*
Y5907D01*
X64941D01*
Y5953D01*
X64917D01*
Y5977D01*
X64894D01*
Y6000D01*
X64871D01*
Y6046D01*
X64848D01*
Y6070D01*
X64824D01*
Y6116D01*
X64801D01*
Y6139D01*
X64778D01*
Y6186D01*
X64755D01*
Y6232D01*
X64732D01*
Y6279D01*
X64708D01*
Y6325D01*
X64685D01*
Y6372D01*
X64662D01*
Y6418D01*
X64639D01*
Y6464D01*
X64615D01*
Y6534D01*
X64592D01*
Y6581D01*
X64569D01*
Y6650D01*
X64546D01*
Y6743D01*
X64522D01*
Y6813D01*
X64499D01*
Y6952D01*
X64476D01*
Y7068D01*
X64453D01*
Y7742D01*
X64476D01*
Y7835D01*
X64499D01*
Y7974D01*
X64522D01*
Y8044D01*
X64546D01*
Y8137D01*
X64569D01*
Y8207D01*
X64592D01*
Y8253D01*
X64615D01*
Y8323D01*
X64639D01*
Y8369D01*
X64662D01*
Y8416D01*
X64685D01*
Y8462D01*
X64708D01*
Y8508D01*
X64732D01*
Y8555D01*
X64755D01*
Y8601D01*
X64778D01*
Y8648D01*
X64801D01*
Y8671D01*
X64824D01*
Y8717D01*
X64848D01*
Y8741D01*
X64871D01*
Y8787D01*
X64894D01*
Y8810D01*
X64917D01*
Y8834D01*
X64941D01*
Y8880D01*
X64964D01*
Y8903D01*
X64987D01*
Y8926D01*
X65010D01*
Y8973D01*
X65034D01*
Y8996D01*
X65057D01*
Y9019D01*
X65080D01*
Y9043D01*
X65103D01*
Y9066D01*
X65126D01*
Y9089D01*
X65150D01*
Y9112D01*
X65173D01*
Y9136D01*
X65196D01*
Y9159D01*
X65219D01*
Y9182D01*
X65243D01*
Y9205D01*
X65289D01*
Y9228D01*
X65312D01*
Y9252D01*
X65336D01*
Y9275D01*
X65359D01*
Y9298D01*
X65382D01*
Y9321D01*
X65428D01*
Y9345D01*
X65452D01*
Y9368D01*
X65498D01*
Y9391D01*
X65521D01*
Y9414D01*
X65568D01*
Y9437D01*
X65591D01*
Y9461D01*
X65637D01*
Y9484D01*
X65684D01*
Y9507D01*
X65707D01*
Y9530D01*
X65754D01*
Y9554D01*
X65800D01*
Y9577D01*
X65847D01*
Y9600D01*
X65916D01*
Y9623D01*
X65963D01*
Y9646D01*
X66032D01*
Y9670D01*
X66102D01*
Y9693D01*
X66172D01*
Y9716D01*
X66241D01*
Y9739D01*
X66311D01*
Y9763D01*
X66334D01*
Y10065D01*
X66311D01*
Y10088D01*
X66241D01*
Y10065D01*
X66172D01*
Y10041D01*
X66079D01*
Y10018D01*
X66032D01*
Y9995D01*
X65963D01*
Y9972D01*
X65893D01*
Y9949D01*
X65847D01*
Y9925D01*
X65800D01*
Y9902D01*
X65754D01*
Y9879D01*
X65707D01*
Y9856D01*
X65661D01*
Y9832D01*
X65614D01*
Y9809D01*
X65568D01*
Y9786D01*
X65544D01*
Y9763D01*
X65498D01*
Y9739D01*
X65475D01*
Y9716D01*
X65428D01*
Y9693D01*
X65382D01*
Y9670D01*
X65359D01*
Y9646D01*
X65336D01*
Y9623D01*
X65289D01*
Y9600D01*
X65266D01*
Y9577D01*
X65243D01*
Y9554D01*
X65196D01*
Y9530D01*
X65173D01*
Y9507D01*
X65150D01*
Y9484D01*
X65126D01*
Y9461D01*
X65103D01*
Y9437D01*
X65057D01*
Y9414D01*
X65034D01*
Y9391D01*
X65010D01*
Y9368D01*
X64987D01*
Y9345D01*
X64964D01*
Y9321D01*
X64941D01*
Y9298D01*
X64917D01*
Y9275D01*
X64894D01*
Y9252D01*
X64871D01*
Y9228D01*
X64848D01*
Y9205D01*
X64824D01*
Y9159D01*
X64801D01*
Y9136D01*
X64778D01*
Y9112D01*
X64755D01*
Y9089D01*
X64732D01*
Y9043D01*
X64708D01*
Y9019D01*
X64685D01*
Y8996D01*
X64662D01*
Y8950D01*
X64639D01*
Y8926D01*
X64615D01*
Y8880D01*
X64592D01*
Y8857D01*
X64569D01*
Y8810D01*
X64546D01*
Y8787D01*
X64522D01*
Y8741D01*
X64499D01*
Y8694D01*
X64476D01*
Y8671D01*
X64453D01*
Y8625D01*
X64430D01*
Y8578D01*
X64406D01*
Y8532D01*
X64383D01*
Y8462D01*
X64360D01*
Y8416D01*
X64337D01*
Y8369D01*
X64314D01*
Y8323D01*
X64290D01*
Y8253D01*
X64267D01*
Y8183D01*
X64244D01*
Y8113D01*
X64221D01*
Y8021D01*
X64197D01*
Y7928D01*
X64174D01*
Y7835D01*
X64151D01*
Y7672D01*
X64128D01*
Y7486D01*
X64104D01*
Y7045D01*
X64128D01*
Y6906D01*
X64151D01*
Y6604D01*
X64128D01*
Y6581D01*
X64104D01*
Y6534D01*
X64081D01*
Y6511D01*
X64058D01*
Y6488D01*
X64012D01*
Y6464D01*
X63942D01*
Y6441D01*
X63849D01*
Y6464D01*
X63779D01*
Y6488D01*
X63733D01*
Y6511D01*
X63710D01*
Y6534D01*
X63686D01*
Y6557D01*
X63663D01*
Y6604D01*
X63640D01*
Y6650D01*
X63617D01*
Y6836D01*
X63593D01*
Y7022D01*
X63570D01*
Y7533D01*
X63593D01*
Y7719D01*
X63617D01*
Y7904D01*
X63640D01*
Y7997D01*
X63663D01*
Y8113D01*
X63686D01*
Y8207D01*
X63710D01*
Y8276D01*
X63733D01*
Y8369D01*
X63756D01*
Y8416D01*
X63779D01*
Y8485D01*
X63802D01*
Y8555D01*
X63826D01*
Y8601D01*
X63849D01*
Y8671D01*
X63872D01*
Y8717D01*
X63895D01*
Y8764D01*
X63919D01*
Y8810D01*
X63942D01*
Y8857D01*
X63965D01*
Y8903D01*
X63988D01*
Y8950D01*
X64012D01*
Y8996D01*
X64035D01*
Y9019D01*
X64058D01*
Y9066D01*
X64081D01*
Y9089D01*
X64104D01*
Y9136D01*
X64128D01*
Y9182D01*
X64151D01*
Y9205D01*
X64174D01*
Y9252D01*
X64197D01*
Y9275D01*
X64221D01*
Y9298D01*
X64244D01*
Y9345D01*
X64267D01*
Y9368D01*
X64290D01*
Y9414D01*
X64314D01*
Y9437D01*
X64337D01*
Y9461D01*
X64360D01*
Y9484D01*
X64383D01*
Y9507D01*
X64406D01*
Y9554D01*
X64430D01*
Y9577D01*
X64453D01*
Y9600D01*
X64476D01*
Y9623D01*
X64499D01*
Y9646D01*
X64522D01*
Y9670D01*
X64546D01*
Y9693D01*
X64569D01*
Y9716D01*
X64592D01*
Y9739D01*
X64615D01*
Y9763D01*
X64639D01*
Y9786D01*
X64662D01*
Y9809D01*
X64685D01*
Y9832D01*
X64708D01*
Y9856D01*
X64732D01*
Y9879D01*
X64778D01*
Y9902D01*
X64801D01*
Y9925D01*
X64824D01*
Y9949D01*
X64848D01*
Y9972D01*
X64894D01*
Y9995D01*
X64917D01*
Y10018D01*
X64941D01*
Y10041D01*
X64987D01*
Y10065D01*
X65010D01*
Y10088D01*
X65034D01*
Y10111D01*
X65080D01*
Y10134D01*
X65103D01*
Y10158D01*
X65150D01*
Y10181D01*
X65173D01*
Y10204D01*
X65219D01*
Y10227D01*
X65243D01*
Y10250D01*
X65289D01*
Y10274D01*
X65336D01*
Y10297D01*
X65382D01*
Y10320D01*
X65428D01*
Y10343D01*
X65475D01*
Y10367D01*
X65521D01*
Y10390D01*
X65568D01*
Y10413D01*
X65614D01*
Y10436D01*
X65661D01*
Y10459D01*
X65730D01*
Y10483D01*
X65800D01*
Y10506D01*
X65847D01*
Y10529D01*
X65916D01*
Y10552D01*
X65986D01*
Y10576D01*
X66079D01*
Y10599D01*
X66148D01*
Y10622D01*
X66241D01*
Y10645D01*
X66311D01*
Y10668D01*
X66334D01*
Y17033D01*
X66311D01*
Y17056D01*
X66288D01*
Y17079D01*
X66264D01*
Y17102D01*
X66241D01*
Y17126D01*
X66218D01*
Y17149D01*
X66195D01*
Y17172D01*
X66172D01*
Y17195D01*
X66148D01*
Y17219D01*
X66125D01*
Y17242D01*
X66102D01*
Y17265D01*
X66079D01*
Y17288D01*
X66056D01*
Y17312D01*
X66032D01*
Y17335D01*
X66009D01*
Y17358D01*
X65986D01*
Y17381D01*
X65963D01*
Y17404D01*
X65939D01*
Y17428D01*
X65916D01*
Y17451D01*
X65893D01*
Y17474D01*
X65870D01*
Y17497D01*
X65847D01*
Y17521D01*
X65823D01*
Y17544D01*
X65800D01*
Y17567D01*
X65777D01*
Y17590D01*
X65754D01*
Y17614D01*
X65730D01*
Y17637D01*
X65707D01*
Y17660D01*
X65684D01*
Y17683D01*
X65661D01*
Y17706D01*
X65637D01*
Y17730D01*
X65614D01*
Y17753D01*
X65591D01*
Y17776D01*
X65568D01*
Y17799D01*
X65544D01*
Y17822D01*
X65521D01*
Y17846D01*
X65498D01*
Y17869D01*
X65475D01*
Y17892D01*
X65452D01*
Y17915D01*
X65428D01*
Y17939D01*
X65405D01*
Y17962D01*
X65382D01*
Y17985D01*
X65359D01*
Y18008D01*
X65336D01*
Y18032D01*
X65312D01*
Y18055D01*
X65289D01*
Y18078D01*
X65266D01*
Y18101D01*
X65243D01*
Y18124D01*
X65219D01*
Y18148D01*
X65196D01*
Y18171D01*
X65173D01*
Y18194D01*
X65150D01*
Y18217D01*
X65126D01*
Y18241D01*
X65103D01*
Y18264D01*
X65080D01*
Y18287D01*
X65057D01*
Y18310D01*
X65034D01*
Y18334D01*
X65010D01*
Y18357D01*
X64987D01*
Y18380D01*
X64964D01*
Y18403D01*
X64941D01*
Y18450D01*
X64894D01*
Y18496D01*
X64871D01*
Y18519D01*
X64848D01*
Y18542D01*
X64824D01*
Y18566D01*
X64778D01*
Y18612D01*
X64732D01*
Y18659D01*
X64708D01*
Y18682D01*
X64662D01*
Y18728D01*
X64615D01*
Y18775D01*
X64592D01*
Y18798D01*
X64569D01*
Y18821D01*
X64546D01*
Y18845D01*
X64499D01*
Y18891D01*
X64453D01*
Y18937D01*
X64430D01*
Y18961D01*
X64383D01*
Y19007D01*
X64337D01*
Y19054D01*
X64314D01*
Y19077D01*
X64290D01*
Y19100D01*
X64267D01*
Y19123D01*
X64221D01*
Y19170D01*
X64174D01*
Y19216D01*
X64151D01*
Y19239D01*
X64104D01*
Y19286D01*
X64058D01*
Y19332D01*
X64012D01*
Y19379D01*
X63988D01*
Y19402D01*
X63942D01*
Y19448D01*
X63895D01*
Y19495D01*
X63872D01*
Y19518D01*
X63849D01*
Y19541D01*
X63826D01*
Y19565D01*
X63779D01*
Y19611D01*
X63756D01*
Y19634D01*
X63733D01*
Y19658D01*
X63710D01*
Y19681D01*
X63663D01*
Y19727D01*
X63617D01*
Y19774D01*
X63593D01*
Y19797D01*
X63547D01*
Y19843D01*
X63500D01*
Y19890D01*
X63477D01*
Y19913D01*
X63454D01*
Y19936D01*
X63431D01*
Y19959D01*
X63384D01*
Y20006D01*
X63361D01*
Y20029D01*
X63338D01*
Y20052D01*
X63315D01*
Y20076D01*
X63292D01*
Y20099D01*
X63268D01*
Y20122D01*
X63222D01*
Y20168D01*
X63199D01*
Y20192D01*
X63175D01*
Y20215D01*
X63152D01*
Y20238D01*
X63106D01*
Y20285D01*
X63059D01*
Y20331D01*
X63036D01*
Y20354D01*
X62989D01*
Y20401D01*
X62943D01*
Y20447D01*
X62920D01*
Y20470D01*
X62897D01*
Y20494D01*
X62873D01*
Y20517D01*
X62827D01*
Y20563D01*
X62780D01*
Y20610D01*
X62757D01*
Y20633D01*
X62711D01*
Y20679D01*
X62455D01*
Y20656D01*
X62316D01*
Y20633D01*
X62130D01*
Y20610D01*
X61967D01*
Y20586D01*
X61828D01*
Y20563D01*
X61642D01*
Y20540D01*
X61503D01*
Y20517D01*
X61317D01*
Y20494D01*
X61178D01*
Y20470D01*
X61015D01*
Y20447D01*
X60829D01*
Y20424D01*
X60574D01*
Y20447D01*
X60527D01*
Y20470D01*
X60504D01*
Y20494D01*
X60481D01*
Y20517D01*
X60458D01*
Y20540D01*
X60435D01*
Y20563D01*
X60411D01*
Y20586D01*
X60202D01*
Y20563D01*
X60040D01*
Y20540D01*
X59900D01*
Y20517D01*
X59715D01*
Y20494D01*
X59575D01*
Y20470D01*
X59389D01*
Y20447D01*
X59227D01*
Y20424D01*
X59087D01*
Y20401D01*
X58878D01*
Y20378D01*
X58762D01*
Y20354D01*
X58576D01*
Y20331D01*
X58437D01*
Y20308D01*
X58251D01*
Y20285D01*
X58089D01*
Y20261D01*
X57926D01*
Y20238D01*
X57740D01*
Y20215D01*
X57601D01*
Y20192D01*
X57415D01*
Y20168D01*
X57276D01*
Y20145D01*
X57113D01*
Y20122D01*
X56927D01*
Y20099D01*
X56788D01*
Y20076D01*
X56602D01*
Y20052D01*
X56463D01*
Y20029D01*
X56300D01*
Y20006D01*
X56114D01*
Y19983D01*
X55975D01*
Y19959D01*
X55766D01*
Y19936D01*
X55650D01*
Y19913D01*
X55464D01*
Y19890D01*
X55325D01*
Y19866D01*
X55162D01*
Y19843D01*
X54976D01*
Y19820D01*
X54837D01*
Y19797D01*
X54628D01*
Y19774D01*
X54488D01*
Y19750D01*
X54326D01*
Y19727D01*
X54163D01*
Y19704D01*
X54024D01*
Y19681D01*
X53815D01*
Y19658D01*
X53675D01*
Y19634D01*
X53490D01*
Y19611D01*
X53350D01*
Y19588D01*
X53188D01*
Y19565D01*
X53118D01*
Y19541D01*
X52979D01*
Y19518D01*
X52816D01*
Y19495D01*
X52653D01*
Y19472D01*
X52491D01*
Y19495D01*
X52421D01*
Y19518D01*
X52351D01*
Y19541D01*
X52328D01*
Y19565D01*
X52282D01*
Y19588D01*
X52259D01*
Y19611D01*
X52235D01*
Y19634D01*
X52212D01*
Y19658D01*
X52189D01*
Y19704D01*
X52166D01*
Y19727D01*
X52142D01*
Y19797D01*
X52119D01*
Y19890D01*
X52096D01*
Y21725D01*
X52119D01*
Y21818D01*
X52142D01*
Y21911D01*
X52166D01*
Y21934D01*
X52189D01*
Y21980D01*
X52212D01*
Y22003D01*
X52235D01*
Y22027D01*
X52259D01*
Y22050D01*
X52282D01*
Y22073D01*
X52305D01*
Y22096D01*
X52328D01*
Y22119D01*
X52375D01*
Y22143D01*
X52398D01*
Y22166D01*
X52468D01*
Y22189D01*
X52561D01*
Y22212D01*
X52746D01*
Y22189D01*
X52839D01*
Y22166D01*
X52886D01*
Y22143D01*
X52932D01*
Y22119D01*
X52979D01*
Y22096D01*
X53002D01*
Y22073D01*
X53025D01*
Y22050D01*
X53048D01*
Y22027D01*
X53071D01*
Y22003D01*
X53095D01*
Y21957D01*
X53118D01*
Y21934D01*
X53141D01*
Y21887D01*
X53164D01*
Y21818D01*
X53188D01*
Y21469D01*
X53164D01*
Y21353D01*
X53141D01*
Y21191D01*
X53118D01*
Y21074D01*
X53095D01*
Y20935D01*
X53071D01*
Y20772D01*
X53048D01*
Y20679D01*
X53025D01*
Y20633D01*
X53048D01*
Y20610D01*
X53188D01*
Y20633D01*
X53350D01*
Y20656D01*
X53490D01*
Y20679D01*
X53675D01*
Y20703D01*
X53815D01*
Y20726D01*
X54001D01*
Y20749D01*
X54140D01*
Y20772D01*
X54326D01*
Y20796D01*
X54488D01*
Y20819D01*
X54651D01*
Y20842D01*
X54837D01*
Y20865D01*
X54953D01*
Y20888D01*
X55162D01*
Y20912D01*
X55301D01*
Y20935D01*
X55464D01*
Y20958D01*
X55626D01*
Y20981D01*
X55766D01*
Y21005D01*
X55975D01*
Y21028D01*
X56114D01*
Y21051D01*
X56277D01*
Y21074D01*
X56440D01*
Y21098D01*
X56602D01*
Y21121D01*
X56788D01*
Y21144D01*
X56927D01*
Y21167D01*
X57113D01*
Y21191D01*
X57276D01*
Y21214D01*
X57438D01*
Y21237D01*
X57601D01*
Y21260D01*
X57740D01*
Y21283D01*
X57926D01*
Y21307D01*
X58065D01*
Y21330D01*
X58251D01*
Y21353D01*
X58437D01*
Y21376D01*
X58553D01*
Y21399D01*
X58762D01*
Y21423D01*
X58878D01*
Y21446D01*
X59087D01*
Y21469D01*
X59227D01*
Y21492D01*
X59389D01*
Y21516D01*
X59575D01*
Y21539D01*
X59715D01*
Y21562D01*
X59900D01*
Y21585D01*
X60040D01*
Y21609D01*
X60225D01*
Y21632D01*
X60249D01*
Y21655D01*
X60272D01*
Y21701D01*
X60295D01*
Y21748D01*
X60318D01*
Y21771D01*
X60342D01*
Y21794D01*
X60365D01*
Y21818D01*
X60388D01*
Y21841D01*
X60411D01*
Y21864D01*
X60458D01*
Y21887D01*
X60574D01*
Y21911D01*
X60760D01*
Y21934D01*
X60899D01*
Y21957D01*
X61085D01*
Y21980D01*
X61224D01*
Y22003D01*
X61410D01*
Y22027D01*
X61573D01*
Y22050D01*
X61712D01*
Y22073D01*
X61898D01*
Y22096D01*
X62037D01*
Y22119D01*
X62246D01*
Y22143D01*
X62386D01*
Y22166D01*
X62548D01*
Y22189D01*
X62734D01*
Y22212D01*
X62873D01*
Y22236D01*
X63059D01*
Y22259D01*
X63199D01*
Y22282D01*
X63384D01*
Y22305D01*
X63547D01*
Y22329D01*
X63686D01*
Y22352D01*
X63895D01*
Y22375D01*
X64012D01*
Y22398D01*
X64221D01*
Y22422D01*
X64360D01*
Y22445D01*
X64453D01*
Y22468D01*
X64476D01*
Y22491D01*
X64499D01*
Y22607D01*
X64522D01*
Y22700D01*
X64546D01*
Y22770D01*
X64569D01*
Y22840D01*
X64592D01*
Y22909D01*
X64615D01*
Y22979D01*
X64639D01*
Y23002D01*
X64662D01*
Y23072D01*
X64685D01*
Y23118D01*
X64708D01*
Y23165D01*
X64732D01*
Y23211D01*
X64755D01*
Y23234D01*
X64778D01*
Y23281D01*
X64801D01*
Y23327D01*
X64824D01*
Y23351D01*
X64848D01*
Y23397D01*
X64871D01*
Y23420D01*
X64894D01*
Y23467D01*
X64917D01*
Y23490D01*
X64941D01*
Y23513D01*
X64964D01*
Y23560D01*
X64987D01*
Y23583D01*
X65010D01*
Y23606D01*
X65034D01*
Y23629D01*
X65057D01*
Y23652D01*
X65080D01*
Y23676D01*
X65103D01*
Y23699D01*
X65126D01*
Y23745D01*
X65173D01*
Y23769D01*
X65196D01*
Y23792D01*
X65219D01*
Y23815D01*
X65243D01*
Y23838D01*
X65266D01*
Y23862D01*
X65289D01*
Y23885D01*
X65312D01*
Y23908D01*
X65359D01*
Y23931D01*
X65382D01*
Y23955D01*
X65405D01*
Y23978D01*
X65452D01*
Y24001D01*
X65475D01*
Y24024D01*
X65498D01*
Y24047D01*
X65544D01*
Y24071D01*
X65568D01*
Y24094D01*
X65614D01*
Y24117D01*
X65661D01*
Y24140D01*
X65707D01*
Y24163D01*
X65730D01*
Y24187D01*
X65800D01*
Y24210D01*
X65823D01*
Y24233D01*
X65893D01*
Y24256D01*
X65939D01*
Y24280D01*
X65986D01*
Y24303D01*
X66056D01*
Y24326D01*
X66125D01*
Y24349D01*
X66218D01*
Y24373D01*
X66311D01*
Y24396D01*
X66404D01*
Y24419D01*
X66590D01*
Y24442D01*
X67124D01*
Y24419D01*
D02*
G37*
G36*
X59663Y15741D02*
X59680D01*
Y15657D01*
X59663D01*
Y15623D01*
X59680D01*
Y15606D01*
X59663D01*
Y14831D01*
X59646D01*
Y14747D01*
X59663D01*
Y14730D01*
X59764D01*
Y14747D01*
X59848D01*
Y14764D01*
X59915D01*
Y14781D01*
X59983D01*
Y14798D01*
X60084D01*
Y14815D01*
X60134D01*
Y14831D01*
X60219D01*
Y14848D01*
X60286D01*
Y14865D01*
X60353D01*
Y14882D01*
X60437D01*
Y14899D01*
X60505D01*
Y14916D01*
X60589D01*
Y14933D01*
X60640D01*
Y14949D01*
X60741D01*
Y14966D01*
X60808D01*
Y14983D01*
X60875D01*
Y15000D01*
X60960D01*
Y15017D01*
X61010D01*
Y15034D01*
X61111D01*
Y15051D01*
X61162D01*
Y15067D01*
X61229D01*
Y15084D01*
X61330D01*
Y15101D01*
X61380D01*
Y15118D01*
X61465D01*
Y15135D01*
X61532D01*
Y15152D01*
X61616D01*
Y15168D01*
X61684D01*
Y15185D01*
X61751D01*
Y15202D01*
X61852D01*
Y15219D01*
X61902D01*
Y15236D01*
X61987D01*
Y15252D01*
X62054D01*
Y15269D01*
X62105D01*
Y15286D01*
X62206D01*
Y15269D01*
X62189D01*
Y15252D01*
X62172D01*
Y15236D01*
X62121D01*
Y15219D01*
X62105D01*
Y15202D01*
X62071D01*
Y15185D01*
X62037D01*
Y15168D01*
X62003D01*
Y15152D01*
X61970D01*
Y15135D01*
X61936D01*
Y15118D01*
X61902D01*
Y15101D01*
X61886D01*
Y15084D01*
X61852D01*
Y15067D01*
X61818D01*
Y15051D01*
X61785D01*
Y15034D01*
X61751D01*
Y15017D01*
X61717D01*
Y15000D01*
X61684D01*
Y14983D01*
X61650D01*
Y14966D01*
X61633D01*
Y14949D01*
X61599D01*
Y14933D01*
X61566D01*
Y14916D01*
X61532D01*
Y14899D01*
X61498D01*
Y14882D01*
X61465D01*
Y14865D01*
X61448D01*
Y14848D01*
X61414D01*
Y14831D01*
X61380D01*
Y14815D01*
X61347D01*
Y14798D01*
X61313D01*
Y14781D01*
X61279D01*
Y14764D01*
X61263D01*
Y14747D01*
X61229D01*
Y14730D01*
X61195D01*
Y14714D01*
X61162D01*
Y14697D01*
X61128D01*
Y14680D01*
X61094D01*
Y14663D01*
X61061D01*
Y14646D01*
X61044D01*
Y14629D01*
X61010D01*
Y14613D01*
X60976D01*
Y14596D01*
X60943D01*
Y14579D01*
X60909D01*
Y14562D01*
X60875D01*
Y14545D01*
X60842D01*
Y14528D01*
X60825D01*
Y14512D01*
X60774D01*
Y14495D01*
X60757D01*
Y14478D01*
X60724D01*
Y14461D01*
X60690D01*
Y14444D01*
X60673D01*
Y14427D01*
X60623D01*
Y14411D01*
X60606D01*
Y14394D01*
X60572D01*
Y14377D01*
X60539D01*
Y14360D01*
X60505D01*
Y14343D01*
X60471D01*
Y14326D01*
X60437D01*
Y14310D01*
X60404D01*
Y14293D01*
X60387D01*
Y14276D01*
X60353D01*
Y14259D01*
X60320D01*
Y14242D01*
X60286D01*
Y14225D01*
X60252D01*
Y14209D01*
X60235D01*
Y14192D01*
X60185D01*
Y14175D01*
X60168D01*
Y14158D01*
X60134D01*
Y14141D01*
X60101D01*
Y14124D01*
X60084D01*
Y14107D01*
X60033D01*
Y14091D01*
X60016D01*
Y14074D01*
X59983D01*
Y14057D01*
X59949D01*
Y14040D01*
X59915D01*
Y14023D01*
X59882D01*
Y14006D01*
X59848D01*
Y13990D01*
X59814D01*
Y13973D01*
X59798D01*
Y13956D01*
X59764D01*
Y13939D01*
X59730D01*
Y13922D01*
X59697D01*
Y13905D01*
X59663D01*
Y13889D01*
X59629D01*
Y13872D01*
X59596D01*
Y13855D01*
X59579D01*
Y13838D01*
X59545D01*
Y13821D01*
X59511D01*
Y13804D01*
X59478D01*
Y13788D01*
X59444D01*
Y13771D01*
X59410D01*
Y13754D01*
X59393D01*
Y13737D01*
X59360D01*
Y13720D01*
X59326D01*
Y13703D01*
X59292D01*
Y13686D01*
X59259D01*
Y13670D01*
X59225D01*
Y13653D01*
X59191D01*
Y13636D01*
X59175D01*
Y13619D01*
X59141D01*
Y13602D01*
X59107D01*
Y13585D01*
X59073D01*
Y13569D01*
X59040D01*
Y13552D01*
X59006D01*
Y13535D01*
X58972D01*
Y13518D01*
X58956D01*
Y13501D01*
X58922D01*
Y13484D01*
X58888D01*
Y13467D01*
X58855D01*
Y13451D01*
X58821D01*
Y13434D01*
X58787D01*
Y13417D01*
X58754D01*
Y13400D01*
X58737D01*
Y13383D01*
X58686D01*
Y14040D01*
X58703D01*
Y14427D01*
X58686D01*
Y14444D01*
X58669D01*
Y14461D01*
X58652D01*
Y14444D01*
X58619D01*
Y14427D01*
X58568D01*
Y14411D01*
X58518D01*
Y14394D01*
X58467D01*
Y14377D01*
X58434D01*
Y14360D01*
X58383D01*
Y14343D01*
X58333D01*
Y14326D01*
X58299D01*
Y14310D01*
X58248D01*
Y14293D01*
X58198D01*
Y14276D01*
X58147D01*
Y14259D01*
X58097D01*
Y14242D01*
X58063D01*
Y14225D01*
X57996D01*
Y14209D01*
X57962D01*
Y14192D01*
X57911D01*
Y14175D01*
X57861D01*
Y14158D01*
X57810D01*
Y14141D01*
X57760D01*
Y14124D01*
X57726D01*
Y14107D01*
X57676D01*
Y14091D01*
X57625D01*
Y14074D01*
X57575D01*
Y14057D01*
X57541D01*
Y14040D01*
X57490D01*
Y14023D01*
X57440D01*
Y14006D01*
X57406D01*
Y13990D01*
X57339D01*
Y13973D01*
X57305D01*
Y13956D01*
X57255D01*
Y13939D01*
X57204D01*
Y13922D01*
X57170D01*
Y13956D01*
X57154D01*
Y13990D01*
X57170D01*
Y14427D01*
X57187D01*
Y14933D01*
X57204D01*
Y14949D01*
X57238D01*
Y14966D01*
X57288D01*
Y14983D01*
X57339D01*
Y15000D01*
X57389D01*
Y15017D01*
X57440D01*
Y15034D01*
X57507D01*
Y15051D01*
X57541D01*
Y15067D01*
X57591D01*
Y15084D01*
X57659D01*
Y15101D01*
X57693D01*
Y15118D01*
X57760D01*
Y15135D01*
X57794D01*
Y15152D01*
X57844D01*
Y15168D01*
X57911D01*
Y15185D01*
X57945D01*
Y15202D01*
X58012D01*
Y15219D01*
X58046D01*
Y15236D01*
X58097D01*
Y15252D01*
X58147D01*
Y15269D01*
X58198D01*
Y15286D01*
X58265D01*
Y15303D01*
X58299D01*
Y15320D01*
X58366D01*
Y15337D01*
X58417D01*
Y15354D01*
X58467D01*
Y15370D01*
X58518D01*
Y15387D01*
X58568D01*
Y15404D01*
X58619D01*
Y15421D01*
X58652D01*
Y15438D01*
X58720D01*
Y15455D01*
X58770D01*
Y15471D01*
X58821D01*
Y15488D01*
X58871D01*
Y15505D01*
X58922D01*
Y15522D01*
X58972D01*
Y15539D01*
X59023D01*
Y15556D01*
X59073D01*
Y15573D01*
X59124D01*
Y15589D01*
X59175D01*
Y15606D01*
X59242D01*
Y15623D01*
X59276D01*
Y15640D01*
X59326D01*
Y15657D01*
X59377D01*
Y15674D01*
X59444D01*
Y15690D01*
X59494D01*
Y15707D01*
X59528D01*
Y15724D01*
X59596D01*
Y15741D01*
X59629D01*
Y15758D01*
X59663D01*
Y15741D01*
D02*
G37*
%LPC*%
G36*
X66961Y22352D02*
X66729D01*
Y22329D01*
X66706D01*
Y22305D01*
X66659D01*
Y22282D01*
X66636D01*
Y22259D01*
X66613D01*
Y22236D01*
X66590D01*
Y22212D01*
X66566D01*
Y22166D01*
X66543D01*
Y22073D01*
X66520D01*
Y22003D01*
X66543D01*
Y21911D01*
X66566D01*
Y21864D01*
X66590D01*
Y21841D01*
X66613D01*
Y21818D01*
X66636D01*
Y21794D01*
X66659D01*
Y21771D01*
X66706D01*
Y21748D01*
X66752D01*
Y21725D01*
X66961D01*
Y21748D01*
X67008D01*
Y21771D01*
X67031D01*
Y21794D01*
X67054D01*
Y21818D01*
X67077D01*
Y21841D01*
X67101D01*
Y21864D01*
X67124D01*
Y21911D01*
X67147D01*
Y21957D01*
X67170D01*
Y22119D01*
X67147D01*
Y22166D01*
X67124D01*
Y22212D01*
X67101D01*
Y22236D01*
X67077D01*
Y22259D01*
X67054D01*
Y22282D01*
X67031D01*
Y22305D01*
X67008D01*
Y22329D01*
X66961D01*
Y22352D01*
D02*
G37*
G36*
Y23490D02*
X66729D01*
Y23467D01*
X66543D01*
Y23444D01*
X66474D01*
Y23420D01*
X66381D01*
Y23397D01*
X66334D01*
Y23374D01*
X66288D01*
Y23351D01*
X66218D01*
Y23327D01*
X66172D01*
Y23304D01*
X66125D01*
Y23281D01*
X66102D01*
Y23258D01*
X66056D01*
Y23234D01*
X66032D01*
Y23211D01*
X65986D01*
Y23188D01*
X65963D01*
Y23165D01*
X65939D01*
Y23142D01*
X65916D01*
Y23118D01*
X65870D01*
Y23095D01*
X65847D01*
Y23072D01*
X65823D01*
Y23049D01*
X65800D01*
Y23025D01*
X65777D01*
Y22979D01*
X65754D01*
Y22956D01*
X65730D01*
Y22932D01*
X65707D01*
Y22909D01*
X65684D01*
Y22886D01*
X65661D01*
Y22840D01*
X65637D01*
Y22816D01*
X65614D01*
Y22770D01*
X65591D01*
Y22723D01*
X65568D01*
Y22677D01*
X65544D01*
Y22630D01*
X65521D01*
Y22584D01*
X65498D01*
Y22514D01*
X65475D01*
Y22468D01*
X65452D01*
Y22375D01*
X65591D01*
Y22398D01*
X65800D01*
Y22422D01*
X65939D01*
Y22445D01*
X66102D01*
Y22468D01*
X66148D01*
Y22491D01*
X66172D01*
Y22514D01*
X66195D01*
Y22538D01*
X66218D01*
Y22561D01*
X66241D01*
Y22607D01*
X66264D01*
Y22630D01*
X66311D01*
Y22654D01*
X66334D01*
Y22677D01*
X66357D01*
Y22700D01*
X66381D01*
Y22723D01*
X66427D01*
Y22747D01*
X66474D01*
Y22770D01*
X66520D01*
Y22793D01*
X66590D01*
Y22816D01*
X66636D01*
Y22840D01*
X67054D01*
Y22816D01*
X67124D01*
Y22793D01*
X67194D01*
Y22770D01*
X67240D01*
Y22747D01*
X67263D01*
Y22723D01*
X67310D01*
Y22700D01*
X67333D01*
Y22677D01*
X67379D01*
Y22654D01*
X67403D01*
Y22630D01*
X67426D01*
Y22607D01*
X67449D01*
Y22584D01*
X67472D01*
Y22561D01*
X67496D01*
Y22514D01*
X67519D01*
Y22491D01*
X67542D01*
Y22445D01*
X67565D01*
Y22398D01*
X67589D01*
Y22352D01*
X67612D01*
Y22282D01*
X67635D01*
Y22212D01*
X67658D01*
Y21887D01*
X67635D01*
Y21794D01*
X67612D01*
Y21725D01*
X67589D01*
Y21678D01*
X67565D01*
Y21632D01*
X67542D01*
Y21585D01*
X67519D01*
Y21562D01*
X67496D01*
Y21516D01*
X67472D01*
Y21492D01*
X67449D01*
Y21469D01*
X67426D01*
Y21446D01*
X67403D01*
Y21423D01*
X67379D01*
Y21399D01*
X67333D01*
Y21376D01*
X67310D01*
Y21353D01*
X67263D01*
Y21330D01*
X67217D01*
Y21307D01*
X67170D01*
Y21283D01*
X67124D01*
Y21260D01*
X67054D01*
Y21237D01*
X66659D01*
Y21260D01*
X66590D01*
Y21283D01*
X66520D01*
Y21307D01*
X66474D01*
Y21330D01*
X66427D01*
Y21353D01*
X66381D01*
Y21376D01*
X66357D01*
Y21399D01*
X66334D01*
Y21423D01*
X66102D01*
Y21399D01*
X65939D01*
Y21376D01*
X65800D01*
Y21353D01*
X65614D01*
Y21260D01*
X65637D01*
Y21237D01*
X65661D01*
Y21214D01*
X65684D01*
Y21167D01*
X65707D01*
Y21144D01*
X65730D01*
Y21121D01*
X65754D01*
Y21098D01*
X65777D01*
Y21074D01*
X65800D01*
Y21028D01*
X65823D01*
Y21005D01*
X65847D01*
Y20981D01*
X65893D01*
Y20958D01*
X65916D01*
Y20935D01*
X65939D01*
Y20912D01*
X65963D01*
Y20888D01*
X66009D01*
Y20865D01*
X66032D01*
Y20842D01*
X66056D01*
Y20819D01*
X66102D01*
Y20796D01*
X66148D01*
Y20772D01*
X66172D01*
Y20749D01*
X66218D01*
Y20726D01*
X66288D01*
Y20703D01*
X66334D01*
Y20679D01*
X66404D01*
Y20656D01*
X66474D01*
Y20633D01*
X66566D01*
Y20610D01*
X66752D01*
Y20586D01*
X66938D01*
Y20610D01*
X67124D01*
Y20633D01*
X67240D01*
Y20656D01*
X67286D01*
Y20679D01*
X67379D01*
Y20703D01*
X67426D01*
Y20726D01*
X67472D01*
Y20749D01*
X67519D01*
Y20772D01*
X67565D01*
Y20796D01*
X67612D01*
Y20819D01*
X67635D01*
Y20842D01*
X67681D01*
Y20865D01*
X67705D01*
Y20888D01*
X67728D01*
Y20912D01*
X67774D01*
Y20935D01*
X67798D01*
Y20958D01*
X67821D01*
Y20981D01*
X67844D01*
Y21005D01*
X67867D01*
Y21028D01*
X67891D01*
Y21051D01*
X67914D01*
Y21074D01*
X67937D01*
Y21098D01*
X67960D01*
Y21144D01*
X67983D01*
Y21167D01*
X68007D01*
Y21191D01*
X68030D01*
Y21214D01*
X68053D01*
Y21260D01*
X68076D01*
Y21307D01*
X68099D01*
Y21330D01*
X68123D01*
Y21376D01*
X68146D01*
Y21423D01*
X68169D01*
Y21469D01*
X68192D01*
Y21539D01*
X68216D01*
Y21609D01*
X68239D01*
Y21701D01*
X68262D01*
Y21794D01*
X68285D01*
Y22305D01*
X68262D01*
Y22375D01*
X68239D01*
Y22491D01*
X68216D01*
Y22538D01*
X68192D01*
Y22607D01*
X68169D01*
Y22654D01*
X68146D01*
Y22700D01*
X68123D01*
Y22747D01*
X68099D01*
Y22770D01*
X68076D01*
Y22816D01*
X68053D01*
Y22863D01*
X68030D01*
Y22886D01*
X68007D01*
Y22909D01*
X67983D01*
Y22932D01*
X67960D01*
Y22979D01*
X67937D01*
Y23002D01*
X67914D01*
Y23025D01*
X67891D01*
Y23049D01*
X67867D01*
Y23072D01*
X67844D01*
Y23095D01*
X67821D01*
Y23118D01*
X67798D01*
Y23142D01*
X67774D01*
Y23165D01*
X67751D01*
Y23188D01*
X67705D01*
Y23211D01*
X67681D01*
Y23234D01*
X67635D01*
Y23258D01*
X67612D01*
Y23281D01*
X67565D01*
Y23304D01*
X67519D01*
Y23327D01*
X67472D01*
Y23351D01*
X67426D01*
Y23374D01*
X67379D01*
Y23397D01*
X67310D01*
Y23420D01*
X67240D01*
Y23444D01*
X67147D01*
Y23467D01*
X66961D01*
Y23490D01*
D02*
G37*
G36*
X66915Y7719D02*
X66776D01*
Y7695D01*
X66706D01*
Y7672D01*
X66683D01*
Y7649D01*
X66636D01*
Y7626D01*
X66613D01*
Y7579D01*
X66590D01*
Y7556D01*
X66566D01*
Y7510D01*
X66543D01*
Y7440D01*
X66520D01*
Y7370D01*
X66543D01*
Y7277D01*
X66566D01*
Y7231D01*
X66590D01*
Y7208D01*
X66613D01*
Y7185D01*
X66636D01*
Y7161D01*
X66659D01*
Y7138D01*
X66683D01*
Y7115D01*
X66729D01*
Y7091D01*
X66776D01*
Y7068D01*
X66915D01*
Y7091D01*
X66985D01*
Y7115D01*
X67008D01*
Y7138D01*
X67054D01*
Y7161D01*
X67077D01*
Y7185D01*
X67101D01*
Y7208D01*
X67124D01*
Y7254D01*
X67147D01*
Y7324D01*
X67170D01*
Y7486D01*
X67147D01*
Y7533D01*
X67124D01*
Y7579D01*
X67101D01*
Y7603D01*
X67077D01*
Y7626D01*
X67054D01*
Y7649D01*
X67008D01*
Y7672D01*
X66985D01*
Y7695D01*
X66915D01*
Y7719D01*
D02*
G37*
G36*
X67449Y8717D02*
X67379D01*
Y7997D01*
X67403D01*
Y7974D01*
X67426D01*
Y7951D01*
X67449D01*
Y7928D01*
X67472D01*
Y7904D01*
X67496D01*
Y7881D01*
X67519D01*
Y7835D01*
X67542D01*
Y7812D01*
X67565D01*
Y7765D01*
X67589D01*
Y7719D01*
X67612D01*
Y7649D01*
X67635D01*
Y7556D01*
X67658D01*
Y7231D01*
X67635D01*
Y7138D01*
X67612D01*
Y7068D01*
X67589D01*
Y7022D01*
X67565D01*
Y6975D01*
X67542D01*
Y6952D01*
X67519D01*
Y6906D01*
X67496D01*
Y6882D01*
X67472D01*
Y6859D01*
X67449D01*
Y6836D01*
X67426D01*
Y6813D01*
X67403D01*
Y6790D01*
X67379D01*
Y6766D01*
X67356D01*
Y6743D01*
X67333D01*
Y6720D01*
X67286D01*
Y6697D01*
X67240D01*
Y6673D01*
X67217D01*
Y6650D01*
X67147D01*
Y6627D01*
X67077D01*
Y6604D01*
X66961D01*
Y6581D01*
X66729D01*
Y6604D01*
X66613D01*
Y6627D01*
X66566D01*
Y6650D01*
X66497D01*
Y6673D01*
X66450D01*
Y6697D01*
X66404D01*
Y6720D01*
X66381D01*
Y6743D01*
X66357D01*
Y6766D01*
X66311D01*
Y6790D01*
X66288D01*
Y6813D01*
X66264D01*
Y6836D01*
X66241D01*
Y6859D01*
X66218D01*
Y6882D01*
X66195D01*
Y6929D01*
X66172D01*
Y6952D01*
X66148D01*
Y6999D01*
X66125D01*
Y7045D01*
X66102D01*
Y7091D01*
X66079D01*
Y7185D01*
X66056D01*
Y7301D01*
X66032D01*
Y7486D01*
X66056D01*
Y7603D01*
X66079D01*
Y7695D01*
X66102D01*
Y7742D01*
X66125D01*
Y7788D01*
X66148D01*
Y7835D01*
X66172D01*
Y7858D01*
X66195D01*
Y7904D01*
X66218D01*
Y7928D01*
X66241D01*
Y7951D01*
X66264D01*
Y7974D01*
X66288D01*
Y7997D01*
X66311D01*
Y8021D01*
X66334D01*
Y8717D01*
X66241D01*
Y8694D01*
X66195D01*
Y8671D01*
X66148D01*
Y8648D01*
X66102D01*
Y8625D01*
X66079D01*
Y8601D01*
X66032D01*
Y8578D01*
X66009D01*
Y8555D01*
X65986D01*
Y8532D01*
X65939D01*
Y8508D01*
X65916D01*
Y8485D01*
X65893D01*
Y8462D01*
X65870D01*
Y8439D01*
X65847D01*
Y8416D01*
X65823D01*
Y8392D01*
X65800D01*
Y8369D01*
X65777D01*
Y8346D01*
X65754D01*
Y8323D01*
X65730D01*
Y8299D01*
X65707D01*
Y8253D01*
X65684D01*
Y8230D01*
X65661D01*
Y8183D01*
X65637D01*
Y8160D01*
X65614D01*
Y8113D01*
X65591D01*
Y8090D01*
X65568D01*
Y8044D01*
X65544D01*
Y7974D01*
X65521D01*
Y7928D01*
X65498D01*
Y7858D01*
X65475D01*
Y7812D01*
X65452D01*
Y7695D01*
X65428D01*
Y7579D01*
X65405D01*
Y7208D01*
X65428D01*
Y7091D01*
X65452D01*
Y6975D01*
X65475D01*
Y6929D01*
X65498D01*
Y6859D01*
X65521D01*
Y6813D01*
X65544D01*
Y6743D01*
X65568D01*
Y6697D01*
X65591D01*
Y6673D01*
X65614D01*
Y6627D01*
X65637D01*
Y6604D01*
X65661D01*
Y6557D01*
X65684D01*
Y6534D01*
X65707D01*
Y6511D01*
X65730D01*
Y6464D01*
X65754D01*
Y6441D01*
X65777D01*
Y6418D01*
X65800D01*
Y6395D01*
X65823D01*
Y6372D01*
X65847D01*
Y6348D01*
X65870D01*
Y6325D01*
X65893D01*
Y6302D01*
X65916D01*
Y6279D01*
X65939D01*
Y6255D01*
X65986D01*
Y6232D01*
X66009D01*
Y6209D01*
X66032D01*
Y6186D01*
X66079D01*
Y6163D01*
X66125D01*
Y6139D01*
X66172D01*
Y6116D01*
X66195D01*
Y6093D01*
X66241D01*
Y6070D01*
X66311D01*
Y6046D01*
X66357D01*
Y6023D01*
X66450D01*
Y6000D01*
X66520D01*
Y5977D01*
X66659D01*
Y5953D01*
X67054D01*
Y5977D01*
X67194D01*
Y6000D01*
X67263D01*
Y6023D01*
X67333D01*
Y6046D01*
X67403D01*
Y6070D01*
X67449D01*
Y6093D01*
X67496D01*
Y6116D01*
X67542D01*
Y6139D01*
X67589D01*
Y6163D01*
X67612D01*
Y6186D01*
X67658D01*
Y6209D01*
X67681D01*
Y6232D01*
X67728D01*
Y6255D01*
X67751D01*
Y6279D01*
X67774D01*
Y6302D01*
X67798D01*
Y6325D01*
X67821D01*
Y6348D01*
X67844D01*
Y6372D01*
X67867D01*
Y6395D01*
X67891D01*
Y6418D01*
X67914D01*
Y6441D01*
X67937D01*
Y6464D01*
X67960D01*
Y6488D01*
X67983D01*
Y6511D01*
X68007D01*
Y6557D01*
X68030D01*
Y6581D01*
X68053D01*
Y6604D01*
X68076D01*
Y6650D01*
X68099D01*
Y6697D01*
X68123D01*
Y6743D01*
X68146D01*
Y6790D01*
X68169D01*
Y6836D01*
X68192D01*
Y6906D01*
X68216D01*
Y6952D01*
X68239D01*
Y7045D01*
X68262D01*
Y7138D01*
X68285D01*
Y7649D01*
X68262D01*
Y7742D01*
X68239D01*
Y7835D01*
X68216D01*
Y7904D01*
X68192D01*
Y7951D01*
X68169D01*
Y7997D01*
X68146D01*
Y8044D01*
X68123D01*
Y8090D01*
X68099D01*
Y8137D01*
X68076D01*
Y8183D01*
X68053D01*
Y8207D01*
X68030D01*
Y8230D01*
X68007D01*
Y8276D01*
X67983D01*
Y8299D01*
X67960D01*
Y8323D01*
X67937D01*
Y8346D01*
X67914D01*
Y8392D01*
X67891D01*
Y8416D01*
X67844D01*
Y8439D01*
X67821D01*
Y8462D01*
X67798D01*
Y8485D01*
X67774D01*
Y8508D01*
X67751D01*
Y8532D01*
X67728D01*
Y8555D01*
X67681D01*
Y8578D01*
X67658D01*
Y8601D01*
X67612D01*
Y8625D01*
X67589D01*
Y8648D01*
X67542D01*
Y8671D01*
X67496D01*
Y8694D01*
X67449D01*
Y8717D01*
D02*
G37*
%LPD*%
D28*
X133898Y36047D02*
D03*
Y30331D02*
D03*
D48*
X143917Y35847D02*
D03*
Y30532D02*
D03*
X125138Y30532D02*
D03*
Y35847D02*
D03*
D54*
X177756Y126221D02*
D03*
Y131339D02*
D03*
X164370Y126378D02*
D03*
Y131496D02*
D03*
X163481Y37618D02*
D03*
Y32500D02*
D03*
D55*
X95492Y19508D02*
D03*
X90374D02*
D03*
X90374Y12524D02*
D03*
X95492D02*
D03*
X194334Y40354D02*
D03*
X189215D02*
D03*
X194334Y84646D02*
D03*
X189215D02*
D03*
D60*
X192185Y12313D02*
D03*
X153543Y65866D02*
D03*
Y45866D02*
D03*
Y55866D02*
D03*
Y75866D02*
D03*
Y85866D02*
D03*
X66929D02*
D03*
Y65866D02*
D03*
Y45866D02*
D03*
Y55866D02*
D03*
Y75866D02*
D03*
Y95866D02*
D03*
Y105866D02*
D03*
D61*
X182185Y12313D02*
D03*
D62*
X122736Y120276D02*
D03*
X80020D02*
D03*
D63*
X122736Y137992D02*
D03*
X80020D02*
D03*
D64*
X153543Y35866D02*
D03*
X66929D02*
D03*
D65*
X160433Y121801D02*
D03*
D66*
X184055D02*
D03*
D67*
X155236Y134006D02*
D03*
X189252D02*
D03*
D68*
X155236Y118947D02*
D03*
X189252D02*
D03*
M02*
