G04*
G04 #@! TF.GenerationSoftware,Altium Limited,Altium Designer,25.2.1 (25)*
G04*
G04 Layer_Color=8421504*
%FSLAX25Y25*%
%MOIN*%
G70*
G04*
G04 #@! TF.SameCoordinates,1EA917CA-CC95-4D02-909B-EEF24D63748B*
G04*
G04*
G04 #@! TF.FilePolarity,Positive*
G04*
G01*
G75*
%ADD12C,0.00500*%
%ADD15C,0.01000*%
%ADD17C,0.03937*%
%ADD18C,0.01575*%
%ADD19C,0.02362*%
%ADD20R,0.07500X0.09000*%
%ADD21R,0.05906X0.03543*%
%ADD22R,0.03543X0.05906*%
%ADD23R,0.03543X0.03543*%
%ADD24R,0.09646X0.08465*%
%ADD25R,0.00906X0.03937*%
%ADD26R,0.03937X0.03543*%
%ADD27R,0.03347X0.02756*%
%ADD28R,0.03812X0.03963*%
%ADD29R,0.03543X0.03937*%
%ADD30R,0.03937X0.07874*%
%ADD31R,0.01063X0.03937*%
%ADD32R,0.02047X0.03937*%
%ADD33R,0.01181X0.03898*%
%ADD34R,0.12598X0.06299*%
%ADD35R,0.03740X0.03347*%
%ADD36R,0.03347X0.03740*%
G04:AMPARAMS|DCode=37|XSize=21.65mil|YSize=31.5mil|CornerRadius=1.95mil|HoleSize=0mil|Usage=FLASHONLY|Rotation=0.000|XOffset=0mil|YOffset=0mil|HoleType=Round|Shape=RoundedRectangle|*
%AMROUNDEDRECTD37*
21,1,0.02165,0.02760,0,0,0.0*
21,1,0.01776,0.03150,0,0,0.0*
1,1,0.00390,0.00888,-0.01380*
1,1,0.00390,-0.00888,-0.01380*
1,1,0.00390,-0.00888,0.01380*
1,1,0.00390,0.00888,0.01380*
%
%ADD37ROUNDEDRECTD37*%
%ADD38R,0.09449X0.03937*%
%ADD39R,0.09449X0.12992*%
%ADD40R,0.03963X0.03812*%
%ADD41R,0.06299X0.12598*%
G36*
X428659Y534274D02*
Y533498D01*
X428357Y531975D01*
X427763Y530541D01*
X426900Y529251D01*
X425803Y528153D01*
X424512Y527291D01*
X423078Y526697D01*
X421556Y526394D01*
X420004D01*
X418484Y526696D01*
X417052Y527290D01*
X415763Y528151D01*
X414666Y529247D01*
X413805Y530536D01*
X413212Y531968D01*
X412909Y533489D01*
Y534264D01*
Y536244D01*
X428659D01*
Y534274D01*
D02*
G37*
G36*
X381409D02*
Y533498D01*
X381106Y531975D01*
X380512Y530541D01*
X379650Y529251D01*
X378553Y528153D01*
X377262Y527291D01*
X375828Y526697D01*
X374306Y526394D01*
X372754D01*
X371234Y526696D01*
X369801Y527290D01*
X368513Y528151D01*
X367416Y529247D01*
X366555Y530536D01*
X365962Y531968D01*
X365659Y533489D01*
Y534264D01*
Y536244D01*
X381409D01*
Y534274D01*
D02*
G37*
G36*
X334169D02*
Y533498D01*
X333867Y531975D01*
X333273Y530541D01*
X332410Y529251D01*
X331313Y528153D01*
X330022Y527291D01*
X328588Y526697D01*
X327065Y526394D01*
X325514D01*
X323994Y526696D01*
X322562Y527290D01*
X321272Y528151D01*
X320176Y529247D01*
X319315Y530536D01*
X318722Y531968D01*
X318419Y533489D01*
Y534264D01*
Y536244D01*
X334169D01*
Y534274D01*
D02*
G37*
G36*
X286929D02*
Y533498D01*
X286627Y531975D01*
X286033Y530541D01*
X285170Y529251D01*
X284073Y528153D01*
X282782Y527291D01*
X281348Y526697D01*
X279825Y526394D01*
X278274D01*
X276754Y526696D01*
X275322Y527290D01*
X274032Y528151D01*
X272936Y529247D01*
X272075Y530536D01*
X271482Y531968D01*
X271179Y533489D01*
Y534264D01*
Y536244D01*
X286929D01*
Y534274D01*
D02*
G37*
G36*
X239679D02*
Y533498D01*
X239376Y531975D01*
X238783Y530541D01*
X237920Y529251D01*
X236823Y528153D01*
X235532Y527291D01*
X234098Y526697D01*
X232575Y526394D01*
X231024D01*
X229504Y526696D01*
X228071Y527290D01*
X226782Y528151D01*
X225686Y529247D01*
X224825Y530536D01*
X224232Y531968D01*
X223929Y533489D01*
Y534264D01*
Y536244D01*
X239679D01*
Y534274D01*
D02*
G37*
G36*
X192439D02*
Y533498D01*
X192137Y531975D01*
X191542Y530541D01*
X190680Y529251D01*
X189583Y528153D01*
X188292Y527291D01*
X186858Y526697D01*
X185336Y526394D01*
X183784D01*
X182264Y526696D01*
X180832Y527290D01*
X179543Y528151D01*
X178446Y529247D01*
X177585Y530536D01*
X176992Y531968D01*
X176689Y533489D01*
Y534264D01*
Y536244D01*
X192439D01*
Y534274D01*
D02*
G37*
G36*
X145189D02*
Y533498D01*
X144887Y531975D01*
X144292Y530541D01*
X143430Y529251D01*
X142333Y528153D01*
X141042Y527291D01*
X139608Y526697D01*
X138085Y526394D01*
X136534D01*
X135014Y526696D01*
X133581Y527290D01*
X132292Y528151D01*
X131196Y529247D01*
X130335Y530536D01*
X129742Y531968D01*
X129439Y533489D01*
Y534264D01*
Y536244D01*
X145189D01*
Y534274D01*
D02*
G37*
G36*
X97949D02*
Y533498D01*
X97646Y531975D01*
X97053Y530541D01*
X96190Y529251D01*
X95093Y528153D01*
X93802Y527291D01*
X92368Y526697D01*
X90846Y526394D01*
X89294D01*
X87774Y526696D01*
X86342Y527290D01*
X85053Y528151D01*
X83956Y529247D01*
X83095Y530536D01*
X82502Y531968D01*
X82199Y533489D01*
Y534264D01*
Y536244D01*
X97949D01*
Y534274D01*
D02*
G37*
G36*
X50709D02*
Y533498D01*
X50406Y531975D01*
X49812Y530541D01*
X48950Y529251D01*
X47853Y528153D01*
X46562Y527291D01*
X45128Y526697D01*
X43606Y526394D01*
X42054D01*
X40534Y526696D01*
X39101Y527290D01*
X37813Y528151D01*
X36716Y529247D01*
X35855Y530536D01*
X35262Y531968D01*
X34959Y533489D01*
Y534264D01*
Y536244D01*
X50709D01*
Y534274D01*
D02*
G37*
G36*
X3459D02*
Y533498D01*
X3156Y531975D01*
X2562Y530541D01*
X1700Y529251D01*
X603Y528153D01*
X-688Y527291D01*
X-2122Y526697D01*
X-3644Y526394D01*
X-5196D01*
X-6716Y526696D01*
X-8149Y527290D01*
X-9437Y528151D01*
X-10534Y529247D01*
X-11395Y530536D01*
X-11988Y531968D01*
X-12291Y533489D01*
Y534264D01*
Y536244D01*
X3459D01*
Y534274D01*
D02*
G37*
G36*
X-43781D02*
Y533498D01*
X-44083Y531975D01*
X-44677Y530541D01*
X-45540Y529251D01*
X-46637Y528153D01*
X-47928Y527291D01*
X-49362Y526697D01*
X-50884Y526394D01*
X-52436D01*
X-53956Y526696D01*
X-55388Y527290D01*
X-56678Y528151D01*
X-57774Y529247D01*
X-58635Y530536D01*
X-59228Y531968D01*
X-59531Y533489D01*
Y534264D01*
Y536244D01*
X-43781D01*
Y534274D01*
D02*
G37*
G36*
X-91031D02*
Y533498D01*
X-91334Y531975D01*
X-91927Y530541D01*
X-92790Y529251D01*
X-93887Y528153D01*
X-95178Y527291D01*
X-96612Y526697D01*
X-98134Y526394D01*
X-99686D01*
X-101206Y526696D01*
X-102638Y527290D01*
X-103928Y528151D01*
X-105024Y529247D01*
X-105885Y530536D01*
X-106478Y531968D01*
X-106781Y533489D01*
Y534264D01*
Y536244D01*
X-91031D01*
Y534274D01*
D02*
G37*
G36*
X-138271D02*
Y533498D01*
X-138574Y531975D01*
X-139167Y530541D01*
X-140030Y529251D01*
X-141127Y528153D01*
X-142418Y527291D01*
X-143852Y526697D01*
X-145375Y526394D01*
X-146926D01*
X-148446Y526696D01*
X-149879Y527290D01*
X-151168Y528151D01*
X-152264Y529247D01*
X-153125Y530536D01*
X-153718Y531968D01*
X-154021Y533489D01*
Y534264D01*
Y536244D01*
X-138271D01*
Y534274D01*
D02*
G37*
G36*
X-185511D02*
Y533498D01*
X-185813Y531975D01*
X-186407Y530541D01*
X-187270Y529251D01*
X-188367Y528153D01*
X-189658Y527291D01*
X-191092Y526697D01*
X-192614Y526394D01*
X-194166D01*
X-195686Y526696D01*
X-197118Y527290D01*
X-198407Y528151D01*
X-199504Y529247D01*
X-200365Y530536D01*
X-200958Y531968D01*
X-201261Y533489D01*
Y534264D01*
Y536244D01*
X-185511D01*
Y534274D01*
D02*
G37*
G36*
X-232761D02*
Y533498D01*
X-233064Y531975D01*
X-233658Y530541D01*
X-234520Y529251D01*
X-235617Y528153D01*
X-236908Y527291D01*
X-238342Y526697D01*
X-239864Y526394D01*
X-241416D01*
X-242936Y526696D01*
X-244369Y527290D01*
X-245657Y528151D01*
X-246754Y529247D01*
X-247615Y530536D01*
X-248208Y531968D01*
X-248511Y533489D01*
Y534264D01*
Y536244D01*
X-232761D01*
Y534274D01*
D02*
G37*
G36*
X185901Y71267D02*
X184964D01*
Y73039D01*
X185901D01*
Y71267D01*
D02*
G37*
G36*
X183933D02*
X182996D01*
Y73039D01*
X183933D01*
Y71267D01*
D02*
G37*
G36*
X181964D02*
X181027D01*
Y73039D01*
X181964D01*
Y71267D01*
D02*
G37*
G36*
X179996D02*
X179059D01*
Y73039D01*
X179996D01*
Y71267D01*
D02*
G37*
G36*
X186958Y69076D02*
X185187D01*
Y70013D01*
X186958D01*
Y69076D01*
D02*
G37*
G36*
X179773D02*
X178001D01*
Y70013D01*
X179773D01*
Y69076D01*
D02*
G37*
G36*
X186958Y67108D02*
X185187D01*
Y68045D01*
X186958D01*
Y67108D01*
D02*
G37*
G36*
X179773D02*
X178001D01*
Y68045D01*
X179773D01*
Y67108D01*
D02*
G37*
G36*
X186958Y65139D02*
X185187D01*
Y66076D01*
X186958D01*
Y65139D01*
D02*
G37*
G36*
X179773D02*
X178001D01*
Y66076D01*
X179773D01*
Y65139D01*
D02*
G37*
G36*
X185901Y62114D02*
X184964D01*
Y63885D01*
X185901D01*
Y62114D01*
D02*
G37*
G36*
X183933D02*
X182996D01*
Y63885D01*
X183933D01*
Y62114D01*
D02*
G37*
G36*
X181964D02*
X181027D01*
Y63885D01*
X181964D01*
Y62114D01*
D02*
G37*
G36*
X179996D02*
X179059D01*
Y63885D01*
X179996D01*
Y62114D01*
D02*
G37*
G36*
X423078Y-438459D02*
X424512Y-439053D01*
X425803Y-439915D01*
X426900Y-441013D01*
X427763Y-442303D01*
X428357Y-443737D01*
X428659Y-445260D01*
Y-446036D01*
Y-448006D01*
X412909D01*
Y-446026D01*
Y-445251D01*
X413212Y-443730D01*
X413805Y-442298D01*
X414666Y-441009D01*
X415763Y-439913D01*
X417052Y-439052D01*
X418484Y-438458D01*
X420004Y-438156D01*
X421556D01*
X423078Y-438459D01*
D02*
G37*
G36*
X375828D02*
X377262Y-439053D01*
X378553Y-439915D01*
X379650Y-441013D01*
X380512Y-442303D01*
X381106Y-443737D01*
X381409Y-445260D01*
Y-446036D01*
Y-448006D01*
X365659D01*
Y-446026D01*
Y-445251D01*
X365962Y-443730D01*
X366555Y-442298D01*
X367416Y-441009D01*
X368513Y-439913D01*
X369801Y-439052D01*
X371234Y-438458D01*
X372754Y-438156D01*
X374306D01*
X375828Y-438459D01*
D02*
G37*
G36*
X328588D02*
X330022Y-439053D01*
X331313Y-439915D01*
X332410Y-441013D01*
X333273Y-442303D01*
X333867Y-443737D01*
X334169Y-445260D01*
Y-446036D01*
Y-448006D01*
X318419D01*
Y-446026D01*
Y-445251D01*
X318722Y-443730D01*
X319315Y-442298D01*
X320176Y-441009D01*
X321272Y-439913D01*
X322562Y-439052D01*
X323994Y-438458D01*
X325514Y-438156D01*
X327065D01*
X328588Y-438459D01*
D02*
G37*
G36*
X281348D02*
X282782Y-439053D01*
X284073Y-439915D01*
X285170Y-441013D01*
X286033Y-442303D01*
X286627Y-443737D01*
X286929Y-445260D01*
Y-446036D01*
Y-448006D01*
X271179D01*
Y-446026D01*
Y-445251D01*
X271482Y-443730D01*
X272075Y-442298D01*
X272936Y-441009D01*
X274032Y-439913D01*
X275322Y-439052D01*
X276754Y-438458D01*
X278274Y-438156D01*
X279825D01*
X281348Y-438459D01*
D02*
G37*
G36*
X234098D02*
X235532Y-439053D01*
X236823Y-439915D01*
X237920Y-441013D01*
X238783Y-442303D01*
X239376Y-443737D01*
X239679Y-445260D01*
Y-446036D01*
Y-448006D01*
X223929D01*
Y-446026D01*
Y-445251D01*
X224232Y-443730D01*
X224825Y-442298D01*
X225686Y-441009D01*
X226782Y-439913D01*
X228071Y-439052D01*
X229504Y-438458D01*
X231024Y-438156D01*
X232575D01*
X234098Y-438459D01*
D02*
G37*
G36*
X186858D02*
X188292Y-439053D01*
X189583Y-439915D01*
X190680Y-441013D01*
X191542Y-442303D01*
X192137Y-443737D01*
X192439Y-445260D01*
Y-446036D01*
Y-448006D01*
X176689D01*
Y-446026D01*
Y-445251D01*
X176992Y-443730D01*
X177585Y-442298D01*
X178446Y-441009D01*
X179543Y-439913D01*
X180832Y-439052D01*
X182264Y-438458D01*
X183784Y-438156D01*
X185336D01*
X186858Y-438459D01*
D02*
G37*
G36*
X139608D02*
X141042Y-439053D01*
X142333Y-439915D01*
X143430Y-441013D01*
X144292Y-442303D01*
X144887Y-443737D01*
X145189Y-445260D01*
Y-446036D01*
Y-448006D01*
X129439D01*
Y-446026D01*
Y-445251D01*
X129742Y-443730D01*
X130335Y-442298D01*
X131196Y-441009D01*
X132292Y-439913D01*
X133581Y-439052D01*
X135014Y-438458D01*
X136534Y-438156D01*
X138085D01*
X139608Y-438459D01*
D02*
G37*
G36*
X92368D02*
X93802Y-439053D01*
X95093Y-439915D01*
X96190Y-441013D01*
X97053Y-442303D01*
X97646Y-443737D01*
X97949Y-445260D01*
Y-446036D01*
Y-448006D01*
X82199D01*
Y-446026D01*
Y-445251D01*
X82502Y-443730D01*
X83095Y-442298D01*
X83956Y-441009D01*
X85053Y-439913D01*
X86342Y-439052D01*
X87774Y-438458D01*
X89294Y-438156D01*
X90846D01*
X92368Y-438459D01*
D02*
G37*
G36*
X45128D02*
X46562Y-439053D01*
X47853Y-439915D01*
X48950Y-441013D01*
X49812Y-442303D01*
X50406Y-443737D01*
X50709Y-445260D01*
Y-446036D01*
Y-448006D01*
X34959D01*
Y-446026D01*
Y-445251D01*
X35262Y-443730D01*
X35855Y-442298D01*
X36716Y-441009D01*
X37813Y-439913D01*
X39101Y-439052D01*
X40534Y-438458D01*
X42054Y-438156D01*
X43606D01*
X45128Y-438459D01*
D02*
G37*
G36*
X-2122D02*
X-688Y-439053D01*
X603Y-439915D01*
X1700Y-441013D01*
X2562Y-442303D01*
X3156Y-443737D01*
X3459Y-445260D01*
Y-446036D01*
Y-448006D01*
X-12291D01*
Y-446026D01*
Y-445251D01*
X-11988Y-443730D01*
X-11395Y-442298D01*
X-10534Y-441009D01*
X-9437Y-439913D01*
X-8149Y-439052D01*
X-6716Y-438458D01*
X-5196Y-438156D01*
X-3644D01*
X-2122Y-438459D01*
D02*
G37*
G36*
X-49362D02*
X-47928Y-439053D01*
X-46637Y-439915D01*
X-45540Y-441013D01*
X-44677Y-442303D01*
X-44083Y-443737D01*
X-43781Y-445260D01*
Y-446036D01*
Y-448006D01*
X-59531D01*
Y-446026D01*
Y-445251D01*
X-59228Y-443730D01*
X-58635Y-442298D01*
X-57774Y-441009D01*
X-56678Y-439913D01*
X-55388Y-439052D01*
X-53956Y-438458D01*
X-52436Y-438156D01*
X-50884D01*
X-49362Y-438459D01*
D02*
G37*
G36*
X-96612D02*
X-95178Y-439053D01*
X-93887Y-439915D01*
X-92790Y-441013D01*
X-91927Y-442303D01*
X-91334Y-443737D01*
X-91031Y-445260D01*
Y-446036D01*
Y-448006D01*
X-106781D01*
Y-446026D01*
Y-445251D01*
X-106478Y-443730D01*
X-105885Y-442298D01*
X-105024Y-441009D01*
X-103928Y-439913D01*
X-102638Y-439052D01*
X-101206Y-438458D01*
X-99686Y-438156D01*
X-98134D01*
X-96612Y-438459D01*
D02*
G37*
G36*
X-143852D02*
X-142418Y-439053D01*
X-141127Y-439915D01*
X-140030Y-441013D01*
X-139167Y-442303D01*
X-138574Y-443737D01*
X-138271Y-445260D01*
Y-446036D01*
Y-448006D01*
X-154021D01*
Y-446026D01*
Y-445251D01*
X-153718Y-443730D01*
X-153125Y-442298D01*
X-152264Y-441009D01*
X-151168Y-439913D01*
X-149879Y-439052D01*
X-148446Y-438458D01*
X-146926Y-438156D01*
X-145375D01*
X-143852Y-438459D01*
D02*
G37*
G36*
X-191092D02*
X-189658Y-439053D01*
X-188367Y-439915D01*
X-187270Y-441013D01*
X-186407Y-442303D01*
X-185813Y-443737D01*
X-185511Y-445260D01*
Y-446036D01*
Y-448006D01*
X-201261D01*
Y-446026D01*
Y-445251D01*
X-200958Y-443730D01*
X-200365Y-442298D01*
X-199504Y-441009D01*
X-198407Y-439913D01*
X-197118Y-439052D01*
X-195686Y-438458D01*
X-194166Y-438156D01*
X-192614D01*
X-191092Y-438459D01*
D02*
G37*
G36*
X-238342D02*
X-236908Y-439053D01*
X-235617Y-439915D01*
X-234520Y-441013D01*
X-233658Y-442303D01*
X-233064Y-443737D01*
X-232761Y-445260D01*
Y-446036D01*
Y-448006D01*
X-248511D01*
Y-446026D01*
Y-445251D01*
X-248208Y-443730D01*
X-247615Y-442298D01*
X-246754Y-441009D01*
X-245657Y-439913D01*
X-244369Y-439052D01*
X-242936Y-438458D01*
X-241416Y-438156D01*
X-239864D01*
X-238342Y-438459D01*
D02*
G37*
D12*
X-272127Y595306D02*
G03*
X-280000Y587432I0J-7874D01*
G01*
Y-499182D02*
G03*
X-272127Y-507056I7874J0D01*
G01*
X432598Y587432D02*
G03*
X424724Y595306I-7874J0D01*
G01*
Y-507056D02*
G03*
X432598Y-499182I0J7874D01*
G01*
X-137475Y564598D02*
G03*
X-122514Y549637I14961J0D01*
G01*
X-122520D02*
G03*
X-107560Y564598I0J14961D01*
G01*
X51502D02*
G03*
X66462Y549637I14961J0D01*
G01*
X66456D02*
G03*
X81417Y564598I0J14961D01*
G01*
X193234D02*
G03*
X208194Y549637I14961J0D01*
G01*
X208189D02*
G03*
X223149Y564598I0J14961D01*
G01*
X382210D02*
G03*
X397171Y549637I14961J0D01*
G01*
X397165D02*
G03*
X412125Y564598I0J14961D01*
G01*
X270393Y-476347D02*
G03*
X255433Y-461387I-14961J0D01*
G01*
X255439D02*
G03*
X240478Y-476347I0J-14961D01*
G01*
X-122514Y-461387D02*
G03*
X-137475Y-476347I0J-14961D01*
G01*
X-107560D02*
G03*
X-122520Y-461387I-14961J0D01*
G01*
X66462D02*
G03*
X51502Y-476347I0J-14961D01*
G01*
X81417D02*
G03*
X66456Y-461387I-14961J0D01*
G01*
X-280000Y595306D02*
Y618928D01*
X-280001Y587432D02*
X-280000Y-499182D01*
X-291812Y20503D02*
X-291811Y-507056D01*
X-291812Y67747D02*
X-291811Y595306D01*
X-280000Y607117D02*
X-268189Y614991D01*
X-280000Y607117D02*
X-268189Y599243D01*
X-291811Y-507056D02*
X-283938Y-495245D01*
X-291811Y595306D02*
X-283938Y583495D01*
X-303623Y-507056D02*
X-280000D01*
X-299686Y-495245D02*
X-291811Y-507056D01*
X-299686Y583495D02*
X-291811Y595306D01*
X-272127Y-507056D02*
X-137481D01*
X270393D02*
X424724D01*
X432598Y595306D02*
Y618928D01*
X432597Y587432D02*
X432598Y-499182D01*
X420787Y599243D02*
X432598Y607117D01*
X420787Y614991D02*
X432598Y607117D01*
X-137481Y564598D02*
Y595306D01*
X-107560Y564598D02*
Y595306D01*
X51496Y564598D02*
Y595306D01*
X81417Y564598D02*
Y595306D01*
X193228Y564598D02*
Y595306D01*
X223149Y564598D02*
Y595306D01*
X382204Y564598D02*
Y595306D01*
X412125Y564598D02*
Y595306D01*
X424724D01*
X223149D02*
X382204D01*
X81417D02*
X193228D01*
X-107560D02*
X51496D01*
X-272127D02*
X-137481D01*
X81417Y-507056D02*
X240478D01*
X270393D02*
Y-476347D01*
X240472Y-507056D02*
Y-476347D01*
X-137481Y-507056D02*
Y-476347D01*
X-107560Y-507056D02*
Y-476347D01*
X51496Y-507056D02*
Y-476347D01*
X81417Y-507056D02*
Y-476347D01*
X-107560Y-507056D02*
X51496D01*
X90078Y607117D02*
X432598Y607117D01*
X-280000Y607117D02*
X42834D01*
X-303623Y595306D02*
X-280000D01*
D15*
X48266Y604180D02*
X50598D01*
X49432D01*
Y611178D01*
X48266Y610012D01*
X54097D02*
X55263Y611178D01*
X57596D01*
X58762Y610012D01*
Y608846D01*
X57596Y607679D01*
X58762Y606513D01*
Y605347D01*
X57596Y604180D01*
X55263D01*
X54097Y605347D01*
Y606513D01*
X55263Y607679D01*
X54097Y608846D01*
Y610012D01*
X55263Y607679D02*
X57596D01*
X61095Y604180D02*
X63427D01*
X62261D01*
Y611178D01*
X61095Y610012D01*
X73924Y604180D02*
Y611178D01*
X76257Y608846D01*
X78589Y611178D01*
Y604180D01*
X80922D02*
Y611178D01*
X83254Y608846D01*
X85587Y611178D01*
Y604180D01*
X-288875Y29229D02*
Y24564D01*
X-293540Y29229D01*
X-294706D01*
X-295872Y28063D01*
Y25730D01*
X-294706Y24564D01*
Y31562D02*
X-295872Y32728D01*
Y35061D01*
X-294706Y36227D01*
X-293540D01*
X-292373Y35061D01*
X-291207Y36227D01*
X-290041D01*
X-288875Y35061D01*
Y32728D01*
X-290041Y31562D01*
X-291207D01*
X-292373Y32728D01*
X-293540Y31562D01*
X-294706D01*
X-292373Y32728D02*
Y35061D01*
X-294706Y38559D02*
X-295872Y39726D01*
Y42058D01*
X-294706Y43225D01*
X-290041D01*
X-288875Y42058D01*
Y39726D01*
X-290041Y38559D01*
X-294706D01*
X-288875Y52555D02*
X-295872D01*
X-293540Y54887D01*
X-295872Y57220D01*
X-288875D01*
Y59553D02*
X-295872D01*
X-293540Y61885D01*
X-295872Y64218D01*
X-288875D01*
D17*
X-198207Y-541515D02*
X-202471Y-537251D01*
X-210998D01*
X-215262Y-541515D01*
Y-545778D01*
X-210998Y-550042D01*
X-202471D01*
X-198207Y-554306D01*
Y-558569D01*
X-202471Y-562833D01*
X-210998D01*
X-215262Y-558569D01*
X-189680Y-537251D02*
X-172625D01*
X-181152D01*
Y-562833D01*
X-147043Y-537251D02*
X-164097D01*
Y-562833D01*
X-147043D01*
X-164097Y-550042D02*
X-155570D01*
X-138515Y-562833D02*
Y-537251D01*
X-121460Y-562833D01*
Y-537251D01*
X-95878Y-541515D02*
X-100142Y-537251D01*
X-108669D01*
X-112933Y-541515D01*
Y-558569D01*
X-108669Y-562833D01*
X-100142D01*
X-95878Y-558569D01*
X-87350Y-537251D02*
X-78823D01*
X-83087D01*
Y-562833D01*
X-87350D01*
X-78823D01*
X-66032Y-537251D02*
Y-562833D01*
X-48977D01*
X-14867Y-537251D02*
X2187D01*
X-6340D01*
Y-562833D01*
X10715Y-537251D02*
Y-562833D01*
Y-550042D01*
X27770D01*
Y-537251D01*
Y-562833D01*
X36297Y-537251D02*
X44825D01*
X40561D01*
Y-562833D01*
X36297D01*
X44825D01*
X74671Y-541515D02*
X70407Y-537251D01*
X61879D01*
X57616Y-541515D01*
Y-558569D01*
X61879Y-562833D01*
X70407D01*
X74671Y-558569D01*
X83198Y-537251D02*
Y-562833D01*
Y-554306D01*
X100253Y-537251D01*
X87462Y-550042D01*
X100253Y-562833D01*
X108780D02*
Y-537251D01*
X125835Y-562833D01*
Y-537251D01*
X151418D02*
X134363D01*
Y-562833D01*
X151418D01*
X134363Y-550042D02*
X142890D01*
X177000Y-541515D02*
X172736Y-537251D01*
X164209D01*
X159945Y-541515D01*
Y-545778D01*
X164209Y-550042D01*
X172736D01*
X177000Y-554306D01*
Y-558569D01*
X172736Y-562833D01*
X164209D01*
X159945Y-558569D01*
X202582Y-541515D02*
X198318Y-537251D01*
X189791D01*
X185527Y-541515D01*
Y-545778D01*
X189791Y-550042D01*
X198318D01*
X202582Y-554306D01*
Y-558569D01*
X198318Y-562833D01*
X189791D01*
X185527Y-558569D01*
X236692Y-550042D02*
X253747D01*
X297422Y-543956D02*
X301685Y-539692D01*
X310213D01*
X314476Y-543956D01*
Y-561011D01*
X310213Y-565274D01*
X301685D01*
X297422Y-561011D01*
Y-543956D01*
X323004Y-565274D02*
Y-561011D01*
X327268D01*
Y-565274D01*
X323004D01*
X344322D02*
X352850D01*
X348586D01*
Y-539692D01*
X344322Y-543956D01*
X391223Y-565274D02*
Y-539692D01*
X399751Y-548220D01*
X408278Y-539692D01*
Y-565274D01*
X416805D02*
Y-539692D01*
X425333Y-548220D01*
X433860Y-539692D01*
Y-565274D01*
D18*
X-276003Y-378133D02*
X-270755D01*
X-273379D01*
Y-386004D01*
X-268131Y-380757D02*
Y-386004D01*
Y-383381D01*
X-266819Y-382069D01*
X-265507Y-380757D01*
X-264195D01*
X-258948Y-386004D02*
X-256324D01*
X-255012Y-384693D01*
Y-382069D01*
X-256324Y-380757D01*
X-258948D01*
X-260260Y-382069D01*
Y-384693D01*
X-258948Y-386004D01*
X-251076Y-379445D02*
Y-380757D01*
X-252388D01*
X-249764D01*
X-251076D01*
Y-384693D01*
X-249764Y-386004D01*
X-244517Y-379445D02*
Y-380757D01*
X-245829D01*
X-243205D01*
X-244517D01*
Y-384693D01*
X-243205Y-386004D01*
X-239269D02*
X-236645D01*
X-237957D01*
Y-380757D01*
X-239269D01*
X-232710Y-386004D02*
Y-380757D01*
X-228774D01*
X-227462Y-382069D01*
Y-386004D01*
X-220902D02*
X-223526D01*
X-224838Y-384693D01*
Y-382069D01*
X-223526Y-380757D01*
X-220902D01*
X-219590Y-382069D01*
Y-383381D01*
X-224838D01*
X-215655Y-379445D02*
Y-380757D01*
X-216967D01*
X-214343D01*
X-215655D01*
Y-384693D01*
X-214343Y-386004D01*
X-209095Y-379445D02*
Y-380757D01*
X-210407D01*
X-207783D01*
X-209095D01*
Y-384693D01*
X-207783Y-386004D01*
X-199912D02*
X-202536D01*
X-203847Y-384693D01*
Y-382069D01*
X-202536Y-380757D01*
X-199912D01*
X-198600Y-382069D01*
Y-383381D01*
X-203847D01*
X-188104Y-382069D02*
X-182857D01*
X-172362Y-386004D02*
Y-378133D01*
X-169738Y-380757D01*
X-167114Y-378133D01*
Y-386004D01*
X-163178D02*
X-160554D01*
X-159242Y-384693D01*
Y-382069D01*
X-160554Y-380757D01*
X-163178D01*
X-164490Y-382069D01*
Y-384693D01*
X-163178Y-386004D01*
X-151371Y-378133D02*
Y-386004D01*
X-155307D01*
X-156618Y-384693D01*
Y-382069D01*
X-155307Y-380757D01*
X-151371D01*
X-148747D02*
Y-384693D01*
X-147435Y-386004D01*
X-143499D01*
Y-380757D01*
X-140876Y-386004D02*
X-138252D01*
X-139564D01*
Y-378133D01*
X-140876D01*
X-130380Y-386004D02*
X-133004D01*
X-134316Y-384693D01*
Y-382069D01*
X-133004Y-380757D01*
X-130380D01*
X-129068Y-382069D01*
Y-383381D01*
X-134316D01*
X-244517Y-391358D02*
Y-399230D01*
X-248452D01*
X-249764Y-397918D01*
Y-395294D01*
X-248452Y-393982D01*
X-244517D01*
X-237957Y-399230D02*
X-240581D01*
X-241893Y-397918D01*
Y-395294D01*
X-240581Y-393982D01*
X-237957D01*
X-236645Y-395294D01*
Y-396606D01*
X-241893D01*
X-224838Y-392670D02*
Y-393982D01*
X-226150D01*
X-223526D01*
X-224838D01*
Y-397918D01*
X-223526Y-399230D01*
X-218279Y-391358D02*
X-219590Y-392670D01*
Y-397918D01*
X-218279Y-399230D01*
X-215655D01*
X-214343Y-397918D01*
Y-392670D01*
X-215655Y-391358D01*
X-218279D01*
X-219590Y-393982D02*
X-218279Y-395294D01*
X-215655D01*
X-214343Y-393982D01*
X-211719Y-399230D02*
X-209095D01*
X-210407D01*
Y-391358D01*
X-211719D01*
X-203847D02*
X-205159Y-392670D01*
Y-397918D01*
X-203847Y-399230D01*
X-201224D01*
X-199912Y-397918D01*
Y-392670D01*
X-201224Y-391358D01*
X-203847D01*
X-205159Y-393982D02*
X-203847Y-395294D01*
X-201224D01*
X-199912Y-393982D01*
X-197288Y-399230D02*
Y-393982D01*
X-195976D01*
X-194664Y-395294D01*
Y-399230D01*
Y-395294D01*
X-193352Y-393982D01*
X-192040Y-395294D01*
Y-399230D01*
X-188104Y-391358D02*
X-189416Y-392670D01*
Y-397918D01*
X-188104Y-399230D01*
X-185481D01*
X-184169Y-397918D01*
Y-392670D01*
X-185481Y-391358D01*
X-188104D01*
X-189416Y-393982D02*
X-188104Y-395294D01*
X-185481D01*
X-184169Y-393982D01*
X-180233Y-392670D02*
Y-393982D01*
X-181545D01*
X-178921D01*
X-180233D01*
Y-397918D01*
X-178921Y-399230D01*
X-174985Y-393982D02*
Y-399230D01*
Y-396606D01*
X-173673Y-395294D01*
X-172362Y-393982D01*
X-171050D01*
X-167114Y-399230D02*
X-164490D01*
X-165802D01*
Y-393982D01*
X-167114D01*
X-156618Y-399230D02*
X-159242D01*
X-160554Y-397918D01*
Y-395294D01*
X-159242Y-393982D01*
X-156618D01*
X-155307Y-395294D01*
Y-396606D01*
X-160554D01*
X-70853Y-477360D02*
Y-469488D01*
X-66917D01*
X-65605Y-470800D01*
Y-473424D01*
X-66917Y-474736D01*
X-70853D01*
X-57734Y-470800D02*
X-59046Y-469488D01*
X-61670D01*
X-62982Y-470800D01*
Y-476048D01*
X-61670Y-477360D01*
X-59046D01*
X-57734Y-476048D01*
X-55110Y-469488D02*
Y-477360D01*
X-51174D01*
X-49863Y-476048D01*
Y-474736D01*
X-51174Y-473424D01*
X-55110D01*
X-51174D01*
X-49863Y-472112D01*
Y-470800D01*
X-51174Y-469488D01*
X-55110D01*
X-39367Y-477360D02*
Y-469488D01*
X-35432D01*
X-34120Y-470800D01*
Y-473424D01*
X-35432Y-474736D01*
X-39367D01*
X-36743D02*
X-34120Y-477360D01*
X-27560D02*
X-30184D01*
X-31496Y-476048D01*
Y-473424D01*
X-30184Y-472112D01*
X-27560D01*
X-26248Y-473424D01*
Y-474736D01*
X-31496D01*
X-23624Y-472112D02*
X-21000Y-477360D01*
X-18377Y-472112D01*
X-15753Y-477360D02*
X-13129D01*
X-14441D01*
Y-472112D01*
X-15753D01*
X-9193Y-477360D02*
X-5257D01*
X-3946Y-476048D01*
X-5257Y-474736D01*
X-7881D01*
X-9193Y-473424D01*
X-7881Y-472112D01*
X-3946D01*
X-1322Y-477360D02*
X1302D01*
X-10D01*
Y-472112D01*
X-1322D01*
X6550Y-477360D02*
X9174D01*
X10486Y-476048D01*
Y-473424D01*
X9174Y-472112D01*
X6550D01*
X5238Y-473424D01*
Y-476048D01*
X6550Y-477360D01*
X13109D02*
Y-472112D01*
X17045D01*
X18357Y-473424D01*
Y-477360D01*
X-27514Y-495617D02*
X-24890D01*
X-26202D01*
Y-487746D01*
X-27514Y-489058D01*
D19*
X328653Y-471628D02*
X339149D01*
X333901D01*
Y-487371D01*
X352268Y-471628D02*
X347020D01*
X344396Y-474252D01*
Y-484747D01*
X347020Y-487371D01*
X352268D01*
X354891Y-484747D01*
Y-474252D01*
X352268Y-471628D01*
X360139Y-487371D02*
Y-471628D01*
X368011D01*
X370635Y-474252D01*
Y-479499D01*
X368011Y-482123D01*
X360139D01*
D20*
X164485Y12524D02*
D03*
X154985D02*
D03*
D21*
X75984Y33189D02*
D03*
Y38189D02*
D03*
Y43189D02*
D03*
Y48189D02*
D03*
Y53189D02*
D03*
Y58189D02*
D03*
Y63189D02*
D03*
Y68189D02*
D03*
Y73189D02*
D03*
Y78189D02*
D03*
Y83189D02*
D03*
Y88189D02*
D03*
Y93189D02*
D03*
Y98189D02*
D03*
X144882D02*
D03*
Y93189D02*
D03*
Y88189D02*
D03*
Y83189D02*
D03*
Y78189D02*
D03*
Y73189D02*
D03*
Y68189D02*
D03*
Y63189D02*
D03*
Y58189D02*
D03*
Y53189D02*
D03*
Y48189D02*
D03*
Y43189D02*
D03*
Y38189D02*
D03*
Y33189D02*
D03*
D22*
X82933Y103110D02*
D03*
X87933D02*
D03*
X92933D02*
D03*
X97933D02*
D03*
X102933D02*
D03*
X107933D02*
D03*
X112933D02*
D03*
X117933D02*
D03*
X122933D02*
D03*
X127933D02*
D03*
X132933D02*
D03*
X137933D02*
D03*
D23*
X110827Y58071D02*
D03*
X116339D02*
D03*
X121850D02*
D03*
X110827Y69095D02*
D03*
X116339D02*
D03*
X121850D02*
D03*
X110827Y63583D02*
D03*
X121850D02*
D03*
X116339D02*
D03*
D24*
X200527Y94213D02*
D03*
X188125D02*
D03*
D25*
X115551Y116142D02*
D03*
X113976D02*
D03*
X112402D02*
D03*
X110827D02*
D03*
X109252D02*
D03*
X107677D02*
D03*
X106102D02*
D03*
X104528D02*
D03*
X102953D02*
D03*
X101378D02*
D03*
X99803D02*
D03*
X98228D02*
D03*
X96654D02*
D03*
X95079D02*
D03*
X93504D02*
D03*
X91929D02*
D03*
X90354D02*
D03*
X88780D02*
D03*
X87205D02*
D03*
D26*
X196850Y109887D02*
D03*
Y115202D02*
D03*
X193898Y71809D02*
D03*
Y77124D02*
D03*
D27*
X169291Y109134D02*
D03*
Y104212D02*
D03*
X175197Y109134D02*
D03*
Y104212D02*
D03*
X129921Y128189D02*
D03*
Y123268D02*
D03*
X140965Y128189D02*
D03*
Y123268D02*
D03*
D28*
X193898Y58788D02*
D03*
Y64504D02*
D03*
D29*
X194432Y51396D02*
D03*
X189117D02*
D03*
X125590Y6114D02*
D03*
X120275D02*
D03*
X38679Y85412D02*
D03*
X43994D02*
D03*
X33562Y50197D02*
D03*
X38877D02*
D03*
D30*
X166732Y134006D02*
D03*
X177756D02*
D03*
D31*
X165354Y117471D02*
D03*
X167323D02*
D03*
X169291D02*
D03*
X171260D02*
D03*
X173228D02*
D03*
X175197D02*
D03*
X177165D02*
D03*
X179134D02*
D03*
D32*
X162992D02*
D03*
X160039D02*
D03*
X181496D02*
D03*
X184449D02*
D03*
D33*
X174210Y89075D02*
D03*
X172242D02*
D03*
X170273D02*
D03*
Y95414D02*
D03*
X172242D02*
D03*
X174210D02*
D03*
D34*
X28346Y124008D02*
D03*
X48031D02*
D03*
D35*
X196850Y123169D02*
D03*
Y128288D02*
D03*
X51181Y63387D02*
D03*
Y68506D02*
D03*
X51181Y51760D02*
D03*
Y56878D02*
D03*
D36*
X95492Y6327D02*
D03*
X90374D02*
D03*
X126024Y22639D02*
D03*
X131142D02*
D03*
D37*
X112962Y9807D02*
D03*
X109222D02*
D03*
X105482D02*
D03*
Y19847D02*
D03*
X109222D02*
D03*
X112962D02*
D03*
D38*
X39764Y58453D02*
D03*
Y67508D02*
D03*
Y76563D02*
D03*
D39*
X16929Y67508D02*
D03*
D40*
X131440Y14492D02*
D03*
X125725D02*
D03*
X25489Y85412D02*
D03*
X31204D02*
D03*
D41*
X38189Y15748D02*
D03*
Y35433D02*
D03*
M02*
