G04*
G04 #@! TF.GenerationSoftware,Altium Limited,Altium Designer,22.11.1 (43)*
G04*
G04 Layer_Color=128*
%FSLAX25Y25*%
%MOIN*%
G70*
G04*
G04 #@! TF.SameCoordinates,A43992B1-1ED5-4B78-BC8A-5A3AD63A8115*
G04*
G04*
G04 #@! TF.FilePolarity,Positive*
G04*
G01*
G75*
%ADD47C,0.00200*%
D47*
X111179Y38581D02*
X114723D01*
X112951Y36809D02*
Y40352D01*
X91180Y38581D02*
X94723D01*
X92951Y36809D02*
Y40352D01*
X71179Y38581D02*
X74723D01*
X72951Y36809D02*
Y40352D01*
X101180Y38581D02*
X104723D01*
X102951Y36809D02*
Y40352D01*
X81179Y38581D02*
X84723D01*
X82951Y36809D02*
Y40352D01*
X61180Y38581D02*
X64723D01*
X62951Y36809D02*
Y40352D01*
X161179Y38581D02*
X164723D01*
X162951Y36809D02*
Y40352D01*
X191180Y38581D02*
X194723D01*
X192951Y36809D02*
Y40352D01*
X171179Y38581D02*
X174723D01*
X172951Y36809D02*
Y40352D01*
X151180Y38581D02*
X154723D01*
X152951Y36809D02*
Y40352D01*
X141180Y38581D02*
X144723D01*
X142951Y36809D02*
Y40352D01*
X181179Y38581D02*
X184723D01*
X182951Y36809D02*
Y40352D01*
X131179Y38581D02*
X134723D01*
X132951Y36809D02*
Y40352D01*
X121179Y38581D02*
X124723D01*
X122951Y36809D02*
Y40352D01*
X111179Y370469D02*
X114723D01*
X112951Y368698D02*
Y372241D01*
X121179Y370469D02*
X124723D01*
X122951Y368698D02*
Y372241D01*
X131179Y370469D02*
X134723D01*
X132951Y368698D02*
Y372241D01*
X141180Y370469D02*
X144723D01*
X142951Y368698D02*
Y372241D01*
X27134Y107858D02*
X29496D01*
X28315Y106677D02*
Y109039D01*
X27134Y65142D02*
X29496D01*
X28315Y63961D02*
Y66323D01*
X9417Y107858D02*
X11779D01*
X10598Y106677D02*
Y109039D01*
X9417Y65142D02*
X11779D01*
X10598Y63961D02*
Y66323D01*
X13189Y19685D02*
X26181D01*
X19685Y13189D02*
Y26181D01*
X229724Y19685D02*
X242717D01*
X236221Y13189D02*
Y26181D01*
X229724Y393701D02*
X242717D01*
X236221Y387205D02*
Y400197D01*
X13189Y393701D02*
X26181D01*
X19685Y387205D02*
Y400197D01*
X125671Y88000D02*
X126852D01*
X126262Y87410D02*
Y88591D01*
X69819Y141694D02*
X71000D01*
X70409Y141103D02*
Y142284D01*
X61620Y140910D02*
X62801D01*
X62210Y140319D02*
Y141500D01*
X121149Y165919D02*
X122330D01*
X121739Y165329D02*
Y166510D01*
X29219Y140420D02*
X30400D01*
X29810Y139830D02*
Y141011D01*
X38157Y140105D02*
X39339D01*
X38748Y139515D02*
Y140696D01*
X121149Y173837D02*
X122330D01*
X121739Y173246D02*
Y174427D01*
X45980Y168022D02*
X47161D01*
X46571Y167432D02*
Y168613D01*
X47703Y183871D02*
X48884D01*
X48293Y183281D02*
Y184462D01*
X35898Y95949D02*
X37079D01*
X36489Y95358D02*
Y96539D01*
X44260Y402757D02*
X45441D01*
X44851Y402166D02*
Y403347D01*
X35795Y90736D02*
X36976D01*
X36386Y90145D02*
Y91326D01*
M02*
