M48
;Layer_Color=9474304
;FILE_FORMAT=2:5
INCH,LZ
;TYPE=PLATED
T1F00S00C0.01181
T3F00S00C0.03543
T4F00S00C0.12992
;TYPE=NON_PLATED
T5F00S00C0.12992
%
T01
X0036386Y0090736
X0036489Y0095949
X0038748Y0140105
X002981Y014042
X006221Y014091
X0070409Y0141694
X0126262Y0088
X0121739Y0165919
Y0173837
X0046571Y0168022
X0048293Y0183871
X0044851Y0402757
T03
X0132951Y0038581
X0142951
X0152951
X0162951
X0172951
X0182951
X0192951
X0122951
X0112951
X0102951
X0092951
X0082951
X0072951
X0062951
X0132951Y0370469
X0142951
X0122951
X0112951
T04
X0019685Y0393701
T05
X0236221Y0019685
X0019685
X0236221Y0393701
M30
