G04*
G04 #@! TF.GenerationSoftware,Altium Limited,Altium Designer,22.11.1 (43)*
G04*
G04 Layer_Color=128*
%FSLAX25Y25*%
%MOIN*%
G70*
G04*
G04 #@! TF.SameCoordinates,1D5D8595-F9E1-464C-B53C-8977FC05DA47*
G04*
G04*
G04 #@! TF.FilePolarity,Positive*
G04*
G01*
G75*
%ADD45C,0.00200*%
D45*
X111179Y38581D02*
X114723D01*
X112951Y36809D02*
Y40352D01*
X91180Y38581D02*
X94723D01*
X92951Y36809D02*
Y40352D01*
X71179Y38581D02*
X74723D01*
X72951Y36809D02*
Y40352D01*
X101180Y38581D02*
X104723D01*
X102951Y36809D02*
Y40352D01*
X81179Y38581D02*
X84723D01*
X82951Y36809D02*
Y40352D01*
X61180Y38581D02*
X64723D01*
X62951Y36809D02*
Y40352D01*
X161179Y38581D02*
X164723D01*
X162951Y36809D02*
Y40352D01*
X191180Y38581D02*
X194723D01*
X192951Y36809D02*
Y40352D01*
X171179Y38581D02*
X174723D01*
X172951Y36809D02*
Y40352D01*
X151180Y38581D02*
X154723D01*
X152951Y36809D02*
Y40352D01*
X141180Y38581D02*
X144723D01*
X142951Y36809D02*
Y40352D01*
X181179Y38581D02*
X184723D01*
X182951Y36809D02*
Y40352D01*
X131179Y38581D02*
X134723D01*
X132951Y36809D02*
Y40352D01*
X121179Y38581D02*
X124723D01*
X122951Y36809D02*
Y40352D01*
X111179Y370469D02*
X114723D01*
X112951Y368698D02*
Y372241D01*
X121179Y370469D02*
X124723D01*
X122951Y368698D02*
Y372241D01*
X131179Y370469D02*
X134723D01*
X132951Y368698D02*
Y372241D01*
X141180Y370469D02*
X144723D01*
X142951Y368698D02*
Y372241D01*
X102816Y5913D02*
X105178D01*
X103997Y4732D02*
Y7095D01*
X145533Y5913D02*
X147895D01*
X146714Y4732D02*
Y7095D01*
X102816Y23630D02*
X105178D01*
X103997Y22449D02*
Y24811D01*
X145533Y23630D02*
X147895D01*
X146714Y22449D02*
Y24811D01*
X13189Y19685D02*
X26181D01*
X19685Y13189D02*
Y26181D01*
X229724Y19685D02*
X242717D01*
X236221Y13189D02*
Y26181D01*
X229724Y393701D02*
X242717D01*
X236221Y387205D02*
Y400197D01*
X13189Y393701D02*
X26181D01*
X19685Y387205D02*
Y400197D01*
X62514Y70292D02*
X63696D01*
X63105Y69701D02*
Y70882D01*
X118318Y66218D02*
X119500D01*
X118909Y65627D02*
Y66808D01*
X61293Y125842D02*
X62474D01*
X61883Y125252D02*
Y126433D01*
X68677Y125842D02*
X69858D01*
X69268Y125252D02*
Y126433D01*
X42064Y57342D02*
X43246D01*
X42655Y56752D02*
Y57933D01*
X33099Y56500D02*
X34281D01*
X33690Y55910D02*
Y57091D01*
X63384Y77904D02*
X64565D01*
X63974Y77313D02*
Y78494D01*
X10125Y85508D02*
X11306D01*
X10716Y84917D02*
Y86098D01*
X15125Y66200D02*
X16307D01*
X15716Y65610D02*
Y66791D01*
X50909Y22000D02*
X52091D01*
X51500Y21409D02*
Y22591D01*
X44260Y402757D02*
X45441D01*
X44851Y402166D02*
Y403347D01*
M02*
