M48
;Layer_Color=9474304
;FILE_FORMAT=2:5
INCH,LZ
;TYPE=PLATED
T1F00S00C0.01181
T3F00S00C0.03543
T4F00S00C0.12992
;TYPE=NON_PLATED
T5F00S00C0.12992
%
T01
X00515Y0022
X0042655Y0057342
X003369Y00565
X0015716Y00662
X0010716Y0085508
X0063974Y0077904
X0063105Y0070292
X0061883Y0125842
X0069268
X0118909Y0066218
X0044851Y0402757
T03
X0132951Y0038581
X0142951
X0152951
X0162951
X0172951
X0182951
X0192951
X0122951
X0112951
X0102951
X0092951
X0082951
X0072951
X0062951
X0132951Y0370469
X0142951
X0122951
X0112951
T04
X0019685Y0393701
T05
X0236221Y0019685
X0019685
X0236221Y0393701
M30
