G04*
G04 #@! TF.GenerationSoftware,Altium Limited,Altium Designer,22.11.1 (43)*
G04*
G04 Layer_Physical_Order=1*
G04 Layer_Color=255*
%FSLAX25Y25*%
%MOIN*%
G70*
G04*
G04 #@! TF.SameCoordinates,1D5D8595-F9E1-464C-B53C-8977FC05DA47*
G04*
G04*
G04 #@! TF.FilePolarity,Positive*
G04*
G01*
G75*
%ADD11C,0.01000*%
%ADD14C,0.00600*%
%ADD16R,0.06299X0.12598*%
%ADD17R,0.03937X0.09449*%
%ADD18R,0.12992X0.09449*%
%ADD19R,0.03937X0.03543*%
%ADD20R,0.03347X0.03740*%
%ADD21R,0.03963X0.03812*%
%ADD22R,0.03543X0.03937*%
%ADD34C,0.05906*%
%ADD35O,0.04724X0.06693*%
%ADD36O,0.04724X0.07480*%
%ADD37C,0.24410*%
%ADD38C,0.01968*%
G36*
X238673Y412121D02*
X241083Y411641D01*
X243409Y410852D01*
X245612Y409765D01*
X247654Y408400D01*
X249501Y406781D01*
X251121Y404934D01*
X252486Y402891D01*
X253572Y400688D01*
X254362Y398362D01*
X254841Y395953D01*
X255000Y393531D01*
X254994Y393501D01*
Y19484D01*
X255000Y19455D01*
X254841Y17033D01*
X254362Y14624D01*
X253572Y12297D01*
X252486Y10094D01*
X251121Y8052D01*
X249501Y6205D01*
X247654Y4585D01*
X245612Y3220D01*
X243409Y2134D01*
X241083Y1344D01*
X238673Y865D01*
X236251Y706D01*
X236222Y712D01*
X58149D01*
Y67334D01*
X58176Y67823D01*
X58649Y67823D01*
X62719D01*
Y68661D01*
X62790Y68709D01*
X63420D01*
X64001Y68950D01*
X64447Y69395D01*
X64688Y69977D01*
Y70606D01*
X64447Y71188D01*
X64001Y71633D01*
X63420Y71874D01*
X62790D01*
X62719Y71922D01*
Y72760D01*
X58176Y72760D01*
X58149Y73249D01*
Y75278D01*
X62839D01*
Y76148D01*
X63339Y76454D01*
X63660Y76321D01*
X64289D01*
X64871Y76562D01*
X65316Y77007D01*
X65557Y77589D01*
Y78219D01*
X65316Y78800D01*
X64871Y79246D01*
X64289Y79487D01*
X63660D01*
X63339Y79354D01*
X62839Y79660D01*
Y80090D01*
X57876D01*
Y78002D01*
X57414Y77684D01*
X57124Y77792D01*
Y80090D01*
X52161D01*
Y77524D01*
X49694D01*
Y83437D01*
X44757D01*
Y77524D01*
X40639D01*
X40179Y77334D01*
X39989Y76875D01*
Y73638D01*
X36351D01*
Y76875D01*
X36161Y77334D01*
X35702Y77524D01*
X31583D01*
Y83437D01*
X26646D01*
Y76563D01*
X18184D01*
Y77917D01*
X16634D01*
Y82057D01*
X17714Y83138D01*
X20763D01*
Y87878D01*
X19507D01*
Y91094D01*
X20763D01*
Y95834D01*
X16417D01*
Y91094D01*
X17672D01*
Y87878D01*
X16417D01*
Y84469D01*
X16102Y84214D01*
X15645Y84412D01*
Y87878D01*
X11299D01*
Y87269D01*
X11031Y87090D01*
X10401D01*
X9819Y86849D01*
X9374Y86404D01*
X9133Y85822D01*
Y85193D01*
X9374Y84611D01*
X9819Y84166D01*
X10401Y83925D01*
X11031D01*
X11299Y83746D01*
Y83138D01*
X14500D01*
X14603Y83040D01*
X14838Y82638D01*
X14798Y82437D01*
Y77917D01*
X13247D01*
Y77524D01*
X913D01*
Y393501D01*
X907Y393531D01*
X1066Y395953D01*
X1545Y398362D01*
X2335Y400688D01*
X3421Y402891D01*
X4786Y404934D01*
X6406Y406781D01*
X8252Y408400D01*
X10295Y409765D01*
X12498Y410852D01*
X14824Y411641D01*
X17234Y412121D01*
X19656Y412279D01*
X19685Y412274D01*
X236222D01*
X236251Y412279D01*
X238673Y412121D01*
D02*
G37*
G36*
X57500Y712D02*
X19685D01*
X19656Y706D01*
X17234Y865D01*
X14824Y1344D01*
X12498Y2134D01*
X10295Y3220D01*
X8252Y4585D01*
X6406Y6205D01*
X4786Y8052D01*
X3421Y10094D01*
X2335Y12297D01*
X1545Y14624D01*
X1066Y17033D01*
X907Y19455D01*
X913Y19484D01*
Y76875D01*
X13247D01*
Y73374D01*
X18184D01*
Y74728D01*
X26646D01*
Y72988D01*
X31583D01*
Y76875D01*
X35702D01*
Y72988D01*
X40639D01*
Y76875D01*
X57500D01*
Y712D01*
D02*
G37*
%LPC*%
G36*
X44268Y405127D02*
X39922D01*
Y400387D01*
X44268D01*
Y400995D01*
X44536Y401174D01*
X45166D01*
X45747Y401415D01*
X46192Y401861D01*
X46433Y402442D01*
Y403072D01*
X46192Y403653D01*
X45747Y404099D01*
X45166Y404340D01*
X44536D01*
X44268Y404519D01*
Y405127D01*
D02*
G37*
G36*
X20693Y406505D02*
X18677D01*
X16687Y406190D01*
X14770Y405567D01*
X12974Y404652D01*
X11343Y403468D01*
X9918Y402042D01*
X8733Y400412D01*
X7818Y398616D01*
X7196Y396699D01*
X6880Y394708D01*
Y392693D01*
X7196Y390702D01*
X7818Y388786D01*
X8733Y386990D01*
X9918Y385359D01*
X11343Y383934D01*
X12974Y382749D01*
X14770Y381834D01*
X16687Y381211D01*
X18677Y380896D01*
X20693D01*
X22683Y381211D01*
X24600Y381834D01*
X26396Y382749D01*
X28027Y383934D01*
X29452Y385359D01*
X30637Y386990D01*
X31552Y388786D01*
X32175Y390702D01*
X32490Y392693D01*
Y394708D01*
X32175Y396699D01*
X31552Y398616D01*
X30637Y400412D01*
X29998Y401291D01*
X30350Y401643D01*
X34803D01*
Y400387D01*
X39150D01*
Y405127D01*
X34803D01*
Y403478D01*
X29969D01*
X29618Y403408D01*
X29321Y403209D01*
X28803Y402691D01*
X28027Y403468D01*
X26396Y404652D01*
X24600Y405567D01*
X22683Y406190D01*
X20693Y406505D01*
D02*
G37*
G36*
X236221Y406545D02*
X234211Y406387D01*
X232251Y405916D01*
X230389Y405145D01*
X228671Y404092D01*
X227138Y402783D01*
X225829Y401251D01*
X224776Y399532D01*
X224005Y397670D01*
X223534Y395710D01*
X223376Y393701D01*
X223534Y391691D01*
X224005Y389732D01*
X224776Y387870D01*
X225829Y386151D01*
X227138Y384618D01*
X228671Y383310D01*
X230389Y382256D01*
X232251Y381485D01*
X234211Y381015D01*
X236221Y380856D01*
X238230Y381015D01*
X240190Y381485D01*
X242052Y382256D01*
X243770Y383310D01*
X245303Y384618D01*
X246612Y386151D01*
X247665Y387870D01*
X248436Y389732D01*
X248907Y391691D01*
X249065Y393701D01*
X248907Y395710D01*
X248436Y397670D01*
X247665Y399532D01*
X246612Y401251D01*
X245303Y402783D01*
X243770Y404092D01*
X242052Y405145D01*
X240190Y405916D01*
X238230Y406387D01*
X236221Y406545D01*
D02*
G37*
G36*
X143419Y374022D02*
X142483D01*
X141580Y373780D01*
X140770Y373312D01*
X140108Y372651D01*
X139640Y371841D01*
X139398Y370937D01*
Y370002D01*
X139640Y369098D01*
X140108Y368288D01*
X140770Y367627D01*
X141580Y367159D01*
X142483Y366917D01*
X143419D01*
X144323Y367159D01*
X145133Y367627D01*
X145794Y368288D01*
X146262Y369098D01*
X146504Y370002D01*
Y370937D01*
X146262Y371841D01*
X145794Y372651D01*
X145133Y373312D01*
X144323Y373780D01*
X143419Y374022D01*
D02*
G37*
G36*
X113419D02*
X112483D01*
X111580Y373780D01*
X110770Y373312D01*
X110108Y372651D01*
X109641Y371841D01*
X109398Y370937D01*
Y370002D01*
X109641Y369098D01*
X110108Y368288D01*
X110770Y367627D01*
X111580Y367159D01*
X112483Y366917D01*
X113419D01*
X114322Y367159D01*
X115133Y367627D01*
X115794Y368288D01*
X116262Y369098D01*
X116504Y370002D01*
Y370937D01*
X116262Y371841D01*
X115794Y372651D01*
X115133Y373312D01*
X114322Y373780D01*
X113419Y374022D01*
D02*
G37*
G36*
X69207Y132642D02*
X61907D01*
Y127425D01*
X61568D01*
X60987Y127184D01*
X60542Y126739D01*
X60301Y126157D01*
Y125528D01*
X60542Y124946D01*
X60987Y124501D01*
X61568Y124260D01*
X61907D01*
Y119043D01*
X69207D01*
Y124260D01*
X69583D01*
X70164Y124501D01*
X70609Y124946D01*
X70850Y125528D01*
Y126157D01*
X70609Y126739D01*
X70164Y127184D01*
X69583Y127425D01*
X69207D01*
Y132642D01*
D02*
G37*
G36*
X63472Y42534D02*
X63451D01*
Y39081D01*
X66904D01*
Y39101D01*
X66635Y40106D01*
X66114Y41008D01*
X65378Y41744D01*
X64477Y42264D01*
X63472Y42534D01*
D02*
G37*
G36*
X62451D02*
X62431D01*
X61426Y42264D01*
X60524Y41744D01*
X59788Y41008D01*
X59268Y40106D01*
X58998Y39101D01*
Y39081D01*
X62451D01*
Y42534D01*
D02*
G37*
G36*
X193419Y42134D02*
X192483D01*
X191580Y41892D01*
X190770Y41424D01*
X190108Y40762D01*
X189640Y39952D01*
X189398Y39049D01*
Y38113D01*
X189640Y37209D01*
X190108Y36399D01*
X190770Y35738D01*
X191580Y35270D01*
X192483Y35028D01*
X193419D01*
X194323Y35270D01*
X195133Y35738D01*
X195794Y36399D01*
X196262Y37209D01*
X196504Y38113D01*
Y39049D01*
X196262Y39952D01*
X195794Y40762D01*
X195133Y41424D01*
X194323Y41892D01*
X193419Y42134D01*
D02*
G37*
G36*
X103419D02*
X102483D01*
X101580Y41892D01*
X100770Y41424D01*
X100108Y40762D01*
X99641Y39952D01*
X99398Y39049D01*
Y38113D01*
X99641Y37209D01*
X100108Y36399D01*
X100770Y35738D01*
X101580Y35270D01*
X102483Y35028D01*
X103419D01*
X104323Y35270D01*
X105133Y35738D01*
X105794Y36399D01*
X106262Y37209D01*
X106504Y38113D01*
Y39049D01*
X106262Y39952D01*
X105794Y40762D01*
X105133Y41424D01*
X104323Y41892D01*
X103419Y42134D01*
D02*
G37*
G36*
X93419D02*
X92484D01*
X91580Y41892D01*
X90770Y41424D01*
X90108Y40762D01*
X89640Y39952D01*
X89398Y39049D01*
Y38113D01*
X89640Y37209D01*
X90108Y36399D01*
X90770Y35738D01*
X91580Y35270D01*
X92484Y35028D01*
X93419D01*
X94323Y35270D01*
X95133Y35738D01*
X95794Y36399D01*
X96262Y37209D01*
X96504Y38113D01*
Y39049D01*
X96262Y39952D01*
X95794Y40762D01*
X95133Y41424D01*
X94323Y41892D01*
X93419Y42134D01*
D02*
G37*
G36*
X83419D02*
X82484D01*
X81580Y41892D01*
X80770Y41424D01*
X80108Y40762D01*
X79641Y39952D01*
X79398Y39049D01*
Y38113D01*
X79641Y37209D01*
X80108Y36399D01*
X80770Y35738D01*
X81580Y35270D01*
X82484Y35028D01*
X83419D01*
X84323Y35270D01*
X85133Y35738D01*
X85794Y36399D01*
X86262Y37209D01*
X86504Y38113D01*
Y39049D01*
X86262Y39952D01*
X85794Y40762D01*
X85133Y41424D01*
X84323Y41892D01*
X83419Y42134D01*
D02*
G37*
G36*
X73419D02*
X72483D01*
X71580Y41892D01*
X70770Y41424D01*
X70108Y40762D01*
X69640Y39952D01*
X69398Y39049D01*
Y38113D01*
X69640Y37209D01*
X70108Y36399D01*
X70770Y35738D01*
X71580Y35270D01*
X72483Y35028D01*
X73419D01*
X74322Y35270D01*
X75133Y35738D01*
X75794Y36399D01*
X76262Y37209D01*
X76504Y38113D01*
Y39049D01*
X76262Y39952D01*
X75794Y40762D01*
X75133Y41424D01*
X74322Y41892D01*
X73419Y42134D01*
D02*
G37*
G36*
X146021Y379765D02*
X141330D01*
X140978Y379696D01*
X140681Y379497D01*
X134729Y373545D01*
X134323Y373780D01*
X133419Y374022D01*
X132483D01*
X131580Y373780D01*
X130770Y373312D01*
X130108Y372651D01*
X129640Y371841D01*
X129398Y370937D01*
Y370002D01*
X129640Y369098D01*
X130108Y368288D01*
X130770Y367627D01*
X131580Y367159D01*
X132483Y366917D01*
X133419D01*
X134323Y367159D01*
X135133Y367627D01*
X135794Y368288D01*
X136262Y369098D01*
X136504Y370002D01*
Y370937D01*
X136262Y371841D01*
X136027Y372248D01*
X141710Y377930D01*
X145641D01*
X180662Y342909D01*
Y41388D01*
X180674Y41328D01*
X180108Y40762D01*
X179640Y39952D01*
X179398Y39049D01*
Y38113D01*
X179640Y37209D01*
X179875Y36803D01*
X178019Y34947D01*
X174762D01*
X174628Y35447D01*
X175133Y35738D01*
X175794Y36399D01*
X176262Y37209D01*
X176504Y38113D01*
Y39049D01*
X176262Y39952D01*
X175794Y40762D01*
X175133Y41424D01*
X174322Y41892D01*
X173869Y42013D01*
Y320469D01*
X173799Y320820D01*
X173600Y321118D01*
X126027Y368691D01*
X126262Y369098D01*
X126504Y370002D01*
Y370937D01*
X126262Y371841D01*
X125794Y372651D01*
X125133Y373312D01*
X124322Y373780D01*
X123419Y374022D01*
X122483D01*
X121580Y373780D01*
X120770Y373312D01*
X120108Y372651D01*
X119641Y371841D01*
X119398Y370937D01*
Y370002D01*
X119641Y369098D01*
X120108Y368288D01*
X120770Y367627D01*
X121580Y367159D01*
X122483Y366917D01*
X123419D01*
X124322Y367159D01*
X124729Y367394D01*
X172034Y320089D01*
Y42013D01*
X171580Y41892D01*
X171173Y41657D01*
X166911Y45919D01*
X166613Y46118D01*
X166262Y46188D01*
X119641D01*
X119289Y46118D01*
X118992Y45919D01*
X114729Y41657D01*
X114322Y41892D01*
X113419Y42134D01*
X112483D01*
X111580Y41892D01*
X110770Y41424D01*
X110108Y40762D01*
X109641Y39952D01*
X109398Y39049D01*
Y38113D01*
X109641Y37209D01*
X110108Y36399D01*
X110770Y35738D01*
X111580Y35270D01*
X112483Y35028D01*
X113419D01*
X114322Y35270D01*
X115133Y35738D01*
X115794Y36399D01*
X116262Y37209D01*
X116504Y38113D01*
Y39049D01*
X116262Y39952D01*
X116027Y40359D01*
X120021Y44353D01*
X126809D01*
X126960Y43853D01*
X126854Y43782D01*
X124729Y41657D01*
X124322Y41892D01*
X123419Y42134D01*
X122483D01*
X121580Y41892D01*
X120770Y41424D01*
X120108Y40762D01*
X119641Y39952D01*
X119398Y39049D01*
Y38113D01*
X119641Y37209D01*
X120108Y36399D01*
X120770Y35738D01*
X121580Y35270D01*
X122483Y35028D01*
X123419D01*
X124322Y35270D01*
X125133Y35738D01*
X125794Y36399D01*
X126262Y37209D01*
X126504Y38113D01*
Y39049D01*
X126262Y39952D01*
X126027Y40359D01*
X127883Y42215D01*
X131140D01*
X131274Y41715D01*
X130770Y41424D01*
X130108Y40762D01*
X129640Y39952D01*
X129398Y39049D01*
Y38113D01*
X129640Y37209D01*
X130108Y36399D01*
X130770Y35738D01*
X131580Y35270D01*
X132483Y35028D01*
X133419D01*
X134323Y35270D01*
X135133Y35738D01*
X135794Y36399D01*
X136262Y37209D01*
X136504Y38113D01*
Y39049D01*
X136262Y39952D01*
X135794Y40762D01*
X135133Y41424D01*
X134628Y41715D01*
X134762Y42215D01*
X141140D01*
X141274Y41715D01*
X140770Y41424D01*
X140108Y40762D01*
X139640Y39952D01*
X139398Y39049D01*
Y38113D01*
X139640Y37209D01*
X140108Y36399D01*
X140770Y35738D01*
X141580Y35270D01*
X142483Y35028D01*
X143419D01*
X144323Y35270D01*
X144729Y35505D01*
X146854Y33380D01*
X147152Y33181D01*
X147503Y33111D01*
X178399D01*
X178750Y33181D01*
X179048Y33380D01*
X181173Y35505D01*
X181580Y35270D01*
X182483Y35028D01*
X183419D01*
X184323Y35270D01*
X185133Y35738D01*
X185794Y36399D01*
X186262Y37209D01*
X186504Y38113D01*
Y39049D01*
X186262Y39952D01*
X185794Y40762D01*
X185133Y41424D01*
X184323Y41892D01*
X183419Y42134D01*
X182498D01*
Y343289D01*
X182428Y343640D01*
X182229Y343938D01*
X146670Y379497D01*
X146372Y379696D01*
X146021Y379765D01*
D02*
G37*
G36*
X66904Y38081D02*
X63451D01*
Y34628D01*
X63472D01*
X64477Y34897D01*
X65378Y35418D01*
X66114Y36154D01*
X66635Y37055D01*
X66904Y38060D01*
Y38081D01*
D02*
G37*
G36*
X62451D02*
X58998D01*
Y38060D01*
X59268Y37055D01*
X59788Y36154D01*
X60524Y35418D01*
X61426Y34897D01*
X62431Y34628D01*
X62451D01*
Y38081D01*
D02*
G37*
G36*
X146714Y27996D02*
X145941Y27894D01*
X145220Y27595D01*
X144601Y27121D01*
X144126Y26502D01*
X143828Y25781D01*
X143726Y25008D01*
Y22252D01*
X143828Y21479D01*
X144126Y20758D01*
X144601Y20139D01*
X145220Y19665D01*
X145941Y19366D01*
X146714Y19264D01*
X147487Y19366D01*
X148208Y19665D01*
X148827Y20139D01*
X149301Y20758D01*
X149600Y21479D01*
X149702Y22252D01*
Y25008D01*
X149600Y25781D01*
X149301Y26502D01*
X148827Y27121D01*
X148208Y27595D01*
X147487Y27894D01*
X146714Y27996D01*
D02*
G37*
G36*
X103997D02*
X103224Y27894D01*
X102504Y27595D01*
X101885Y27121D01*
X101410Y26502D01*
X101111Y25781D01*
X101010Y25008D01*
Y22252D01*
X101111Y21479D01*
X101410Y20758D01*
X101885Y20139D01*
X102504Y19665D01*
X103224Y19366D01*
X103997Y19264D01*
X104771Y19366D01*
X105491Y19665D01*
X106110Y20139D01*
X106585Y20758D01*
X106883Y21479D01*
X106985Y22252D01*
Y25008D01*
X106883Y25781D01*
X106585Y26502D01*
X106110Y27121D01*
X105491Y27595D01*
X104771Y27894D01*
X103997Y27996D01*
D02*
G37*
G36*
X236221Y32529D02*
X234211Y32371D01*
X232251Y31901D01*
X230389Y31129D01*
X228671Y30076D01*
X227138Y28767D01*
X225829Y27235D01*
X224776Y25516D01*
X224005Y23654D01*
X223534Y21694D01*
X223376Y19685D01*
X223534Y17676D01*
X224005Y15716D01*
X224776Y13854D01*
X225829Y12135D01*
X227138Y10603D01*
X228671Y9294D01*
X230389Y8241D01*
X232251Y7469D01*
X234211Y6999D01*
X236221Y6841D01*
X238230Y6999D01*
X240190Y7469D01*
X242052Y8241D01*
X243770Y9294D01*
X245303Y10603D01*
X246612Y12135D01*
X247665Y13854D01*
X248436Y15716D01*
X248907Y17676D01*
X249065Y19685D01*
X248907Y21694D01*
X248436Y23654D01*
X247665Y25516D01*
X246612Y27235D01*
X245303Y28767D01*
X243770Y30076D01*
X242052Y31129D01*
X240190Y31901D01*
X238230Y32371D01*
X236221Y32529D01*
D02*
G37*
G36*
X146714Y9885D02*
X145941Y9784D01*
X145220Y9485D01*
X144601Y9010D01*
X144126Y8392D01*
X143828Y7671D01*
X143726Y6898D01*
Y4929D01*
X143828Y4156D01*
X144126Y3435D01*
X144601Y2816D01*
X145220Y2342D01*
X145941Y2043D01*
X146714Y1941D01*
X147487Y2043D01*
X148208Y2342D01*
X148827Y2816D01*
X149301Y3435D01*
X149600Y4156D01*
X149702Y4929D01*
Y6898D01*
X149600Y7671D01*
X149301Y8392D01*
X148827Y9010D01*
X148208Y9485D01*
X147487Y9784D01*
X146714Y9885D01*
D02*
G37*
G36*
X103997D02*
X103224Y9784D01*
X102504Y9485D01*
X101885Y9010D01*
X101410Y8392D01*
X101111Y7671D01*
X101010Y6898D01*
Y4929D01*
X101111Y4156D01*
X101410Y3435D01*
X101885Y2816D01*
X102504Y2342D01*
X103224Y2043D01*
X103997Y1941D01*
X104771Y2043D01*
X105491Y2342D01*
X106110Y2816D01*
X106585Y3435D01*
X106883Y4156D01*
X106985Y4929D01*
Y6898D01*
X106883Y7671D01*
X106585Y8392D01*
X106110Y9010D01*
X105491Y9485D01*
X104771Y9784D01*
X103997Y9885D01*
D02*
G37*
G36*
X18184Y72602D02*
X13247D01*
Y68059D01*
X14594D01*
Y67317D01*
X14374Y67097D01*
X14133Y66515D01*
Y65885D01*
X14374Y65304D01*
X14819Y64858D01*
X15401Y64618D01*
X16031D01*
X16612Y64858D01*
X17058Y65304D01*
X17299Y65885D01*
Y66515D01*
X17058Y67097D01*
X16838Y67317D01*
Y68059D01*
X18184D01*
Y72602D01*
D02*
G37*
G36*
X41820Y64142D02*
X34520D01*
Y58319D01*
X34105Y58041D01*
X34005Y58083D01*
X33375D01*
X32794Y57842D01*
X32348Y57397D01*
X32107Y56815D01*
Y56185D01*
X32348Y55603D01*
X32794Y55158D01*
X33375Y54917D01*
X34005D01*
X34105Y54959D01*
X34520Y54681D01*
Y50543D01*
X41820D01*
Y55525D01*
X42235Y55803D01*
X42340Y55760D01*
X42970D01*
X43551Y56001D01*
X43997Y56446D01*
X44238Y57028D01*
Y57657D01*
X43997Y58239D01*
X43551Y58684D01*
X42970Y58925D01*
X42340D01*
X42235Y58882D01*
X41820Y59160D01*
Y64142D01*
D02*
G37*
G36*
X19685Y32529D02*
X17676Y32371D01*
X15716Y31901D01*
X13854Y31129D01*
X12135Y30076D01*
X10603Y28767D01*
X9294Y27235D01*
X8241Y25516D01*
X7469Y23654D01*
X6999Y21694D01*
X6841Y19685D01*
X6999Y17676D01*
X7469Y15716D01*
X8241Y13854D01*
X9294Y12135D01*
X10603Y10603D01*
X12135Y9294D01*
X13854Y8241D01*
X15716Y7469D01*
X17676Y6999D01*
X19685Y6841D01*
X21694Y6999D01*
X23654Y7469D01*
X25516Y8241D01*
X27235Y9294D01*
X28767Y10603D01*
X30076Y12135D01*
X31129Y13854D01*
X31901Y15716D01*
X32371Y17676D01*
X32529Y19685D01*
X32371Y21694D01*
X31901Y23654D01*
X31129Y25516D01*
X30076Y27235D01*
X28767Y28767D01*
X27235Y30076D01*
X25516Y31129D01*
X23654Y31901D01*
X21694Y32371D01*
X19685Y32529D01*
D02*
G37*
%LPD*%
D11*
X60448Y70292D02*
X63105D01*
X60448Y70292D02*
X60448Y70292D01*
X65557Y125842D02*
X69268D01*
X61883D02*
X65557D01*
X38170Y59150D02*
X39977Y57342D01*
X38170D02*
Y59150D01*
X39977Y57342D02*
X42655D01*
X35520Y56500D02*
X38170Y59150D01*
X33690Y56500D02*
X35520D01*
X60358Y77684D02*
X60578Y77904D01*
X63974D01*
X10716Y85508D02*
X13472D01*
X15716Y66200D02*
Y70331D01*
D14*
X18590Y85508D02*
Y93464D01*
X15716Y82437D02*
X18590Y85311D01*
Y85508D01*
X15716Y75646D02*
Y82437D01*
X27446Y75646D02*
X29115Y77314D01*
X15716Y75646D02*
X27446D01*
X29115Y77314D02*
Y78213D01*
X148399Y43133D02*
X152951Y38581D01*
X181580Y41388D02*
X181936Y41032D01*
Y40308D02*
Y41032D01*
X122951Y38581D02*
X127503Y43133D01*
X181580Y41388D02*
Y343289D01*
X132951Y370469D02*
X141330Y378848D01*
X181580Y39952D02*
X182951Y38581D01*
X181580Y39952D02*
X181936Y40308D01*
X122951Y370469D02*
X172951Y320469D01*
X119641Y45270D02*
X166262D01*
X112951Y38581D02*
X119641Y45270D01*
X178399Y34029D02*
X182951Y38581D01*
X172951D02*
Y320469D01*
X147503Y34029D02*
X178399D01*
X166262Y45270D02*
X172951Y38581D01*
X142951D02*
X147503Y34029D01*
X127503Y43133D02*
X148399D01*
X146021Y378848D02*
X181580Y343289D01*
X141330Y378848D02*
X146021D01*
X42095Y402757D02*
X44851D01*
X42095Y402757D02*
X42095Y402757D01*
X25666Y398256D02*
X29969Y402560D01*
X24241Y398256D02*
X25666D01*
X36780Y402560D02*
X36977Y402757D01*
X29969Y402560D02*
X36780D01*
X19685Y393701D02*
X24241Y398256D01*
D16*
X65557Y125842D02*
D03*
Y106158D02*
D03*
X38170Y37657D02*
D03*
Y57342D02*
D03*
D17*
X29115Y78213D02*
D03*
X38170D02*
D03*
X47225D02*
D03*
D18*
X38170Y101047D02*
D03*
D19*
X15716Y75646D02*
D03*
Y70331D02*
D03*
D20*
X13472Y93464D02*
D03*
X18590D02*
D03*
X13472Y85508D02*
D03*
X18590D02*
D03*
X42095Y402757D02*
D03*
X36977D02*
D03*
D21*
X54642Y77684D02*
D03*
X60358D02*
D03*
D22*
X55133Y70292D02*
D03*
X60448D02*
D03*
D34*
X112951Y38581D02*
D03*
X92951D02*
D03*
X72951D02*
D03*
X102951D02*
D03*
X82951D02*
D03*
X62951D02*
D03*
X162951D02*
D03*
X192951D02*
D03*
X172951D02*
D03*
X152951D02*
D03*
X142951D02*
D03*
X182951D02*
D03*
X132951D02*
D03*
X122951D02*
D03*
X112951Y370469D02*
D03*
X122951D02*
D03*
X132951D02*
D03*
X142951D02*
D03*
D35*
X103997Y5913D02*
D03*
X146714D02*
D03*
D36*
X103997Y23630D02*
D03*
X146714D02*
D03*
D37*
X19685Y393701D02*
D03*
D38*
X63105Y70292D02*
D03*
X118909Y66218D02*
D03*
X61883Y125842D02*
D03*
X69268D02*
D03*
X42655Y57342D02*
D03*
X33690Y56500D02*
D03*
X63974Y77904D02*
D03*
X10716Y85508D02*
D03*
X15716Y66200D02*
D03*
X51500Y22000D02*
D03*
X44851Y402757D02*
D03*
M02*
