G04*
G04 #@! TF.GenerationSoftware,Altium Limited,Altium Designer,25.2.1 (25)*
G04*
G04 Layer_Color=65535*
%FSLAX25Y25*%
%MOIN*%
G70*
G04*
G04 #@! TF.SameCoordinates,19AB45F0-FF71-4E06-AC9F-8C434743CFD0*
G04*
G04*
G04 #@! TF.FilePolarity,Positive*
G04*
G01*
G75*
%ADD10C,0.00787*%
%ADD11C,0.00984*%
%ADD12C,0.00591*%
%ADD13C,0.00394*%
%ADD14C,0.00500*%
%ADD15C,0.00598*%
%ADD16C,0.00602*%
%ADD17C,0.01000*%
G36*
X19393Y91811D02*
X7812D01*
Y95984D01*
X19393D01*
Y91811D01*
D02*
G37*
G36*
X169793Y18523D02*
X149600D01*
Y22104D01*
X169793D01*
Y18523D01*
D02*
G37*
G36*
X19393Y45355D02*
X7812D01*
Y49527D01*
X19393D01*
Y45355D01*
D02*
G37*
G36*
X185266Y17933D02*
X179360D01*
Y41555D01*
X185266D01*
Y17933D01*
D02*
G37*
G36*
X195137Y41555D02*
Y17933D01*
X189232D01*
Y41555D01*
X195137D01*
D02*
G37*
G36*
X76526Y116040D02*
X68251D01*
Y141777D01*
X76526D01*
Y116040D01*
D02*
G37*
%LPC*%
G36*
X15883Y95309D02*
X15284D01*
X14609Y93258D01*
X13904Y95309D01*
X13301D01*
Y92537D01*
D01*
Y95309D01*
X14292Y92537D01*
X13301D01*
X14896D01*
X15883Y95309D01*
D02*
G37*
G36*
X13060Y95267D02*
X11655D01*
X11385Y93824D01*
X11811Y93765D01*
X11845Y93799D01*
X11883Y93832D01*
X11950Y93883D01*
X12022Y93917D01*
X12086Y93942D01*
X12140Y93959D01*
X12187Y93963D01*
X12204Y93967D01*
X12225D01*
X12288Y93963D01*
X12347Y93946D01*
X12398Y93925D01*
X12440Y93904D01*
X12474Y93879D01*
X12499Y93858D01*
X12516Y93841D01*
X12520Y93836D01*
X12558Y93786D01*
X12588Y93722D01*
X12609Y93659D01*
X12626Y93596D01*
X12634Y93541D01*
X12638Y93495D01*
Y93478D01*
Y93465D01*
Y93457D01*
Y93452D01*
X12634Y93360D01*
X12621Y93275D01*
X12600Y93208D01*
X12579Y93149D01*
X12558Y93106D01*
X12537Y93073D01*
X12524Y93056D01*
X12520Y93047D01*
X12474Y93001D01*
X12427Y92971D01*
X12381Y92946D01*
X12334Y92929D01*
X12297Y92921D01*
X12267Y92917D01*
X12246Y92912D01*
X12237D01*
X12187Y92917D01*
X12136Y92929D01*
X12094Y92946D01*
X12056Y92963D01*
X12022Y92980D01*
X12001Y92997D01*
X11984Y93009D01*
X11980Y93014D01*
X11942Y93056D01*
X11912Y93102D01*
X11891Y93153D01*
X11874Y93195D01*
X11862Y93237D01*
X11853Y93271D01*
X11849Y93292D01*
Y93300D01*
X11322Y93246D01*
X11334Y93182D01*
X11347Y93123D01*
X11385Y93009D01*
X11431Y92917D01*
X11482Y92836D01*
X11507Y92803D01*
X11528Y92773D01*
X11549Y92748D01*
X11571Y92727D01*
X11587Y92710D01*
X11600Y92697D01*
X11604Y92693D01*
X11609Y92689D01*
X11655Y92655D01*
X11706Y92621D01*
X11807Y92571D01*
X11912Y92537D01*
X12009Y92511D01*
X12056Y92503D01*
X12098Y92499D01*
X12136Y92490D01*
X12170D01*
X12195Y92486D01*
X13183D01*
X12233D01*
X12322Y92490D01*
X12402Y92503D01*
X12482Y92520D01*
X12554Y92541D01*
X12621Y92571D01*
X12680Y92600D01*
X12740Y92634D01*
X12790Y92668D01*
X12832Y92701D01*
X12875Y92735D01*
X12908Y92765D01*
X12934Y92794D01*
X12955Y92815D01*
X12972Y92832D01*
X12980Y92845D01*
X12984Y92849D01*
X13018Y92900D01*
X13052Y92954D01*
X13098Y93060D01*
X13136Y93161D01*
X13157Y93258D01*
X13166Y93300D01*
X13174Y93339D01*
X13178Y93372D01*
Y93402D01*
X13183Y93427D01*
Y93465D01*
Y93461D01*
X13178Y93537D01*
X13170Y93609D01*
X13161Y93676D01*
X13145Y93739D01*
X13124Y93799D01*
X13103Y93853D01*
X13081Y93904D01*
X13060Y93950D01*
X13035Y93993D01*
X13014Y94031D01*
X12993Y94060D01*
X12972Y94085D01*
X12955Y94107D01*
X12946Y94119D01*
X12938Y94128D01*
X12934Y94132D01*
X12887Y94178D01*
X12837Y94216D01*
X12786Y94250D01*
X12735Y94279D01*
X12685Y94305D01*
X12638Y94326D01*
X12541Y94355D01*
X12499Y94368D01*
X12461Y94377D01*
X12423Y94381D01*
X12393Y94385D01*
X12368Y94389D01*
X12334D01*
X12267Y94385D01*
X12199Y94377D01*
X12136Y94360D01*
X12086Y94347D01*
X12039Y94330D01*
X12001Y94313D01*
X11980Y94305D01*
X11971Y94301D01*
X12056Y94769D01*
X13060D01*
Y95267D01*
D02*
G37*
G36*
X11322D02*
Y92486D01*
D01*
Y95267D01*
D02*
G37*
G36*
X156762Y21881D02*
X156707D01*
X156550Y21877D01*
X156412Y21858D01*
X156347Y21844D01*
X156287Y21835D01*
X156232Y21821D01*
X156181Y21808D01*
X156140Y21789D01*
X156098Y21775D01*
X156066Y21766D01*
X156034Y21752D01*
X156010Y21743D01*
X155997Y21734D01*
X155987Y21729D01*
X155983D01*
X155849Y21646D01*
X155729Y21558D01*
X155632Y21462D01*
X155550Y21370D01*
X155485Y21291D01*
X155462Y21254D01*
X155439Y21222D01*
X155425Y21199D01*
X155411Y21181D01*
X155406Y21167D01*
X155402Y21162D01*
X155337Y21019D01*
X155291Y20876D01*
X155254Y20733D01*
X155231Y20604D01*
X155227Y20544D01*
X155218Y20494D01*
X155213Y20443D01*
Y20401D01*
X155208Y20369D01*
Y20323D01*
X155218Y20162D01*
X155236Y20010D01*
X155264Y19876D01*
X155278Y19811D01*
X155296Y19751D01*
X155314Y19701D01*
X155328Y19655D01*
X155342Y19613D01*
X155356Y19576D01*
X155370Y19549D01*
X155374Y19530D01*
X155384Y19516D01*
Y19512D01*
X155457Y19383D01*
X155540Y19267D01*
X155628Y19171D01*
X155711Y19092D01*
X155789Y19028D01*
X155822Y19000D01*
X155854Y18981D01*
X155877Y18968D01*
X155895Y18954D01*
X155904Y18949D01*
X155909Y18945D01*
X155978Y18908D01*
X156047Y18880D01*
X156190Y18829D01*
X156328Y18797D01*
X156458Y18769D01*
X156518Y18765D01*
X156568Y18756D01*
X156619Y18751D01*
X156660D01*
X156693Y18746D01*
X156739D01*
X156877Y18751D01*
X157011Y18769D01*
X157135Y18792D01*
X157246Y18816D01*
X157297Y18829D01*
X157343Y18843D01*
X157380Y18853D01*
X157412Y18862D01*
X157440Y18871D01*
X157458Y18880D01*
X157472Y18885D01*
X157476D01*
X157606Y18940D01*
X157716Y18995D01*
X157813Y19051D01*
X157891Y19101D01*
X157956Y19148D01*
X157997Y19180D01*
X158025Y19203D01*
X158034Y19212D01*
Y20425D01*
X156720D01*
Y19913D01*
X157416D01*
Y19525D01*
X157361Y19484D01*
X157306Y19452D01*
X157250Y19420D01*
X157200Y19392D01*
X157154Y19369D01*
X157117Y19355D01*
X157094Y19346D01*
X157085Y19341D01*
X157011Y19318D01*
X156942Y19300D01*
X156877Y19286D01*
X156822Y19277D01*
X156771Y19272D01*
X156734Y19267D01*
X156702D01*
X156633Y19272D01*
X156564Y19281D01*
X156499Y19290D01*
X156439Y19309D01*
X156333Y19350D01*
X156246Y19401D01*
X156204Y19424D01*
X156172Y19452D01*
X156144Y19475D01*
X156116Y19493D01*
X156098Y19512D01*
X156084Y19525D01*
X156080Y19530D01*
X156075Y19535D01*
X156034Y19590D01*
X155997Y19650D01*
X155964Y19710D01*
X155941Y19774D01*
X155895Y19913D01*
X155868Y20042D01*
X155858Y20106D01*
X155854Y20162D01*
X155849Y20212D01*
X155844Y20258D01*
X155840Y20295D01*
Y20323D01*
Y20342D01*
Y20346D01*
X155844Y20438D01*
X155849Y20521D01*
X155863Y20604D01*
X155877Y20678D01*
X155895Y20743D01*
X155914Y20807D01*
X155932Y20862D01*
X155955Y20913D01*
X155978Y20959D01*
X155997Y20996D01*
X156015Y21028D01*
X156034Y21056D01*
X156047Y21075D01*
X156061Y21088D01*
X156066Y21098D01*
X156070Y21102D01*
X156116Y21148D01*
X156167Y21190D01*
X156218Y21222D01*
X156269Y21250D01*
X156375Y21296D01*
X156476Y21328D01*
X156568Y21347D01*
X156605Y21351D01*
X156642Y21356D01*
X156670Y21360D01*
X156707D01*
X156799Y21356D01*
X156886Y21342D01*
X156960Y21319D01*
X157025Y21296D01*
X157075Y21273D01*
X157112Y21250D01*
X157135Y21236D01*
X157144Y21231D01*
X157204Y21181D01*
X157255Y21121D01*
X157297Y21065D01*
X157329Y21010D01*
X157357Y20959D01*
X157370Y20918D01*
X157380Y20890D01*
X157384Y20886D01*
Y20881D01*
X157993Y20996D01*
X157974Y21070D01*
X157947Y21144D01*
X157891Y21268D01*
X157859Y21328D01*
X157822Y21379D01*
X157790Y21429D01*
X157753Y21471D01*
X157721Y21512D01*
X157688Y21545D01*
X157661Y21572D01*
X157633Y21600D01*
X157615Y21619D01*
X157596Y21632D01*
X157587Y21637D01*
X157582Y21642D01*
X157522Y21683D01*
X157453Y21720D01*
X157384Y21752D01*
X157315Y21780D01*
X157168Y21821D01*
X157029Y21854D01*
X156960Y21863D01*
X156900Y21867D01*
X156845Y21872D01*
X156799Y21877D01*
X156762Y21881D01*
D02*
G37*
G36*
X161008Y21831D02*
X160441D01*
Y19797D01*
X159191Y21831D01*
X158601D01*
Y18802D01*
X159168D01*
Y20789D01*
X160395Y18802D01*
X161008D01*
Y21831D01*
D02*
G37*
G36*
X162856D02*
X161653D01*
Y18802D01*
X162796D01*
X162916Y18806D01*
X163027Y18811D01*
X163119Y18820D01*
X163193Y18834D01*
X163257Y18843D01*
X163299Y18853D01*
X163327Y18857D01*
X163336Y18862D01*
X163433Y18899D01*
X163515Y18936D01*
X163589Y18977D01*
X163654Y19018D01*
X163700Y19051D01*
X163737Y19078D01*
X163755Y19101D01*
X163765Y19106D01*
X163838Y19189D01*
X163903Y19277D01*
X163958Y19364D01*
X164004Y19452D01*
X164041Y19525D01*
X164055Y19558D01*
X164069Y19586D01*
X164078Y19609D01*
X164083Y19627D01*
X164087Y19636D01*
Y19641D01*
X164120Y19747D01*
X164143Y19858D01*
X164161Y19963D01*
X164170Y20065D01*
X164179Y20153D01*
Y20189D01*
X164184Y20222D01*
Y20286D01*
X164179Y20438D01*
X164170Y20577D01*
X164152Y20701D01*
X164143Y20752D01*
X164133Y20802D01*
X164124Y20849D01*
X164115Y20886D01*
X164106Y20922D01*
X164096Y20950D01*
X164092Y20973D01*
X164087Y20987D01*
X164083Y20996D01*
Y21001D01*
X164041Y21107D01*
X163995Y21199D01*
X163949Y21282D01*
X163903Y21356D01*
X163857Y21411D01*
X163824Y21452D01*
X163801Y21480D01*
X163797Y21489D01*
X163792D01*
X163718Y21558D01*
X163640Y21619D01*
X163566Y21669D01*
X163497Y21706D01*
X163433Y21734D01*
X163386Y21757D01*
X163368Y21761D01*
X163354Y21766D01*
X163345Y21771D01*
X163340D01*
X163257Y21789D01*
X163165Y21808D01*
X163073Y21817D01*
X162976Y21821D01*
X162893Y21826D01*
X162856Y21831D01*
D02*
G37*
%LPD*%
G36*
X162723Y21314D02*
X162773D01*
X162819Y21310D01*
X162856D01*
X162893Y21305D01*
X162926D01*
X162976Y21296D01*
X163008Y21291D01*
X163031Y21286D01*
X163036D01*
X163096Y21268D01*
X163151Y21250D01*
X163202Y21227D01*
X163239Y21204D01*
X163271Y21181D01*
X163299Y21162D01*
X163313Y21148D01*
X163317Y21144D01*
X163359Y21102D01*
X163391Y21051D01*
X163419Y21005D01*
X163446Y20955D01*
X163465Y20913D01*
X163479Y20881D01*
X163483Y20858D01*
X163488Y20849D01*
X163511Y20775D01*
X163525Y20687D01*
X163539Y20600D01*
X163543Y20512D01*
X163548Y20434D01*
X163552Y20401D01*
Y20374D01*
Y20346D01*
Y20328D01*
Y20319D01*
Y20314D01*
X163548Y20189D01*
X163543Y20079D01*
X163534Y19982D01*
X163520Y19904D01*
X163506Y19839D01*
X163497Y19793D01*
X163493Y19779D01*
Y19765D01*
X163488Y19761D01*
Y19756D01*
X163465Y19687D01*
X163437Y19627D01*
X163414Y19576D01*
X163386Y19535D01*
X163363Y19502D01*
X163350Y19484D01*
X163336Y19470D01*
X163331Y19466D01*
X163294Y19433D01*
X163253Y19410D01*
X163170Y19369D01*
X163137Y19360D01*
X163110Y19350D01*
X163087Y19341D01*
X163082D01*
X163036Y19332D01*
X162981Y19327D01*
X162916Y19318D01*
X162861D01*
X162806Y19313D01*
X162266D01*
Y21319D01*
X162667D01*
X162723Y21314D01*
D02*
G37*
%LPC*%
G36*
X15980Y48857D02*
X15943D01*
X15858Y48853D01*
X15778Y48844D01*
X15710Y48827D01*
X15647Y48814D01*
X15597Y48798D01*
X15559Y48781D01*
X15533Y48772D01*
X15529Y48768D01*
X15525D01*
X15461Y48734D01*
X15402Y48696D01*
X15356Y48658D01*
X15314Y48620D01*
X15280Y48582D01*
X15259Y48557D01*
X15242Y48540D01*
X15238Y48532D01*
X15204Y48473D01*
X15170Y48405D01*
X15145Y48338D01*
X15124Y48274D01*
X15107Y48215D01*
X15094Y48169D01*
X15090Y48152D01*
Y48139D01*
X15086Y48131D01*
Y48127D01*
X15575Y48046D01*
X15584Y48110D01*
X15601Y48165D01*
X15618Y48211D01*
X15639Y48253D01*
X15660Y48283D01*
X15673Y48304D01*
X15685Y48317D01*
X15689Y48321D01*
X15727Y48355D01*
X15769Y48376D01*
X15808Y48393D01*
X15845Y48405D01*
X15879Y48414D01*
X15905Y48418D01*
X15926D01*
X15976Y48414D01*
X16023Y48405D01*
X16061Y48393D01*
X16094Y48376D01*
X16120Y48359D01*
X16137Y48346D01*
X16149Y48338D01*
X16153Y48333D01*
X16183Y48300D01*
X16204Y48262D01*
X16217Y48224D01*
X16229Y48190D01*
X16234Y48160D01*
X16238Y48135D01*
Y48114D01*
Y48110D01*
X16234Y48051D01*
X16221Y48000D01*
X16200Y47954D01*
X16179Y47916D01*
X16158Y47886D01*
X16137Y47861D01*
X16124Y47848D01*
X16120Y47844D01*
X16073Y47814D01*
X16018Y47789D01*
X15964Y47772D01*
X15913Y47764D01*
X15867Y47760D01*
X15824Y47755D01*
X15791D01*
X15732Y47325D01*
X15782Y47337D01*
X15829Y47350D01*
X15871Y47359D01*
X15905Y47363D01*
X15934Y47367D01*
X15972D01*
X16027Y47363D01*
X16078Y47350D01*
X16124Y47329D01*
X16162Y47308D01*
X16196Y47287D01*
X16217Y47266D01*
X16234Y47253D01*
X16238Y47249D01*
X16276Y47203D01*
X16301Y47148D01*
X16322Y47097D01*
X16335Y47046D01*
X16343Y47000D01*
X16348Y46962D01*
Y46937D01*
Y46932D01*
Y46928D01*
X16343Y46852D01*
X16331Y46785D01*
X16310Y46726D01*
X16293Y46675D01*
X16272Y46637D01*
X16251Y46612D01*
X16238Y46591D01*
X16234Y46586D01*
X16187Y46544D01*
X16141Y46515D01*
X16094Y46494D01*
X16052Y46481D01*
X16014Y46472D01*
X15985Y46464D01*
X15955D01*
X15900Y46468D01*
X15850Y46481D01*
X15808Y46498D01*
X15769Y46515D01*
X15736Y46532D01*
X15715Y46548D01*
X15698Y46561D01*
X15694Y46565D01*
X15656Y46608D01*
X15626Y46658D01*
X15605Y46709D01*
X15588Y46755D01*
X15575Y46802D01*
X15567Y46835D01*
X15563Y46861D01*
Y46865D01*
Y46869D01*
X15048Y46806D01*
D01*
X15056Y46742D01*
X15069Y46679D01*
X15107Y46569D01*
X15153Y46472D01*
X15204Y46392D01*
X15229Y46358D01*
X15250Y46329D01*
X15271Y46299D01*
X15293Y46278D01*
X15310Y46261D01*
X15322Y46249D01*
X15326Y46245D01*
X15331Y46240D01*
X15377Y46202D01*
X15428Y46169D01*
X15483Y46139D01*
X15533Y46118D01*
X15639Y46076D01*
X15740Y46050D01*
X15782Y46042D01*
X15824Y46038D01*
X15862Y46034D01*
X15896Y46029D01*
X15921Y46025D01*
X15048D01*
X16892D01*
Y46903D01*
X16888Y46996D01*
X16871Y47076D01*
X16846Y47152D01*
X16820Y47215D01*
X16795Y47266D01*
X16770Y47304D01*
X16753Y47325D01*
X16749Y47333D01*
X16690Y47392D01*
X16630Y47443D01*
X16567Y47485D01*
X16504Y47515D01*
X16453Y47536D01*
X16407Y47553D01*
X16390Y47557D01*
X16381D01*
X16373Y47561D01*
X16369D01*
X16441Y47603D01*
X16500Y47650D01*
X16554Y47696D01*
X16601Y47747D01*
X16639Y47793D01*
X16673Y47844D01*
X16698Y47890D01*
X16719Y47937D01*
X16736Y47979D01*
X16749Y48017D01*
X16757Y48051D01*
X16765Y48085D01*
Y48110D01*
X16770Y48127D01*
Y48139D01*
Y48144D01*
Y48190D01*
X16761Y48236D01*
X16740Y48325D01*
X16706Y48401D01*
X16673Y48469D01*
X16635Y48528D01*
X16601Y48570D01*
X16588Y48582D01*
X16580Y48595D01*
X16576Y48599D01*
X16571Y48603D01*
X16525Y48650D01*
X16478Y48688D01*
X16424Y48722D01*
X16373Y48751D01*
X16322Y48777D01*
X16267Y48793D01*
X16170Y48827D01*
X16124Y48836D01*
X16078Y48844D01*
X16040Y48848D01*
X16006Y48853D01*
X15980Y48857D01*
D02*
G37*
G36*
X11246D02*
X11208D01*
X11123Y48853D01*
X11043Y48844D01*
X10976Y48827D01*
X10912Y48814D01*
X10862Y48798D01*
X10824Y48781D01*
X10798Y48772D01*
X10794Y48768D01*
X10790D01*
X10727Y48734D01*
X10667Y48696D01*
X10621Y48658D01*
X10579Y48620D01*
X10545Y48582D01*
X10524Y48557D01*
X10507Y48540D01*
X10503Y48532D01*
X10469Y48473D01*
X10435Y48405D01*
X10410Y48338D01*
X10389Y48274D01*
X10372Y48215D01*
X10360Y48169D01*
X10355Y48152D01*
Y48139D01*
X10351Y48131D01*
Y48127D01*
X10841Y48046D01*
X10849Y48110D01*
X10866Y48165D01*
X10883Y48211D01*
X10904Y48253D01*
X10925Y48283D01*
X10938Y48304D01*
X10950Y48317D01*
X10954Y48321D01*
X10993Y48355D01*
X11035Y48376D01*
X11073Y48393D01*
X11111Y48405D01*
X11144Y48414D01*
X11170Y48418D01*
X11191D01*
X11242Y48414D01*
X11288Y48405D01*
X11326Y48393D01*
X11360Y48376D01*
X11385Y48359D01*
X11402Y48346D01*
X11415Y48338D01*
X11419Y48333D01*
X11448Y48300D01*
X11469Y48262D01*
X11482Y48224D01*
X11495Y48190D01*
X11499Y48160D01*
X11503Y48135D01*
Y48114D01*
Y48110D01*
X11499Y48051D01*
X11486Y48000D01*
X11465Y47954D01*
X11444Y47916D01*
X11423Y47886D01*
X11402Y47861D01*
X11389Y47848D01*
X11385Y47844D01*
X11338Y47814D01*
X11284Y47789D01*
X11229Y47772D01*
X11178Y47764D01*
X11132Y47760D01*
X11090Y47755D01*
X11056D01*
X10997Y47325D01*
X11047Y47337D01*
X11094Y47350D01*
X11136Y47359D01*
X11170Y47363D01*
X11199Y47367D01*
X11237D01*
X11292Y47363D01*
X11343Y47350D01*
X11389Y47329D01*
X11427Y47308D01*
X11461Y47287D01*
X11482Y47266D01*
X11499Y47253D01*
X11503Y47249D01*
X11541Y47203D01*
X11566Y47148D01*
X11587Y47097D01*
X11600Y47046D01*
X11609Y47000D01*
X11613Y46962D01*
Y46937D01*
Y46932D01*
Y46928D01*
X11609Y46852D01*
X11596Y46785D01*
X11575Y46726D01*
X11558Y46675D01*
X11537Y46637D01*
X11516Y46612D01*
X11503Y46591D01*
X11499Y46586D01*
X11452Y46544D01*
X11406Y46515D01*
X11360Y46494D01*
X11317Y46481D01*
X11279Y46472D01*
X11250Y46464D01*
X11220D01*
X11165Y46468D01*
X11115Y46481D01*
X11073Y46498D01*
X11035Y46515D01*
X11001Y46532D01*
X10980Y46548D01*
X10963Y46561D01*
X10959Y46565D01*
X10921Y46608D01*
X10891Y46658D01*
X10870Y46709D01*
X10853Y46755D01*
X10841Y46802D01*
X10832Y46835D01*
X10828Y46861D01*
Y46865D01*
Y46869D01*
X10313Y46806D01*
D01*
X10322Y46742D01*
X10334Y46679D01*
X10372Y46569D01*
X10419Y46472D01*
X10469Y46392D01*
X10494Y46358D01*
X10516Y46329D01*
X10537Y46299D01*
X10558Y46278D01*
X10575Y46261D01*
X10587Y46249D01*
X10592Y46245D01*
X10596Y46240D01*
X10642Y46202D01*
X10693Y46169D01*
X10748Y46139D01*
X10798Y46118D01*
X10904Y46076D01*
X11005Y46050D01*
X11047Y46042D01*
X11090Y46038D01*
X11128Y46034D01*
X11161Y46029D01*
X11187Y46025D01*
X10313D01*
X12157D01*
Y46903D01*
X12153Y46996D01*
X12136Y47076D01*
X12111Y47152D01*
X12086Y47215D01*
X12060Y47266D01*
X12035Y47304D01*
X12018Y47325D01*
X12014Y47333D01*
X11955Y47392D01*
X11896Y47443D01*
X11832Y47485D01*
X11769Y47515D01*
X11718Y47536D01*
X11672Y47553D01*
X11655Y47557D01*
X11647D01*
X11638Y47561D01*
X11634D01*
X11706Y47603D01*
X11765Y47650D01*
X11820Y47696D01*
X11866Y47747D01*
X11904Y47793D01*
X11938Y47844D01*
X11963Y47890D01*
X11984Y47937D01*
X12001Y47979D01*
X12014Y48017D01*
X12022Y48051D01*
X12031Y48085D01*
Y48110D01*
X12035Y48127D01*
Y48139D01*
Y48144D01*
Y48190D01*
X12026Y48236D01*
X12005Y48325D01*
X11971Y48401D01*
X11938Y48469D01*
X11900Y48528D01*
X11866Y48570D01*
X11853Y48582D01*
X11845Y48595D01*
X11841Y48599D01*
X11836Y48603D01*
X11790Y48650D01*
X11744Y48688D01*
X11689Y48722D01*
X11638Y48751D01*
X11587Y48777D01*
X11533Y48793D01*
X11436Y48827D01*
X11389Y48836D01*
X11343Y48844D01*
X11305Y48848D01*
X11271Y48853D01*
X11246Y48857D01*
D02*
G37*
G36*
X14904Y48848D02*
D01*
Y46076D01*
X13917D01*
X14904Y48848D01*
X14305D01*
X13630Y46797D01*
X12925Y48848D01*
X12322D01*
D01*
X13314Y46076D01*
X12322D01*
D01*
X14904D01*
Y48848D01*
D02*
G37*
%LPD*%
G36*
X16892Y46025D02*
X15959D01*
X16031Y46029D01*
X16103Y46038D01*
X16166Y46050D01*
X16229Y46067D01*
X16289Y46084D01*
X16343Y46105D01*
X16394Y46131D01*
X16441Y46156D01*
X16483Y46177D01*
X16517Y46202D01*
X16550Y46224D01*
X16576Y46245D01*
X16597Y46257D01*
X16609Y46270D01*
X16618Y46278D01*
X16622Y46283D01*
X16668Y46333D01*
X16711Y46384D01*
X16749Y46435D01*
X16778Y46489D01*
X16803Y46540D01*
X16825Y46591D01*
X16858Y46688D01*
X16871Y46734D01*
X16879Y46776D01*
X16884Y46810D01*
X16888Y46844D01*
X16892Y46869D01*
Y46025D01*
D02*
G37*
G36*
X12157D02*
X11225D01*
X11296Y46029D01*
X11368Y46038D01*
X11431Y46050D01*
X11495Y46067D01*
X11554Y46084D01*
X11609Y46105D01*
X11659Y46131D01*
X11706Y46156D01*
X11748Y46177D01*
X11782Y46202D01*
X11815Y46224D01*
X11841Y46245D01*
X11862Y46257D01*
X11874Y46270D01*
X11883Y46278D01*
X11887Y46283D01*
X11934Y46333D01*
X11976Y46384D01*
X12014Y46435D01*
X12043Y46489D01*
X12069Y46540D01*
X12090Y46591D01*
X12123Y46688D01*
X12136Y46734D01*
X12145Y46776D01*
X12149Y46810D01*
X12153Y46844D01*
X12157Y46869D01*
Y46025D01*
D02*
G37*
%LPC*%
G36*
X183341Y38891D02*
X180560D01*
Y38456D01*
X180652Y38419D01*
X180737Y38368D01*
X180813Y38313D01*
X180876Y38258D01*
X180931Y38203D01*
X180969Y38161D01*
X180982Y38148D01*
X180994Y38136D01*
X180999Y38127D01*
X181003Y38123D01*
X181070Y38035D01*
X181121Y37950D01*
X181167Y37874D01*
X181201Y37807D01*
X181231Y37752D01*
X181247Y37710D01*
X181252Y37693D01*
X181256Y37680D01*
X181260Y37676D01*
Y37672D01*
X180560D01*
X181741D01*
X181686Y37815D01*
X181623Y37946D01*
X181560Y38060D01*
X181526Y38115D01*
X181492Y38161D01*
X181463Y38208D01*
X181433Y38245D01*
X181408Y38279D01*
X181387Y38309D01*
X181366Y38330D01*
X181353Y38347D01*
X181345Y38355D01*
X181340Y38359D01*
X183341D01*
Y37752D01*
Y38891D01*
D02*
G37*
G36*
Y37279D02*
Y36465D01*
X181036D01*
Y37279D01*
X183341D01*
X180568D01*
Y35089D01*
X181036D01*
Y35903D01*
X183341D01*
Y37279D01*
D02*
G37*
G36*
Y34692D02*
X180568D01*
Y32489D01*
X183341D01*
Y34692D01*
D02*
G37*
G36*
Y31958D02*
X180568D01*
Y31396D01*
X183341D01*
Y31958D01*
D02*
G37*
G36*
X184104Y31148D02*
X183341D01*
Y28940D01*
D01*
Y31148D01*
X183758D01*
Y28940D01*
X184104D01*
Y31148D01*
D02*
G37*
G36*
X183387Y28780D02*
X182500D01*
X183387D01*
D01*
D02*
G37*
G36*
X182492D02*
X180522D01*
Y26366D01*
Y27662D01*
X180526Y27556D01*
X180539Y27455D01*
X180555Y27358D01*
X180581Y27269D01*
X180610Y27185D01*
X180644Y27109D01*
X180678Y27037D01*
X180712Y26974D01*
X180749Y26915D01*
X180783Y26864D01*
X180817Y26822D01*
X180847Y26784D01*
X180872Y26759D01*
X180889Y26738D01*
X180902Y26725D01*
X180906Y26721D01*
X180982Y26657D01*
X181062Y26603D01*
X181146Y26556D01*
X181235Y26514D01*
X181324Y26480D01*
X181416Y26455D01*
X181501Y26430D01*
X181589Y26413D01*
X181669Y26396D01*
X181741Y26383D01*
X181809Y26379D01*
X181868Y26370D01*
X181914D01*
X181952Y26366D01*
X181982D01*
X182100Y26370D01*
X182214Y26383D01*
X182319Y26400D01*
X182416Y26421D01*
X182509Y26451D01*
X182594Y26480D01*
X182674Y26510D01*
X182741Y26544D01*
X182805Y26577D01*
X182860Y26607D01*
X182906Y26641D01*
X182944Y26666D01*
X182974Y26687D01*
X182995Y26704D01*
X183007Y26717D01*
X183011Y26721D01*
X183079Y26788D01*
X183134Y26860D01*
X183185Y26936D01*
X183227Y27012D01*
X183265Y27088D01*
X183294Y27164D01*
X183319Y27236D01*
X183341Y27307D01*
X183358Y27375D01*
X183366Y27434D01*
X183374Y27489D01*
X183383Y27535D01*
Y27573D01*
X183387Y27603D01*
Y27628D01*
X183383Y27708D01*
X183379Y27788D01*
X183366Y27860D01*
X183353Y27932D01*
X183336Y27995D01*
X183319Y28054D01*
X183298Y28109D01*
X183277Y28160D01*
X183256Y28206D01*
X183235Y28248D01*
X183218Y28282D01*
X183201Y28312D01*
X183189Y28333D01*
X183176Y28350D01*
X183172Y28358D01*
X183168Y28362D01*
X183125Y28417D01*
X183075Y28464D01*
X182969Y28552D01*
X182855Y28624D01*
X182746Y28679D01*
X182695Y28704D01*
X182644Y28725D01*
X182602Y28742D01*
X182564Y28755D01*
X182530Y28767D01*
X182509Y28776D01*
X182492Y28780D01*
D02*
G37*
G36*
X183387Y25986D02*
X182500D01*
X183387D01*
D01*
D02*
G37*
G36*
X182492D02*
X180522D01*
X182488D01*
X182319Y25442D01*
X182429Y25412D01*
X182518Y25374D01*
X182598Y25337D01*
X182661Y25299D01*
X182708Y25265D01*
X182746Y25235D01*
X182763Y25218D01*
X182771Y25210D01*
X182817Y25147D01*
X182851Y25083D01*
X182876Y25020D01*
X182893Y24957D01*
X182902Y24906D01*
X182906Y24864D01*
X182910Y24847D01*
Y24826D01*
X182906Y24771D01*
X182902Y24720D01*
X182876Y24623D01*
X182843Y24539D01*
X182800Y24467D01*
X182758Y24412D01*
X182724Y24370D01*
X182699Y24345D01*
X182695Y24341D01*
X182691Y24336D01*
X182644Y24303D01*
X182594Y24277D01*
X182539Y24252D01*
X182480Y24231D01*
X182353Y24197D01*
X182231Y24176D01*
X182172Y24168D01*
X182117Y24159D01*
X182070Y24155D01*
X182024D01*
X181990Y24151D01*
X181961D01*
X181944D01*
X181940D01*
X181851Y24155D01*
X181767Y24159D01*
X181686Y24168D01*
X181619Y24180D01*
X181551Y24193D01*
X181492Y24210D01*
X181442Y24227D01*
X181395Y24248D01*
X181353Y24265D01*
X181319Y24282D01*
X181290Y24298D01*
X181264Y24311D01*
X181247Y24324D01*
X181231Y24332D01*
X181226Y24341D01*
X181222D01*
X181184Y24379D01*
X181146Y24417D01*
X181117Y24459D01*
X181091Y24497D01*
X181053Y24581D01*
X181028Y24661D01*
X181011Y24733D01*
X181007Y24763D01*
X181003Y24788D01*
X180999Y24809D01*
Y24839D01*
X181003Y24919D01*
X181020Y24991D01*
X181036Y25058D01*
X181062Y25113D01*
X181083Y25159D01*
X181104Y25189D01*
X181121Y25210D01*
X181125Y25218D01*
X181176Y25273D01*
X181231Y25315D01*
X181286Y25354D01*
X181340Y25379D01*
X181391Y25400D01*
X181429Y25417D01*
X181454Y25421D01*
X181458Y25425D01*
X181463D01*
X181332Y25978D01*
X181214Y25940D01*
X181113Y25894D01*
X181028Y25843D01*
X180956Y25797D01*
X180897Y25754D01*
X180859Y25721D01*
X180834Y25699D01*
X180825Y25695D01*
Y25691D01*
X180771Y25628D01*
X180724Y25564D01*
X180686Y25497D01*
X180648Y25429D01*
X180619Y25362D01*
X180598Y25290D01*
X180577Y25227D01*
X180560Y25159D01*
X180547Y25100D01*
X180539Y25045D01*
X180530Y24995D01*
X180526Y24952D01*
X180522Y24919D01*
Y24868D01*
X180526Y24763D01*
X180539Y24661D01*
X180555Y24564D01*
X180581Y24476D01*
X180610Y24391D01*
X180644Y24315D01*
X180678Y24244D01*
X180712Y24180D01*
X180749Y24121D01*
X180783Y24071D01*
X180817Y24028D01*
X180847Y23990D01*
X180872Y23965D01*
X180889Y23944D01*
X180902Y23931D01*
X180906Y23927D01*
X180982Y23864D01*
X181062Y23809D01*
X181146Y23763D01*
X181235Y23720D01*
X181324Y23686D01*
X181416Y23661D01*
X181501Y23636D01*
X181589Y23619D01*
X181669Y23602D01*
X181741Y23589D01*
X181809Y23585D01*
X181868Y23577D01*
X181914D01*
X181952Y23573D01*
X181982D01*
X182100Y23577D01*
X182214Y23589D01*
X182319Y23606D01*
X182416Y23628D01*
X182509Y23657D01*
X182594Y23686D01*
X182674Y23716D01*
X182741Y23750D01*
X182805Y23784D01*
X182860Y23813D01*
X182906Y23847D01*
X182944Y23872D01*
X182974Y23893D01*
X182995Y23910D01*
X183007Y23923D01*
X183011Y23927D01*
X183079Y23995D01*
X183134Y24066D01*
X183185Y24142D01*
X183227Y24218D01*
X183265Y24294D01*
X183294Y24370D01*
X183319Y24442D01*
X183341Y24514D01*
X183358Y24581D01*
X183366Y24640D01*
X183374Y24695D01*
X183383Y24742D01*
Y24780D01*
X183387Y24809D01*
Y23944D01*
Y24809D01*
Y24834D01*
X183383Y24915D01*
X183379Y24995D01*
X183366Y25067D01*
X183353Y25138D01*
X183336Y25201D01*
X183319Y25261D01*
X183298Y25315D01*
X183277Y25366D01*
X183256Y25412D01*
X183235Y25455D01*
X183218Y25488D01*
X183201Y25518D01*
X183189Y25539D01*
X183176Y25556D01*
X183172Y25564D01*
X183168Y25569D01*
X183125Y25624D01*
X183075Y25670D01*
X182969Y25759D01*
X182855Y25830D01*
X182746Y25885D01*
X182695Y25910D01*
X182644Y25932D01*
X182602Y25949D01*
X182564Y25961D01*
X182530Y25974D01*
X182509Y25982D01*
X182492Y25986D01*
D02*
G37*
G36*
X183341Y23379D02*
X180568Y22264D01*
Y21674D01*
X183341Y20597D01*
Y21188D01*
X182712Y21416D01*
Y22535D01*
X183341Y22771D01*
Y23379D01*
D02*
G37*
%LPD*%
G36*
X180568Y33030D02*
Y34173D01*
X182429D01*
X180568Y33030D01*
D02*
G37*
G36*
X183341Y33009D02*
X181522D01*
X183341Y34131D01*
Y33009D01*
D02*
G37*
G36*
X182319Y28236D02*
X182429Y28206D01*
X182518Y28168D01*
X182598Y28130D01*
X182661Y28092D01*
X182708Y28058D01*
X182746Y28029D01*
X182763Y28012D01*
X182771Y28004D01*
X182817Y27940D01*
X182851Y27877D01*
X182876Y27814D01*
X182893Y27750D01*
X182902Y27700D01*
X182906Y27658D01*
X182910Y27641D01*
Y27620D01*
X182906Y27565D01*
X182902Y27514D01*
X182876Y27417D01*
X182843Y27333D01*
X182800Y27261D01*
X182758Y27206D01*
X182724Y27164D01*
X182699Y27139D01*
X182695Y27134D01*
X182691Y27130D01*
X182644Y27096D01*
X182594Y27071D01*
X182539Y27046D01*
X182480Y27025D01*
X182353Y26991D01*
X182231Y26970D01*
X182172Y26961D01*
X182117Y26953D01*
X182070Y26949D01*
X182024D01*
X181990Y26944D01*
X181961D01*
X181944D01*
X181940D01*
X181851Y26949D01*
X181767Y26953D01*
X181686Y26961D01*
X181619Y26974D01*
X181551Y26987D01*
X181492Y27003D01*
X181442Y27020D01*
X181395Y27041D01*
X181353Y27058D01*
X181319Y27075D01*
X181290Y27092D01*
X181264Y27105D01*
X181247Y27117D01*
X181231Y27126D01*
X181226Y27134D01*
X181222D01*
X181184Y27172D01*
X181146Y27210D01*
X181117Y27252D01*
X181091Y27290D01*
X181053Y27375D01*
X181028Y27455D01*
X181011Y27527D01*
X181007Y27556D01*
X181003Y27582D01*
X180999Y27603D01*
Y27632D01*
X181003Y27712D01*
X181020Y27784D01*
X181036Y27852D01*
X181062Y27907D01*
X181083Y27953D01*
X181104Y27983D01*
X181121Y28004D01*
X181125Y28012D01*
X181176Y28067D01*
X181231Y28109D01*
X181286Y28147D01*
X181340Y28172D01*
X181391Y28194D01*
X181429Y28210D01*
X181454Y28215D01*
X181458Y28219D01*
X181463D01*
X181332Y28772D01*
X181214Y28734D01*
X181113Y28687D01*
X181028Y28637D01*
X180956Y28590D01*
X180897Y28548D01*
X180859Y28514D01*
X180834Y28493D01*
X180825Y28489D01*
Y28485D01*
X180771Y28421D01*
X180724Y28358D01*
X180686Y28291D01*
X180648Y28223D01*
X180619Y28155D01*
X180598Y28084D01*
X180577Y28021D01*
X180560Y27953D01*
X180547Y27894D01*
X180539Y27839D01*
X180530Y27788D01*
X180526Y27746D01*
X180522Y27712D01*
Y28780D01*
X182488D01*
X182319Y28236D01*
D02*
G37*
G36*
X182243Y21589D02*
X181214Y21965D01*
X182243Y22353D01*
Y21589D01*
D02*
G37*
%LPC*%
G36*
X193212Y39106D02*
X192718D01*
Y38047D01*
X192664Y38081D01*
X192621Y38119D01*
X192600Y38132D01*
X192588Y38144D01*
X192579Y38153D01*
X192575Y38157D01*
X192558Y38174D01*
X192541Y38191D01*
X192495Y38237D01*
X192444Y38288D01*
X192394Y38343D01*
X192343Y38393D01*
X192305Y38435D01*
X192288Y38448D01*
X192275Y38461D01*
X192271Y38469D01*
X192267Y38473D01*
X192187Y38562D01*
X192115Y38634D01*
X192052Y38697D01*
X192001Y38743D01*
X191963Y38781D01*
X191934Y38807D01*
X191917Y38820D01*
X191912Y38824D01*
X191845Y38874D01*
X191782Y38921D01*
X191723Y38959D01*
X191668Y38988D01*
X191625Y39009D01*
X191592Y39026D01*
X191571Y39035D01*
X191562Y39039D01*
X191499Y39060D01*
X191431Y39077D01*
X191372Y39090D01*
X191317Y39098D01*
X191271Y39102D01*
X191233Y39106D01*
X190431D01*
X191203D01*
X191144Y39102D01*
X191085Y39098D01*
X190980Y39068D01*
X190887Y39031D01*
X190807Y38988D01*
X190744Y38946D01*
X190714Y38925D01*
X190693Y38908D01*
X190676Y38891D01*
X190663Y38879D01*
X190659Y38874D01*
X190655Y38870D01*
X190617Y38824D01*
X190579Y38777D01*
X190549Y38722D01*
X190524Y38672D01*
X190486Y38562D01*
X190461Y38461D01*
X190448Y38410D01*
X190444Y38368D01*
X190440Y38326D01*
X190435Y38292D01*
X190431Y38262D01*
Y38157D01*
X190440Y38089D01*
X190461Y37971D01*
X190495Y37866D01*
X190511Y37819D01*
X190528Y37777D01*
X190545Y37735D01*
X190562Y37701D01*
X190579Y37672D01*
X190596Y37650D01*
X190608Y37629D01*
X190617Y37617D01*
X190621Y37608D01*
X190625Y37604D01*
X190663Y37562D01*
X190706Y37520D01*
X190752Y37486D01*
X190803Y37452D01*
X190908Y37402D01*
X191009Y37364D01*
X191060Y37347D01*
X191106Y37338D01*
X191144Y37326D01*
X191182Y37321D01*
X191212Y37313D01*
X191233D01*
X191250Y37309D01*
X191254D01*
X191305Y37836D01*
X191225Y37845D01*
X191153Y37857D01*
X191098Y37878D01*
X191051Y37895D01*
X191014Y37916D01*
X190992Y37929D01*
X190975Y37942D01*
X190971Y37946D01*
X190938Y37988D01*
X190912Y38030D01*
X190895Y38077D01*
X190883Y38119D01*
X190874Y38153D01*
X190870Y38186D01*
Y38212D01*
X190874Y38271D01*
X190887Y38326D01*
X190900Y38372D01*
X190917Y38410D01*
X190938Y38440D01*
X190950Y38461D01*
X190963Y38473D01*
X190967Y38478D01*
X191005Y38511D01*
X191051Y38533D01*
X191098Y38549D01*
X191140Y38562D01*
X191178Y38570D01*
X191212Y38575D01*
X191233D01*
X191241D01*
X191300Y38570D01*
X191360Y38558D01*
X191414Y38541D01*
X191465Y38520D01*
X191507Y38499D01*
X191537Y38482D01*
X191558Y38469D01*
X191566Y38465D01*
X191592Y38448D01*
X191621Y38423D01*
X191651Y38393D01*
X191684Y38359D01*
X191761Y38288D01*
X191836Y38212D01*
X191904Y38140D01*
X191938Y38106D01*
X191963Y38081D01*
X191984Y38056D01*
X192005Y38039D01*
X192014Y38026D01*
X192018Y38022D01*
X192094Y37942D01*
X192166Y37866D01*
X192233Y37802D01*
X192296Y37739D01*
X192356Y37684D01*
X192410Y37638D01*
X192461Y37591D01*
X192507Y37554D01*
X192545Y37524D01*
X192583Y37494D01*
X192613Y37473D01*
X192638Y37452D01*
X192659Y37440D01*
X192672Y37431D01*
X192680Y37423D01*
X192685D01*
X192778Y37372D01*
X192870Y37334D01*
X192959Y37300D01*
X193043Y37279D01*
X193111Y37262D01*
X193140Y37258D01*
X193166Y37254D01*
X193183Y37250D01*
X193200Y37245D01*
X193212D01*
Y39106D01*
D02*
G37*
G36*
Y37064D02*
D01*
Y36250D01*
X190908D01*
Y37064D01*
X193212D01*
X190440D01*
Y34874D01*
X190908D01*
Y35688D01*
X193212D01*
Y34874D01*
D01*
Y37064D01*
D02*
G37*
G36*
Y34477D02*
X190440D01*
Y32274D01*
X193212D01*
Y34477D01*
D02*
G37*
G36*
Y31743D02*
X190440D01*
Y31181D01*
X193212D01*
Y31743D01*
D02*
G37*
G36*
X193976Y30932D02*
X193212D01*
X193630D01*
Y28725D01*
X193976D01*
Y30932D01*
D02*
G37*
G36*
X193259Y28565D02*
X192372D01*
X193259D01*
Y27413D01*
X193254Y27493D01*
X193250Y27573D01*
X193237Y27645D01*
X193225Y27717D01*
X193208Y27780D01*
X193191Y27839D01*
X193170Y27894D01*
X193149Y27944D01*
X193128Y27991D01*
X193107Y28033D01*
X193090Y28067D01*
X193073Y28096D01*
X193060Y28117D01*
X193048Y28134D01*
X193043Y28143D01*
X193039Y28147D01*
X192997Y28202D01*
X192946Y28248D01*
X192841Y28337D01*
X192727Y28409D01*
X192617Y28464D01*
X192567Y28489D01*
X192516Y28510D01*
X192474Y28527D01*
X192436Y28540D01*
X192402Y28552D01*
X192381Y28561D01*
X192364Y28565D01*
X190393D01*
X192360D01*
X192191Y28021D01*
X192301Y27991D01*
X192389Y27953D01*
X192469Y27915D01*
X192533Y27877D01*
X192579Y27843D01*
X192617Y27814D01*
X192634Y27797D01*
X192642Y27788D01*
X192689Y27725D01*
X192723Y27662D01*
X192748Y27599D01*
X192765Y27535D01*
X192773Y27485D01*
X192778Y27442D01*
X192782Y27426D01*
Y27404D01*
X192778Y27349D01*
X192773Y27299D01*
X192748Y27202D01*
X192714Y27117D01*
X192672Y27046D01*
X192630Y26991D01*
X192596Y26949D01*
X192571Y26923D01*
X192567Y26919D01*
X192562Y26915D01*
X192516Y26881D01*
X192465Y26856D01*
X192410Y26831D01*
X192351Y26809D01*
X192225Y26776D01*
X192102Y26755D01*
X192043Y26746D01*
X191988Y26738D01*
X191942Y26733D01*
X191895D01*
X191862Y26729D01*
X191832D01*
X191815D01*
X191811D01*
X191723Y26733D01*
X191638Y26738D01*
X191558Y26746D01*
X191490Y26759D01*
X191423Y26771D01*
X191364Y26788D01*
X191313Y26805D01*
X191267Y26826D01*
X191225Y26843D01*
X191191Y26860D01*
X191161Y26877D01*
X191136Y26890D01*
X191119Y26902D01*
X191102Y26911D01*
X191098Y26919D01*
X191094D01*
X191056Y26957D01*
X191018Y26995D01*
X190988Y27037D01*
X190963Y27075D01*
X190925Y27160D01*
X190900Y27240D01*
X190883Y27312D01*
X190878Y27341D01*
X190874Y27366D01*
X190870Y27387D01*
Y27417D01*
X190874Y27497D01*
X190891Y27569D01*
X190908Y27637D01*
X190933Y27691D01*
X190954Y27738D01*
X190975Y27767D01*
X190992Y27788D01*
X190997Y27797D01*
X191047Y27852D01*
X191102Y27894D01*
X191157Y27932D01*
X191212Y27957D01*
X191262Y27978D01*
X191300Y27995D01*
X191326Y27999D01*
X191330Y28004D01*
X191334D01*
X191203Y28556D01*
X191085Y28519D01*
X190984Y28472D01*
X190900Y28421D01*
X190828Y28375D01*
X190769Y28333D01*
X190731Y28299D01*
X190706Y28278D01*
X190697Y28274D01*
Y28269D01*
X190642Y28206D01*
X190596Y28143D01*
X190558Y28075D01*
X190520Y28008D01*
X190490Y27940D01*
X190469Y27869D01*
X190448Y27805D01*
X190431Y27738D01*
X190419Y27679D01*
X190410Y27624D01*
X190402Y27573D01*
X190397Y27531D01*
X190393Y27497D01*
Y27447D01*
X190397Y27341D01*
X190410Y27240D01*
X190427Y27143D01*
X190452Y27054D01*
X190482Y26970D01*
X190516Y26894D01*
X190549Y26822D01*
X190583Y26759D01*
X190621Y26700D01*
X190655Y26649D01*
X190689Y26607D01*
X190718Y26569D01*
X190744Y26544D01*
X190760Y26522D01*
X190773Y26510D01*
X190777Y26506D01*
X190853Y26442D01*
X190933Y26387D01*
X191018Y26341D01*
X191106Y26299D01*
X191195Y26265D01*
X191288Y26240D01*
X191372Y26214D01*
X191461Y26197D01*
X191541Y26181D01*
X191613Y26168D01*
X191680Y26164D01*
X191739Y26155D01*
X191786D01*
X191824Y26151D01*
X191853D01*
X191972Y26155D01*
X192085Y26168D01*
X192191Y26185D01*
X192288Y26206D01*
X192381Y26235D01*
X192465Y26265D01*
X192545Y26294D01*
X192613Y26328D01*
X192676Y26362D01*
X192731Y26392D01*
X192778Y26425D01*
X192815Y26451D01*
X192845Y26472D01*
X192866Y26489D01*
X192879Y26501D01*
X192883Y26506D01*
X192950Y26573D01*
X193005Y26645D01*
X193056Y26721D01*
X193098Y26797D01*
X193136Y26873D01*
X193166Y26949D01*
X193191Y27020D01*
X193212Y27092D01*
X193229Y27160D01*
X193237Y27219D01*
X193246Y27274D01*
X193254Y27320D01*
Y27358D01*
X193259Y27387D01*
Y26151D01*
D01*
Y28565D01*
D02*
G37*
G36*
Y25771D02*
X192372D01*
X193259D01*
Y24619D01*
X193254Y24699D01*
X193250Y24780D01*
X193237Y24851D01*
X193225Y24923D01*
X193208Y24986D01*
X193191Y25045D01*
X193170Y25100D01*
X193149Y25151D01*
X193128Y25197D01*
X193107Y25240D01*
X193090Y25273D01*
X193073Y25303D01*
X193060Y25324D01*
X193048Y25341D01*
X193043Y25349D01*
X193039Y25354D01*
X192997Y25408D01*
X192946Y25455D01*
X192841Y25543D01*
X192727Y25615D01*
X192617Y25670D01*
X192567Y25695D01*
X192516Y25716D01*
X192474Y25733D01*
X192436Y25746D01*
X192402Y25759D01*
X192381Y25767D01*
X192364Y25771D01*
X190393D01*
X192360D01*
X192191Y25227D01*
X192301Y25197D01*
X192389Y25159D01*
X192469Y25121D01*
X192533Y25083D01*
X192579Y25050D01*
X192617Y25020D01*
X192634Y25003D01*
X192642Y24995D01*
X192689Y24931D01*
X192723Y24868D01*
X192748Y24805D01*
X192765Y24742D01*
X192773Y24691D01*
X192778Y24649D01*
X192782Y24632D01*
Y24611D01*
X192778Y24556D01*
X192773Y24505D01*
X192748Y24408D01*
X192714Y24324D01*
X192672Y24252D01*
X192630Y24197D01*
X192596Y24155D01*
X192571Y24130D01*
X192567Y24125D01*
X192562Y24121D01*
X192516Y24088D01*
X192465Y24062D01*
X192410Y24037D01*
X192351Y24016D01*
X192225Y23982D01*
X192102Y23961D01*
X192043Y23952D01*
X191988Y23944D01*
X191942Y23940D01*
X191895D01*
X191862Y23935D01*
X191832D01*
X191815D01*
X191811D01*
X191723Y23940D01*
X191638Y23944D01*
X191558Y23952D01*
X191490Y23965D01*
X191423Y23978D01*
X191364Y23995D01*
X191313Y24012D01*
X191267Y24033D01*
X191225Y24049D01*
X191191Y24066D01*
X191161Y24083D01*
X191136Y24096D01*
X191119Y24108D01*
X191102Y24117D01*
X191098Y24125D01*
X191094D01*
X191056Y24163D01*
X191018Y24201D01*
X190988Y24244D01*
X190963Y24282D01*
X190925Y24366D01*
X190900Y24446D01*
X190883Y24518D01*
X190878Y24547D01*
X190874Y24573D01*
X190870Y24594D01*
Y24623D01*
X190874Y24704D01*
X190891Y24775D01*
X190908Y24843D01*
X190933Y24898D01*
X190954Y24944D01*
X190975Y24974D01*
X190992Y24995D01*
X190997Y25003D01*
X191047Y25058D01*
X191102Y25100D01*
X191157Y25138D01*
X191212Y25164D01*
X191262Y25185D01*
X191300Y25201D01*
X191326Y25206D01*
X191330Y25210D01*
X191334D01*
X191203Y25763D01*
X191085Y25725D01*
X190984Y25678D01*
X190900Y25628D01*
X190828Y25581D01*
X190769Y25539D01*
X190731Y25505D01*
X190706Y25484D01*
X190697Y25480D01*
Y25476D01*
X190642Y25412D01*
X190596Y25349D01*
X190558Y25282D01*
X190520Y25214D01*
X190490Y25147D01*
X190469Y25075D01*
X190448Y25012D01*
X190431Y24944D01*
X190419Y24885D01*
X190410Y24830D01*
X190402Y24780D01*
X190397Y24737D01*
X190393Y24704D01*
Y24653D01*
X190397Y24547D01*
X190410Y24446D01*
X190427Y24349D01*
X190452Y24261D01*
X190482Y24176D01*
X190516Y24100D01*
X190549Y24028D01*
X190583Y23965D01*
X190621Y23906D01*
X190655Y23855D01*
X190689Y23813D01*
X190718Y23775D01*
X190744Y23750D01*
X190760Y23729D01*
X190773Y23716D01*
X190777Y23712D01*
X190853Y23649D01*
X190933Y23594D01*
X191018Y23547D01*
X191106Y23505D01*
X191195Y23471D01*
X191288Y23446D01*
X191372Y23421D01*
X191461Y23404D01*
X191541Y23387D01*
X191613Y23374D01*
X191680Y23370D01*
X191739Y23362D01*
X191786D01*
X191824Y23357D01*
X191853D01*
X191972Y23362D01*
X192085Y23374D01*
X192191Y23391D01*
X192288Y23412D01*
X192381Y23442D01*
X192465Y23471D01*
X192545Y23501D01*
X192613Y23535D01*
X192676Y23568D01*
X192731Y23598D01*
X192778Y23632D01*
X192815Y23657D01*
X192845Y23678D01*
X192866Y23695D01*
X192879Y23708D01*
X192883Y23712D01*
X192950Y23779D01*
X193005Y23851D01*
X193056Y23927D01*
X193098Y24003D01*
X193136Y24079D01*
X193166Y24155D01*
X193191Y24227D01*
X193212Y24298D01*
X193229Y24366D01*
X193237Y24425D01*
X193246Y24480D01*
X193254Y24526D01*
Y24564D01*
X193259Y24594D01*
Y23357D01*
D01*
Y25771D01*
D02*
G37*
G36*
X193212Y23163D02*
D01*
X190440Y22049D01*
Y21458D01*
X193212Y20382D01*
X190440D01*
X193212D01*
Y23163D01*
D02*
G37*
%LPD*%
G36*
X190440Y32814D02*
Y33958D01*
X192301D01*
X190440Y32814D01*
D02*
G37*
G36*
X193212Y32793D02*
X191393D01*
X193212Y33916D01*
Y32793D01*
D02*
G37*
G36*
X192115Y21374D02*
X191085Y21750D01*
X192115Y22138D01*
Y21374D01*
D02*
G37*
G36*
X193212Y20973D02*
X192583Y21201D01*
Y22319D01*
X193212Y22556D01*
Y20973D01*
D02*
G37*
%LPC*%
G36*
X74278Y137445D02*
X72469D01*
X72371Y137439D01*
X72285Y137433D01*
X72216Y137428D01*
X72164Y137416D01*
X72123Y137410D01*
X72101Y137405D01*
X72095D01*
X72031Y137387D01*
X71974Y137364D01*
X71922Y137341D01*
X71876Y137318D01*
X71841Y137295D01*
X71812Y137278D01*
X71795Y137266D01*
X71789Y137261D01*
X71738Y137220D01*
X71697Y137168D01*
X71657Y137122D01*
X71622Y137071D01*
X71599Y137030D01*
X71582Y136996D01*
X71570Y136973D01*
X71565Y136961D01*
X71536Y136886D01*
X71513Y136811D01*
X71501Y136736D01*
X71490Y136667D01*
X71484Y136610D01*
X71478Y136564D01*
Y136587D01*
Y136523D01*
X71484Y136425D01*
X71496Y136328D01*
X71519Y136241D01*
X71548Y136155D01*
X71588Y136074D01*
X71622Y135999D01*
X71668Y135936D01*
X71709Y135872D01*
X71749Y135815D01*
X71795Y135769D01*
X71830Y135723D01*
X71864Y135688D01*
X71899Y135659D01*
X71922Y135642D01*
X71933Y135631D01*
X71939Y135625D01*
X71536D01*
Y134951D01*
X74278D01*
Y137445D01*
D02*
G37*
G36*
X74347Y134369D02*
X72970D01*
X72826Y134358D01*
X72699Y134340D01*
X72579Y134323D01*
X72469Y134294D01*
X72365Y134265D01*
X72273Y134237D01*
X72193Y134202D01*
X72118Y134173D01*
X72060Y134139D01*
X72008Y134110D01*
X71962Y134087D01*
X71928Y134064D01*
X71905Y134046D01*
X71893Y134035D01*
X71887Y134029D01*
X71812Y133960D01*
X71755Y133885D01*
X71697Y133810D01*
X71651Y133730D01*
X71611Y133649D01*
X71576Y133568D01*
X71553Y133488D01*
X71530Y133413D01*
X71513Y133344D01*
X71501Y133275D01*
X71490Y133217D01*
X71484Y133165D01*
X71478Y133119D01*
Y133062D01*
X71484Y132964D01*
X71496Y132866D01*
X71513Y132779D01*
X71542Y132693D01*
X71570Y132612D01*
X71599Y132537D01*
X71640Y132474D01*
X71674Y132411D01*
X71709Y132353D01*
X71743Y132307D01*
X71778Y132261D01*
X71807Y132226D01*
X71836Y132198D01*
X71853Y132180D01*
X71864Y132169D01*
X71870Y132163D01*
X71945Y132100D01*
X72026Y132048D01*
X72112Y132002D01*
X72198Y131961D01*
X72290Y131927D01*
X72377Y131898D01*
X72550Y131858D01*
X72625Y131840D01*
X72699Y131829D01*
X72769Y131823D01*
X72821Y131817D01*
X72872Y131812D01*
X71478D01*
X74347D01*
Y133136D01*
X74335Y133298D01*
X74312Y133442D01*
X74283Y133568D01*
X74243Y133678D01*
X74203Y133764D01*
X74186Y133805D01*
X74174Y133833D01*
X74157Y133856D01*
X74151Y133874D01*
X74139Y133879D01*
Y133885D01*
X74053Y133989D01*
X73955Y134081D01*
X73857Y134156D01*
X73759Y134219D01*
X73673Y134265D01*
X73633Y134288D01*
X73598Y134300D01*
X73575Y134311D01*
X73552Y134323D01*
X73540Y134329D01*
X73535D01*
X73414Y133609D01*
X73489Y133586D01*
X73546Y133557D01*
X73598Y133522D01*
X73638Y133494D01*
X73673Y133470D01*
X73696Y133448D01*
X73707Y133436D01*
X73713Y133430D01*
X73742Y133384D01*
X73765Y133338D01*
X73782Y133286D01*
X73794Y133246D01*
X73800Y133205D01*
X73805Y133171D01*
Y133142D01*
X73800Y133056D01*
X73777Y132975D01*
X73748Y132900D01*
X73713Y132843D01*
X73685Y132791D01*
X73656Y132756D01*
X73633Y132733D01*
X73627Y132728D01*
X73552Y132670D01*
X73471Y132630D01*
X73391Y132601D01*
X73304Y132578D01*
X73235Y132566D01*
X73172Y132560D01*
X73149Y132555D01*
X73132D01*
X73126D01*
X73120D01*
Y134369D01*
X74347D01*
D02*
G37*
G36*
Y131431D02*
X72970D01*
X72826Y131420D01*
X72699Y131403D01*
X72579Y131385D01*
X72469Y131357D01*
X72365Y131328D01*
X72273Y131299D01*
X72193Y131264D01*
X72118Y131236D01*
X72060Y131201D01*
X72008Y131172D01*
X71962Y131149D01*
X71928Y131126D01*
X71905Y131109D01*
X71893Y131097D01*
X71887Y131092D01*
X71812Y131023D01*
X71755Y130948D01*
X71697Y130873D01*
X71651Y130792D01*
X71611Y130711D01*
X71576Y130631D01*
X71553Y130550D01*
X71530Y130475D01*
X71513Y130406D01*
X71501Y130337D01*
X71490Y130280D01*
X71484Y130228D01*
X71478Y130182D01*
Y130124D01*
X71484Y130026D01*
X71496Y129928D01*
X71513Y129842D01*
X71542Y129755D01*
X71570Y129675D01*
X71599Y129600D01*
X71640Y129536D01*
X71674Y129473D01*
X71709Y129416D01*
X71743Y129369D01*
X71778Y129323D01*
X71807Y129289D01*
X71836Y129260D01*
X71853Y129243D01*
X71864Y129231D01*
X71870Y129225D01*
X71945Y129162D01*
X72026Y129110D01*
X72112Y129064D01*
X72198Y129024D01*
X72290Y128989D01*
X72377Y128960D01*
X72550Y128920D01*
X72625Y128903D01*
X72699Y128891D01*
X72769Y128885D01*
X72821Y128880D01*
X72872Y128874D01*
X71478D01*
X74347D01*
Y130199D01*
X74335Y130360D01*
X74312Y130504D01*
X74283Y130631D01*
X74243Y130740D01*
X74203Y130827D01*
X74186Y130867D01*
X74174Y130896D01*
X74157Y130919D01*
X74151Y130936D01*
X74139Y130942D01*
Y130948D01*
X74053Y131051D01*
X73955Y131143D01*
X73857Y131218D01*
X73759Y131282D01*
X73673Y131328D01*
X73633Y131351D01*
X73598Y131362D01*
X73575Y131374D01*
X73552Y131385D01*
X73540Y131391D01*
X73535D01*
X73414Y130671D01*
X73489Y130648D01*
X73546Y130619D01*
X73598Y130585D01*
X73638Y130556D01*
X73673Y130533D01*
X73696Y130510D01*
X73707Y130498D01*
X73713Y130493D01*
X73742Y130447D01*
X73765Y130400D01*
X73782Y130349D01*
X73794Y130308D01*
X73800Y130268D01*
X73805Y130233D01*
Y130205D01*
X73800Y130118D01*
X73777Y130038D01*
X73748Y129963D01*
X73713Y129905D01*
X73685Y129853D01*
X73656Y129819D01*
X73633Y129796D01*
X73627Y129790D01*
X73552Y129732D01*
X73471Y129692D01*
X73391Y129663D01*
X73304Y129640D01*
X73235Y129629D01*
X73172Y129623D01*
X73149Y129617D01*
X73132D01*
X73126D01*
X73120D01*
Y131431D01*
X74347D01*
D02*
G37*
G36*
X74278Y128776D02*
D01*
Y127722D01*
X73437D01*
X73310D01*
X73195D01*
X73091Y127728D01*
X72999Y127734D01*
X72913D01*
X72838Y127739D01*
X72774Y127745D01*
X72717Y127751D01*
X72671Y127757D01*
X72625Y127762D01*
X72590Y127768D01*
X72567D01*
X72544Y127774D01*
X72532Y127780D01*
X72521D01*
X72446Y127803D01*
X72383Y127831D01*
X72325Y127860D01*
X72285Y127889D01*
X72256Y127912D01*
X72233Y127929D01*
X72221Y127941D01*
X72216Y127947D01*
X72187Y127987D01*
X72164Y128033D01*
X72152Y128079D01*
X72141Y128120D01*
X72135Y128154D01*
X72129Y128183D01*
Y128206D01*
X72135Y128269D01*
X72146Y128327D01*
X72170Y128384D01*
X72187Y128442D01*
X72210Y128482D01*
X72233Y128523D01*
X72244Y128546D01*
X72250Y128551D01*
X71617Y128776D01*
D01*
X71570Y128690D01*
X71536Y128603D01*
X71513Y128517D01*
X71496Y128448D01*
X71484Y128384D01*
X71478Y128333D01*
Y128292D01*
X71484Y128229D01*
X71490Y128171D01*
X71507Y128120D01*
X71519Y128073D01*
X71536Y128033D01*
X71553Y128004D01*
X71559Y127987D01*
X71565Y127981D01*
X71605Y127929D01*
X71657Y127872D01*
X71715Y127820D01*
X71778Y127774D01*
X71836Y127734D01*
X71882Y127699D01*
X71916Y127676D01*
X71922Y127670D01*
X71536D01*
Y126996D01*
X74278D01*
Y128776D01*
D02*
G37*
G36*
X74347Y126518D02*
D01*
Y125245D01*
X74341Y125343D01*
X74335Y125435D01*
X74306Y125602D01*
X74289Y125677D01*
X74266Y125746D01*
X74243Y125810D01*
X74220Y125867D01*
X74197Y125913D01*
X74180Y125960D01*
X74157Y126000D01*
X74139Y126029D01*
X74122Y126052D01*
X74111Y126075D01*
X74099Y126080D01*
Y126086D01*
X74047Y126144D01*
X73996Y126196D01*
X73880Y126288D01*
X73754Y126363D01*
X73633Y126420D01*
X73523Y126466D01*
X73477Y126484D01*
X73437Y126495D01*
X73402Y126507D01*
X73379Y126512D01*
X73362Y126518D01*
X71478D01*
X73356D01*
X73235Y125804D01*
X73333Y125781D01*
X73419Y125752D01*
X73489Y125718D01*
X73546Y125689D01*
X73586Y125660D01*
X73615Y125637D01*
X73633Y125620D01*
X73638Y125614D01*
X73679Y125562D01*
X73707Y125504D01*
X73725Y125447D01*
X73736Y125395D01*
X73748Y125349D01*
X73754Y125309D01*
Y125274D01*
X73748Y125176D01*
X73725Y125090D01*
X73690Y125015D01*
X73656Y124952D01*
X73621Y124900D01*
X73586Y124865D01*
X73563Y124842D01*
X73558Y124836D01*
X73517Y124808D01*
X73471Y124784D01*
X73362Y124744D01*
X73252Y124715D01*
X73137Y124698D01*
X73034Y124687D01*
X72988Y124681D01*
X72947Y124675D01*
X72913D01*
X72890D01*
X72872D01*
X72866D01*
X72786D01*
X72711Y124681D01*
X72584Y124698D01*
X72475Y124727D01*
X72388Y124756D01*
X72319Y124784D01*
X72273Y124813D01*
X72250Y124830D01*
X72239Y124836D01*
X72175Y124900D01*
X72129Y124975D01*
X72095Y125044D01*
X72072Y125113D01*
X72060Y125176D01*
X72049Y125222D01*
Y125268D01*
X72054Y125343D01*
X72066Y125407D01*
X72083Y125464D01*
X72101Y125516D01*
X72123Y125550D01*
X72141Y125579D01*
X72152Y125597D01*
X72158Y125602D01*
X72204Y125648D01*
X72256Y125683D01*
X72308Y125712D01*
X72360Y125735D01*
X72406Y125752D01*
X72440Y125764D01*
X72463Y125769D01*
X72475D01*
X72348Y126484D01*
X72193Y126426D01*
X72060Y126363D01*
X71951Y126288D01*
X71859Y126219D01*
X71789Y126155D01*
X71738Y126103D01*
X71709Y126063D01*
X71697Y126057D01*
Y126052D01*
X71622Y125931D01*
X71570Y125804D01*
X71530Y125672D01*
X71507Y125545D01*
X71490Y125429D01*
X71484Y125383D01*
Y125337D01*
X71478Y125303D01*
Y125257D01*
X71484Y125147D01*
X71496Y125038D01*
X71513Y124940D01*
X71536Y124848D01*
X71565Y124761D01*
X71599Y124681D01*
X71634Y124612D01*
X71668Y124542D01*
X71703Y124485D01*
X71738Y124433D01*
X71772Y124393D01*
X71801Y124352D01*
X71824Y124324D01*
X71841Y124306D01*
X71853Y124295D01*
X71859Y124289D01*
X71933Y124226D01*
X72014Y124174D01*
X72095Y124122D01*
X72187Y124082D01*
X72273Y124047D01*
X72360Y124018D01*
X72532Y123978D01*
X72607Y123961D01*
X72682Y123949D01*
X72751Y123943D01*
X72803Y123938D01*
X72855Y123932D01*
X72918D01*
X73039Y123938D01*
X73154Y123949D01*
X73264Y123967D01*
X73368Y123990D01*
X73460Y124013D01*
X73546Y124047D01*
X73627Y124076D01*
X73696Y124110D01*
X73759Y124145D01*
X73817Y124174D01*
X73863Y124208D01*
X73903Y124232D01*
X73932Y124255D01*
X73955Y124272D01*
X73967Y124283D01*
X73972Y124289D01*
X74036Y124358D01*
X74093Y124433D01*
X74145Y124508D01*
X74191Y124589D01*
X74226Y124669D01*
X74255Y124750D01*
X74301Y124900D01*
X74318Y124975D01*
X74330Y125038D01*
X74335Y125095D01*
X74341Y125147D01*
X74347Y125188D01*
Y124018D01*
Y126518D01*
D02*
G37*
G36*
X73235Y123448D02*
X70430D01*
X73178D01*
X73051Y123442D01*
X72936Y123425D01*
X72832Y123396D01*
X72746Y123373D01*
X72676Y123344D01*
X72619Y123316D01*
X72590Y123298D01*
X72579Y123293D01*
X72492Y123229D01*
X72412Y123166D01*
X72348Y123097D01*
X72290Y123028D01*
X72250Y122970D01*
X72216Y122924D01*
X72198Y122889D01*
X72193Y122884D01*
Y122878D01*
X72164Y122826D01*
X72141Y122768D01*
X72089Y122636D01*
X72049Y122503D01*
X72003Y122365D01*
X71974Y122244D01*
X71956Y122192D01*
X71945Y122146D01*
X71933Y122106D01*
X71928Y122077D01*
X71922Y122060D01*
Y122054D01*
X71899Y121956D01*
X71870Y121864D01*
X71847Y121783D01*
X71824Y121714D01*
X71807Y121645D01*
X71784Y121593D01*
X71766Y121542D01*
X71743Y121501D01*
X71726Y121461D01*
X71715Y121432D01*
X71692Y121386D01*
X71674Y121363D01*
X71668Y121357D01*
X71628Y121323D01*
X71594Y121294D01*
X71553Y121277D01*
X71519Y121259D01*
X71484Y121254D01*
X71461Y121248D01*
X71444D01*
X71438D01*
X71386Y121254D01*
X71340Y121265D01*
X71300Y121282D01*
X71265Y121305D01*
X71236Y121328D01*
X71219Y121346D01*
X71208Y121357D01*
X71202Y121363D01*
X71156Y121438D01*
X71121Y121524D01*
X71098Y121611D01*
X71081Y121691D01*
X71069Y121766D01*
X71064Y121829D01*
Y121881D01*
X71069Y121997D01*
X71087Y122095D01*
X71104Y122175D01*
X71127Y122244D01*
X71156Y122296D01*
X71173Y122331D01*
X71190Y122354D01*
X71196Y122360D01*
X71248Y122417D01*
X71311Y122463D01*
X71380Y122498D01*
X71450Y122527D01*
X71513Y122549D01*
X71565Y122561D01*
X71599Y122573D01*
X71605D01*
X71611D01*
X71582Y123339D01*
X71490Y123333D01*
X71398Y123316D01*
X71311Y123293D01*
X71231Y123270D01*
X71092Y123206D01*
X71029Y123177D01*
X70972Y123143D01*
X70920Y123108D01*
X70874Y123074D01*
X70833Y123045D01*
X70804Y123016D01*
X70781Y122993D01*
X70764Y122976D01*
X70753Y122964D01*
X70747Y122959D01*
X70689Y122889D01*
X70643Y122809D01*
X70597Y122728D01*
X70562Y122642D01*
X70505Y122463D01*
X70470Y122290D01*
X70459Y122210D01*
X70447Y122135D01*
X70442Y122066D01*
X70436Y122002D01*
X70430Y121956D01*
Y120372D01*
Y121887D01*
X70436Y121732D01*
X70453Y121588D01*
X70470Y121461D01*
X70493Y121352D01*
X70522Y121265D01*
X70534Y121230D01*
X70539Y121202D01*
X70551Y121179D01*
X70557Y121156D01*
X70562Y121150D01*
Y121144D01*
X70614Y121035D01*
X70678Y120942D01*
X70741Y120862D01*
X70804Y120799D01*
X70862Y120747D01*
X70908Y120706D01*
X70937Y120683D01*
X70943Y120677D01*
X70948D01*
X71046Y120626D01*
X71139Y120585D01*
X71231Y120557D01*
X71311Y120539D01*
X71386Y120528D01*
X71438Y120516D01*
X71461D01*
X71478D01*
X71484D01*
X71490D01*
X71570Y120522D01*
X71651Y120534D01*
X71726Y120551D01*
X71795Y120568D01*
X71928Y120626D01*
X72037Y120689D01*
X72083Y120724D01*
X72129Y120752D01*
X72164Y120781D01*
X72193Y120810D01*
X72216Y120827D01*
X72233Y120845D01*
X72244Y120856D01*
X72250Y120862D01*
X72290Y120914D01*
X72331Y120971D01*
X72406Y121098D01*
X72469Y121242D01*
X72521Y121386D01*
X72567Y121513D01*
X72584Y121570D01*
X72596Y121622D01*
X72607Y121662D01*
X72619Y121691D01*
X72625Y121714D01*
Y121720D01*
X72648Y121807D01*
X72665Y121881D01*
X72682Y121950D01*
X72699Y122014D01*
X72717Y122072D01*
X72728Y122118D01*
X72740Y122164D01*
X72751Y122198D01*
X72769Y122256D01*
X72780Y122296D01*
X72792Y122319D01*
Y122325D01*
X72821Y122394D01*
X72849Y122452D01*
X72872Y122498D01*
X72901Y122538D01*
X72924Y122567D01*
X72941Y122584D01*
X72953Y122596D01*
X72959Y122601D01*
X72993Y122630D01*
X73034Y122648D01*
X73103Y122670D01*
X73137Y122676D01*
X73160Y122682D01*
X73178D01*
X73183D01*
X73258Y122676D01*
X73327Y122653D01*
X73391Y122624D01*
X73443Y122590D01*
X73489Y122549D01*
X73517Y122521D01*
X73540Y122498D01*
X73546Y122492D01*
X73598Y122417D01*
X73638Y122331D01*
X73661Y122239D01*
X73685Y122146D01*
X73696Y122066D01*
X73702Y122002D01*
Y121939D01*
X73696Y121812D01*
X73673Y121703D01*
X73644Y121611D01*
X73615Y121530D01*
X73581Y121467D01*
X73558Y121421D01*
X73535Y121392D01*
X73529Y121380D01*
X73454Y121311D01*
X73368Y121254D01*
X73276Y121207D01*
X73189Y121173D01*
X73103Y121144D01*
X73039Y121127D01*
X73010Y121121D01*
X72993D01*
X72982Y121115D01*
X72976D01*
X73051Y120372D01*
D01*
X73166Y120390D01*
X73276Y120413D01*
X73379Y120441D01*
X73471Y120470D01*
X73558Y120510D01*
X73638Y120545D01*
X73707Y120585D01*
X73777Y120626D01*
X73828Y120666D01*
X73880Y120701D01*
X73921Y120735D01*
X73955Y120764D01*
X73984Y120793D01*
X74001Y120810D01*
X74013Y120822D01*
X74019Y120827D01*
X74076Y120902D01*
X74128Y120989D01*
X74168Y121075D01*
X74209Y121161D01*
X74237Y121254D01*
X74266Y121346D01*
X74306Y121524D01*
X74318Y121611D01*
X74330Y121686D01*
X74335Y121755D01*
X74341Y121812D01*
X74347Y121864D01*
Y121933D01*
X74341Y122112D01*
X74324Y122267D01*
X74306Y122406D01*
X74278Y122527D01*
X74266Y122578D01*
X74255Y122624D01*
X74243Y122659D01*
X74237Y122694D01*
X74226Y122717D01*
X74220Y122734D01*
X74214Y122745D01*
Y122751D01*
X74157Y122872D01*
X74088Y122970D01*
X74019Y123062D01*
X73949Y123131D01*
X73892Y123189D01*
X73840Y123229D01*
X73805Y123258D01*
X73800Y123264D01*
X73794D01*
X73685Y123327D01*
X73575Y123373D01*
X73471Y123402D01*
X73379Y123425D01*
X73299Y123437D01*
X73235Y123448D01*
D02*
G37*
%LPD*%
G36*
X74278Y135677D02*
X73039D01*
X72959D01*
X72878D01*
X72809Y135682D01*
X72746D01*
X72688Y135688D01*
X72636Y135694D01*
X72590Y135700D01*
X72550Y135705D01*
X72486Y135711D01*
X72446Y135723D01*
X72417Y135728D01*
X72412D01*
X72348Y135751D01*
X72296Y135786D01*
X72250Y135821D01*
X72210Y135849D01*
X72175Y135884D01*
X72152Y135907D01*
X72141Y135924D01*
X72135Y135930D01*
X72101Y135988D01*
X72077Y136045D01*
X72054Y136103D01*
X72043Y136155D01*
X72037Y136201D01*
X72031Y136235D01*
Y136270D01*
X72037Y136322D01*
X72043Y136368D01*
X72054Y136414D01*
X72066Y136448D01*
X72083Y136477D01*
X72095Y136500D01*
X72101Y136512D01*
X72106Y136518D01*
X72170Y136587D01*
X72239Y136633D01*
X72268Y136650D01*
X72290Y136662D01*
X72308Y136667D01*
X72314D01*
X72342Y136679D01*
X72377Y136685D01*
X72458Y136696D01*
X72550Y136708D01*
X72648Y136713D01*
X72734Y136719D01*
X72774D01*
X72815D01*
X72843D01*
X72866D01*
X72878D01*
X72884D01*
X74278D01*
Y135677D01*
D02*
G37*
G36*
X72676Y132566D02*
X72573Y132572D01*
X72481Y132589D01*
X72400Y132612D01*
X72331Y132641D01*
X72279Y132670D01*
X72239Y132693D01*
X72216Y132710D01*
X72210Y132716D01*
X72152Y132779D01*
X72106Y132843D01*
X72077Y132906D01*
X72054Y132969D01*
X72043Y133027D01*
X72031Y133067D01*
Y133108D01*
X72037Y133188D01*
X72054Y133263D01*
X72083Y133326D01*
X72112Y133378D01*
X72146Y133424D01*
X72170Y133453D01*
X72193Y133476D01*
X72198Y133482D01*
X72268Y133534D01*
X72342Y133574D01*
X72423Y133603D01*
X72498Y133626D01*
X72567Y133638D01*
X72625Y133643D01*
X72648Y133649D01*
X72665D01*
X72671D01*
X72676D01*
Y132566D01*
D02*
G37*
G36*
X74347Y131812D02*
X72936D01*
X73039Y131817D01*
X73137Y131823D01*
X73322Y131852D01*
X73408Y131875D01*
X73483Y131898D01*
X73558Y131921D01*
X73621Y131944D01*
X73679Y131967D01*
X73730Y131990D01*
X73777Y132013D01*
X73811Y132036D01*
X73840Y132053D01*
X73863Y132065D01*
X73874Y132077D01*
X73880D01*
X73961Y132146D01*
X74036Y132221D01*
X74099Y132301D01*
X74151Y132388D01*
X74197Y132474D01*
X74232Y132566D01*
X74266Y132653D01*
X74289Y132739D01*
X74306Y132820D01*
X74324Y132895D01*
X74330Y132958D01*
X74341Y133021D01*
Y133067D01*
X74347Y133108D01*
Y131812D01*
D02*
G37*
G36*
X72676Y129629D02*
X72573Y129634D01*
X72481Y129652D01*
X72400Y129675D01*
X72331Y129703D01*
X72279Y129732D01*
X72239Y129755D01*
X72216Y129773D01*
X72210Y129778D01*
X72152Y129842D01*
X72106Y129905D01*
X72077Y129968D01*
X72054Y130032D01*
X72043Y130089D01*
X72031Y130130D01*
Y130170D01*
X72037Y130251D01*
X72054Y130325D01*
X72083Y130389D01*
X72112Y130441D01*
X72146Y130487D01*
X72170Y130516D01*
X72193Y130539D01*
X72198Y130544D01*
X72268Y130596D01*
X72342Y130637D01*
X72423Y130665D01*
X72498Y130688D01*
X72567Y130700D01*
X72625Y130706D01*
X72648Y130711D01*
X72665D01*
X72671D01*
X72676D01*
Y129629D01*
D02*
G37*
G36*
X74347Y128874D02*
X72936D01*
X73039Y128880D01*
X73137Y128885D01*
X73322Y128914D01*
X73408Y128937D01*
X73483Y128960D01*
X73558Y128983D01*
X73621Y129007D01*
X73679Y129030D01*
X73730Y129053D01*
X73777Y129076D01*
X73811Y129099D01*
X73840Y129116D01*
X73863Y129128D01*
X73874Y129139D01*
X73880D01*
X73961Y129208D01*
X74036Y129283D01*
X74099Y129364D01*
X74151Y129450D01*
X74197Y129536D01*
X74232Y129629D01*
X74266Y129715D01*
X74289Y129801D01*
X74306Y129882D01*
X74324Y129957D01*
X74330Y130020D01*
X74341Y130084D01*
Y130130D01*
X74347Y130170D01*
Y128874D01*
D02*
G37*
D10*
X149213Y28350D02*
G03*
X149213Y28350I-394J0D01*
G01*
X179921Y59702D02*
G03*
X179921Y59702I-394J0D01*
G01*
X203381Y86339D02*
Y88406D01*
X185271Y86339D02*
Y88406D01*
X203381Y100020D02*
Y102087D01*
X185271Y100020D02*
Y102087D01*
Y86339D02*
X203381D01*
X185271Y102087D02*
X203381D01*
X197775Y7017D02*
Y17608D01*
X176594D02*
X197775D01*
X176594Y7017D02*
Y17608D01*
Y7017D02*
X197775D01*
X81890Y115945D02*
X85630D01*
X117126D02*
X120866D01*
X79331Y125197D02*
Y133465D01*
X123425Y125197D02*
Y133465D01*
X197378Y56807D02*
Y66485D01*
X190417Y56807D02*
Y66485D01*
X187966Y123996D02*
Y126456D01*
X152375Y123996D02*
Y126456D01*
X158744Y101178D02*
X163862D01*
X158744Y92517D02*
X163862D01*
X25197Y111016D02*
Y119677D01*
Y111016D02*
X46850D01*
X51181Y115347D01*
Y119677D01*
X25197Y128339D02*
Y137000D01*
X46850D01*
X51181Y132669D01*
Y128339D02*
Y132669D01*
X103120Y12858D02*
X115325D01*
X103120Y16795D02*
X115325D01*
X103120Y12858D02*
Y16795D01*
X115325Y12858D02*
Y16795D01*
X33858Y54319D02*
Y80697D01*
X22835Y54319D02*
Y80697D01*
Y54319D02*
X33858D01*
X22835Y80697D02*
X33858D01*
X123744Y17973D02*
X133422D01*
X123744Y11011D02*
X133422D01*
X23507Y81931D02*
X33185D01*
X23507Y88893D02*
X33185D01*
X42520Y12598D02*
X51181D01*
Y34252D01*
X46850Y38583D02*
X51181Y34252D01*
X42520Y38583D02*
X46850D01*
X25197Y12598D02*
X33858D01*
X25197D02*
Y34252D01*
X29527Y38583D01*
X33858D01*
D11*
X183204Y100610D02*
G03*
X183204Y100610I-492J0D01*
G01*
X175314Y12313D02*
G03*
X175314Y12313I-492J0D01*
G01*
X182867Y112382D02*
G03*
X182867Y112382I-492J0D01*
G01*
X169275Y94918D02*
G03*
X169275Y94918I-492J0D01*
G01*
X116703Y19847D02*
G03*
X116703Y19847I-492J0D01*
G01*
X40256Y54319D02*
G03*
X40256Y54319I-492J0D01*
G01*
D12*
X13602Y22835D02*
Y28346D01*
X18602Y22835D02*
Y23591D01*
X8602Y22835D02*
X18602D01*
X8602D02*
Y23591D01*
Y27591D02*
Y28346D01*
X18602D01*
Y27591D02*
Y28346D01*
X28517Y96244D02*
Y101755D01*
X33517Y96244D02*
Y97000D01*
X23517Y96244D02*
X33517D01*
X23517D02*
Y97000D01*
Y100999D02*
Y101755D01*
X33517D01*
Y100999D02*
Y101755D01*
X13602Y43750D02*
Y45128D01*
X7603Y41372D02*
X8102D01*
X7603Y39616D02*
Y41372D01*
Y39616D02*
X8102D01*
X7603Y43372D02*
X8102D01*
X7603D02*
Y45128D01*
X8102D01*
X13602Y39616D02*
Y40994D01*
X19602Y39616D02*
Y40372D01*
X7697Y39616D02*
X19602D01*
X8102D02*
Y41372D01*
Y43372D02*
Y45128D01*
X8091D02*
X19602D01*
Y44372D02*
Y45128D01*
X13602Y96244D02*
Y97622D01*
Y100377D02*
Y101755D01*
X7603Y98000D02*
X8102D01*
X7603Y96244D02*
Y98000D01*
Y96244D02*
X8102D01*
X7603Y99999D02*
X8102D01*
X7603D02*
Y101755D01*
X8102D01*
X19602Y96244D02*
Y97000D01*
X7697Y96244D02*
X19602D01*
X8102D02*
Y98000D01*
Y99999D02*
Y101755D01*
X7697D02*
X19602D01*
Y100999D02*
Y101755D01*
X191774Y48640D02*
Y54151D01*
X197286Y48640D02*
Y49821D01*
X186263Y48640D02*
X197286D01*
X186263D02*
Y49821D01*
Y52970D02*
Y54151D01*
X197286D01*
Y52970D02*
Y54151D01*
X130177Y117189D02*
X130933D01*
X130177Y107189D02*
Y117189D01*
Y107189D02*
X130933D01*
X134933D02*
X135689D01*
Y117189D01*
X134933D02*
X135689D01*
X130177Y112189D02*
X135689D01*
X194094Y112544D02*
X199606D01*
X198425Y118056D02*
X199606D01*
Y107032D02*
Y118056D01*
X198425Y107032D02*
X199606D01*
X194094D02*
X195276D01*
X194094D02*
Y118056D01*
X195276D01*
X195472Y68954D02*
X196653D01*
Y79978D01*
X195472D02*
X196653D01*
X191142D02*
X192323D01*
X191142Y68954D02*
Y79978D01*
Y68954D02*
X192323D01*
X191142Y74466D02*
X196653D01*
X194094Y125728D02*
X199606D01*
X194094Y120728D02*
X194850D01*
X194094D02*
Y130728D01*
X194850D01*
X198850D02*
X199606D01*
Y120728D02*
Y130728D01*
X198850Y120728D02*
X199606D01*
X92933Y3571D02*
Y9083D01*
X97933Y3571D02*
Y4327D01*
X87933Y3571D02*
X97933D01*
X87933D02*
Y4327D01*
Y8327D02*
Y9083D01*
X97933D01*
Y8327D02*
Y9083D01*
X128583Y19883D02*
Y25395D01*
X123583Y24639D02*
Y25395D01*
X133583D01*
Y24639D02*
Y25395D01*
Y19883D02*
Y20639D01*
X123583Y19883D02*
X133583D01*
X123583D02*
Y20639D01*
X128445Y7688D02*
Y8869D01*
X117421D02*
X128445D01*
X117421Y7688D02*
Y8869D01*
Y3357D02*
Y4539D01*
Y3357D02*
X128445D01*
Y4539D01*
X122933Y3357D02*
Y8869D01*
X48425Y65946D02*
X53937D01*
X48425Y60946D02*
X49181D01*
X48425D02*
Y70946D01*
X49181D01*
X53181D02*
X53937D01*
Y60946D02*
Y70946D01*
X53181Y60946D02*
X53937D01*
X35824Y82656D02*
Y83837D01*
Y82656D02*
X46848D01*
Y83837D01*
Y86987D02*
Y88168D01*
X35824D02*
X46848D01*
X35824Y86987D02*
Y88168D01*
X41336Y82656D02*
Y88168D01*
X48425Y54319D02*
X53937D01*
X48425Y49319D02*
X49181D01*
X48425D02*
Y59319D01*
X49181D01*
X53181D02*
X53937D01*
Y49319D02*
Y59319D01*
X53181Y49319D02*
X53937D01*
X30707Y47441D02*
Y48622D01*
Y47441D02*
X41731D01*
Y48622D01*
Y51772D02*
Y52953D01*
X30707D02*
X41731D01*
X30707Y51772D02*
Y52953D01*
X36219Y47441D02*
Y52953D01*
X97768Y88004D02*
X96719D01*
X97244D01*
Y85380D01*
X96719Y84855D01*
X96194D01*
X95669Y85380D01*
X98818Y88004D02*
Y84855D01*
X100917D01*
X104066Y87479D02*
X103541Y88004D01*
X102491D01*
X101967Y87479D01*
Y85380D01*
X102491Y84855D01*
X103541D01*
X104066Y85380D01*
X107214Y88004D02*
X106165D01*
X106689D01*
Y85380D01*
X106165Y84855D01*
X105640D01*
X105115Y85380D01*
X108264Y88004D02*
Y84855D01*
X110363D01*
X113511Y87479D02*
X112987Y88004D01*
X111937D01*
X111412Y87479D01*
Y85380D01*
X111937Y84855D01*
X112987D01*
X113511Y85380D01*
X116660Y88004D02*
X115610D01*
X116135D01*
Y85380D01*
X115610Y84855D01*
X115086D01*
X114561Y85380D01*
X117710Y88004D02*
Y84855D01*
X119808D01*
X122957Y87479D02*
X122432Y88004D01*
X121383D01*
X120858Y87479D01*
Y85380D01*
X121383Y84855D01*
X122432D01*
X122957Y85380D01*
X126106Y88004D02*
X125056D01*
X125581D01*
Y85380D01*
X125056Y84855D01*
X124531D01*
X124007Y85380D01*
X127155Y88004D02*
Y84855D01*
X129254D01*
X132403Y87479D02*
X131878Y88004D01*
X130829D01*
X130304Y87479D01*
Y85380D01*
X130829Y84855D01*
X131878D01*
X132403Y85380D01*
D13*
X12914Y42372D02*
X14291Y41388D01*
Y42372D01*
X12914Y41486D02*
Y42372D01*
Y43258D01*
X14291Y42372D02*
Y43356D01*
X12914Y42372D02*
X14291Y43356D01*
X12914Y99000D02*
X14291Y99984D01*
Y99000D02*
Y99984D01*
X12914Y99000D02*
Y99885D01*
Y98114D02*
Y99000D01*
X14291Y98015D02*
Y99000D01*
X12914D02*
X14291Y98015D01*
D14*
X75000Y28504D02*
X145866D01*
Y101221D02*
Y104095D01*
Y28504D02*
Y30158D01*
X75000Y104095D02*
X79902D01*
X140965D02*
X145866D01*
X75000Y101221D02*
Y104095D01*
Y28504D02*
Y30158D01*
X187185Y61671D02*
X187401D01*
X177559D02*
X177775D01*
X187401Y71297D02*
Y73482D01*
Y61671D02*
Y63856D01*
X187185Y73482D02*
X187401D01*
X177559D02*
X177775D01*
X177559Y71297D02*
Y73482D01*
Y61671D02*
Y63856D01*
D15*
X163235Y18523D02*
X169735D01*
X149735D02*
X154235D01*
X169735Y6523D02*
Y18523D01*
X149735Y8744D02*
Y18523D01*
X154235D02*
X163235D01*
X149735Y6523D02*
X169735D01*
X149735D02*
Y8744D01*
D16*
X8683Y17677D02*
Y21613D01*
X10651D01*
X11307Y20957D01*
Y19645D01*
X10651Y18989D01*
X8683D01*
X9995D02*
X11307Y17677D01*
X12619D02*
X13930D01*
X13275D01*
Y21613D01*
X12619Y20957D01*
X15898D02*
X16554Y21613D01*
X17866D01*
X18522Y20957D01*
Y20301D01*
X17866Y19645D01*
X18522Y18989D01*
Y18333D01*
X17866Y17677D01*
X16554D01*
X15898Y18333D01*
Y18989D01*
X16554Y19645D01*
X15898Y20301D01*
Y20957D01*
X16554Y19645D02*
X17866D01*
X23483Y103072D02*
Y107008D01*
X25451D01*
X26107Y106352D01*
Y105040D01*
X25451Y104384D01*
X23483D01*
X24795D02*
X26107Y103072D01*
X27419D02*
X28730D01*
X28075D01*
Y107008D01*
X27419Y106352D01*
X30698Y107008D02*
X33322D01*
Y106352D01*
X30698Y103728D01*
Y103072D01*
X10323Y38225D02*
Y34289D01*
X12291D01*
X12947Y34945D01*
Y37569D01*
X12291Y38225D01*
X10323D01*
X16226Y34289D02*
Y38225D01*
X14258Y36257D01*
X16882D01*
X10323Y107008D02*
Y103072D01*
X12291D01*
X12947Y103728D01*
Y106352D01*
X12291Y107008D01*
X10323D01*
X14258Y106352D02*
X14915Y107008D01*
X16226D01*
X16882Y106352D01*
Y105696D01*
X16226Y105040D01*
X15570D01*
X16226D01*
X16882Y104384D01*
Y103728D01*
X16226Y103072D01*
X14915D01*
X14258Y103728D01*
X150069Y5425D02*
X152693D01*
X151381D01*
Y1489D01*
X154005D02*
Y5425D01*
X155973D01*
X156629Y4769D01*
Y3457D01*
X155973Y2801D01*
X154005D01*
X157941Y1489D02*
X159253D01*
X158597D01*
Y5425D01*
X157941Y4769D01*
X185411Y108058D02*
Y104123D01*
X187379D01*
X188034Y104779D01*
Y107402D01*
X187379Y108058D01*
X185411D01*
X191970Y104123D02*
X189347D01*
X191970Y106746D01*
Y107402D01*
X191314Y108058D01*
X190002D01*
X189347Y107402D01*
X177330Y1677D02*
Y5613D01*
X179298D01*
X179954Y4957D01*
Y3645D01*
X179298Y2989D01*
X177330D01*
X181266Y4957D02*
X181922Y5613D01*
X183234D01*
X183890Y4957D01*
Y4301D01*
X183234Y3645D01*
X182578D01*
X183234D01*
X183890Y2989D01*
Y2333D01*
X183234Y1677D01*
X181922D01*
X181266Y2333D01*
X164468Y102699D02*
X160532D01*
Y104667D01*
X161188Y105323D01*
X162500D01*
X163156Y104667D01*
Y102699D01*
Y104011D02*
X164468Y105323D01*
Y106635D02*
Y107947D01*
Y107291D01*
X160532D01*
X161188Y106635D01*
X160532Y112539D02*
X161188Y111227D01*
X162500Y109915D01*
X163812D01*
X164468Y110571D01*
Y111883D01*
X163812Y112539D01*
X163156D01*
X162500Y111883D01*
Y109915D01*
X180307Y102252D02*
X176371D01*
Y104220D01*
X177027Y104876D01*
X178339D01*
X178995Y104220D01*
Y102252D01*
Y103564D02*
X180307Y104876D01*
Y106187D02*
Y107499D01*
Y106843D01*
X176371D01*
X177027Y106187D01*
X176371Y112091D02*
Y109467D01*
X178339D01*
X177683Y110779D01*
Y111435D01*
X178339Y112091D01*
X179651D01*
X180307Y111435D01*
Y110123D01*
X179651Y109467D01*
X191118Y46802D02*
X190462Y47458D01*
X189151D01*
X188495Y46802D01*
Y44179D01*
X189151Y43523D01*
X190462D01*
X191118Y44179D01*
X192430Y47458D02*
X195054D01*
Y46802D01*
X192430Y44179D01*
Y43523D01*
X97332Y11484D02*
X100611D01*
X101267Y12140D01*
Y13452D01*
X100611Y14108D01*
X97332D01*
X97988Y15420D02*
X97332Y16076D01*
Y17388D01*
X97988Y18044D01*
X98644D01*
X99300Y17388D01*
Y16732D01*
Y17388D01*
X99955Y18044D01*
X100611D01*
X101267Y17388D01*
Y16076D01*
X100611Y15420D01*
X73590Y26607D02*
Y23327D01*
X74246Y22671D01*
X75558D01*
X76214Y23327D01*
Y26607D01*
X80150Y22671D02*
X77526D01*
X80150Y25295D01*
Y25951D01*
X79494Y26607D01*
X78182D01*
X77526Y25951D01*
X13124Y80157D02*
Y76877D01*
X13780Y76221D01*
X15092D01*
X15748Y76877D01*
Y80157D01*
X17060Y76221D02*
X18372D01*
X17716D01*
Y80157D01*
X17060Y79501D01*
X136810Y121545D02*
X132875D01*
Y123513D01*
X133530Y124169D01*
X134842D01*
X135498Y123513D01*
Y121545D01*
Y122857D02*
X136810Y124169D01*
Y125481D02*
Y126793D01*
Y126137D01*
X132875D01*
X133530Y125481D01*
X136810Y130729D02*
X132875D01*
X134842Y128761D01*
Y131385D01*
X204724Y120809D02*
X200788D01*
Y122777D01*
X201444Y123433D01*
X202756D01*
X203412Y122777D01*
Y120809D01*
Y122121D02*
X204724Y123433D01*
Y124745D02*
Y126057D01*
Y125400D01*
X200788D01*
X201444Y124745D01*
Y128024D02*
X200788Y128680D01*
Y129992D01*
X201444Y130648D01*
X202100D01*
X202756Y129992D01*
Y129336D01*
Y129992D01*
X203412Y130648D01*
X204068D01*
X204724Y129992D01*
Y128680D01*
X204068Y128024D01*
X148051Y121663D02*
X144115D01*
Y123631D01*
X144771Y124287D01*
X146083D01*
X146739Y123631D01*
Y121663D01*
Y122975D02*
X148051Y124287D01*
Y125599D02*
Y126911D01*
Y126255D01*
X144115D01*
X144771Y125599D01*
X148051Y131502D02*
Y128878D01*
X145427Y131502D01*
X144771D01*
X144115Y130846D01*
Y129534D01*
X144771Y128878D01*
X79866Y4359D02*
Y8295D01*
X81834D01*
X82490Y7639D01*
Y6327D01*
X81834Y5671D01*
X79866D01*
X81178D02*
X82490Y4359D01*
X83802Y7639D02*
X84458Y8295D01*
X85770D01*
X86426Y7639D01*
Y6983D01*
X85770Y6327D01*
X86426Y5671D01*
Y5015D01*
X85770Y4359D01*
X84458D01*
X83802Y5015D01*
Y5671D01*
X84458Y6327D01*
X83802Y6983D01*
Y7639D01*
X84458Y6327D02*
X85770D01*
X135323Y20703D02*
Y24639D01*
X137291D01*
X137947Y23983D01*
Y22671D01*
X137291Y22015D01*
X135323D01*
X136635D02*
X137947Y20703D01*
X139259Y24639D02*
X141882D01*
Y23983D01*
X139259Y21359D01*
Y20703D01*
X141052Y109126D02*
X137116D01*
Y111094D01*
X137772Y111750D01*
X139084D01*
X139740Y111094D01*
Y109126D01*
Y110438D02*
X141052Y111750D01*
X137116Y115685D02*
X137772Y114374D01*
X139084Y113062D01*
X140396D01*
X141052Y113717D01*
Y115029D01*
X140396Y115685D01*
X139740D01*
X139084Y115029D01*
Y113062D01*
X59468Y51039D02*
X55532D01*
Y53007D01*
X56188Y53663D01*
X57500D01*
X58156Y53007D01*
Y51039D01*
Y52351D02*
X59468Y53663D01*
Y57599D02*
Y54975D01*
X56844Y57599D01*
X56188D01*
X55532Y56943D01*
Y55631D01*
X56188Y54975D01*
X59468Y63323D02*
X55532D01*
Y65290D01*
X56188Y65947D01*
X57500D01*
X58156Y65290D01*
Y63323D01*
Y64635D02*
X59468Y65947D01*
Y67258D02*
Y68570D01*
Y67914D01*
X55532D01*
X56188Y67258D01*
X177888Y76002D02*
Y79938D01*
X179200Y78626D01*
X180512Y79938D01*
Y76002D01*
X181824Y79938D02*
X184448D01*
X183136D01*
Y76002D01*
X185760D02*
X187072D01*
X186416D01*
Y79938D01*
X185760Y79282D01*
X130874Y140460D02*
X129562D01*
X130218D01*
Y137180D01*
X129562Y136524D01*
X128906D01*
X128250Y137180D01*
X134809Y136524D02*
X132185D01*
X134809Y139148D01*
Y139804D01*
X134153Y140460D01*
X132841D01*
X132185Y139804D01*
X146174Y117360D02*
X144862D01*
X145518D01*
Y114080D01*
X144862Y113424D01*
X144206D01*
X143551Y114080D01*
X147486Y113424D02*
X148798D01*
X148142D01*
Y117360D01*
X147486Y116704D01*
X158679Y91311D02*
Y87375D01*
X160647D01*
X161303Y88031D01*
Y90655D01*
X160647Y91311D01*
X158679D01*
X162615Y87375D02*
X163927D01*
X163271D01*
Y91311D01*
X162615Y90655D01*
X45736Y107666D02*
X45080Y108322D01*
X43768D01*
X43112Y107666D01*
Y105042D01*
X43768Y104386D01*
X45080D01*
X45736Y105042D01*
X47047Y104386D02*
X48359D01*
X47703D01*
Y108322D01*
X47047Y107666D01*
X50327D02*
X50983Y108322D01*
X52295D01*
X52951Y107666D01*
Y107010D01*
X52295Y106354D01*
X51639D01*
X52295D01*
X52951Y105698D01*
Y105042D01*
X52295Y104386D01*
X50983D01*
X50327Y105042D01*
X134492Y7445D02*
X133836Y8101D01*
X132524D01*
X131868Y7445D01*
Y4821D01*
X132524Y4165D01*
X133836D01*
X134492Y4821D01*
X135804Y4165D02*
X137116D01*
X136460D01*
Y8101D01*
X135804Y7445D01*
X141708Y4165D02*
X139084D01*
X141708Y6789D01*
Y7445D01*
X141052Y8101D01*
X139740D01*
X139084Y7445D01*
X139923Y15846D02*
X139267Y16502D01*
X137955D01*
X137300Y15846D01*
Y13222D01*
X137955Y12566D01*
X139267D01*
X139923Y13222D01*
X141235Y12566D02*
X142547D01*
X141891D01*
Y16502D01*
X141235Y15846D01*
X144515Y12566D02*
X145827D01*
X145171D01*
Y16502D01*
X144515Y15846D01*
X26050Y93555D02*
X25394Y94211D01*
X24083D01*
X23427Y93555D01*
Y90931D01*
X24083Y90275D01*
X25394D01*
X26050Y90931D01*
X27362Y90275D02*
X28674D01*
X28018D01*
Y94211D01*
X27362Y93555D01*
X30642D02*
X31298Y94211D01*
X32610D01*
X33266Y93555D01*
Y90931D01*
X32610Y90275D01*
X31298D01*
X30642Y90931D01*
Y93555D01*
X201444Y111888D02*
X200788Y111232D01*
Y109920D01*
X201444Y109265D01*
X204068D01*
X204724Y109920D01*
Y111232D01*
X204068Y111888D01*
X201444Y113200D02*
X200788Y113856D01*
Y115168D01*
X201444Y115824D01*
X202100D01*
X202756Y115168D01*
X203412Y115824D01*
X204068D01*
X204724Y115168D01*
Y113856D01*
X204068Y113200D01*
X203412D01*
X202756Y113856D01*
X202100Y113200D01*
X201444D01*
X202756Y113856D02*
Y115168D01*
X198491Y73810D02*
X197835Y73154D01*
Y71842D01*
X198491Y71186D01*
X201115D01*
X201771Y71842D01*
Y73154D01*
X201115Y73810D01*
X197835Y77746D02*
X198491Y76434D01*
X199803Y75122D01*
X201115D01*
X201771Y75778D01*
Y77090D01*
X201115Y77746D01*
X200459D01*
X199803Y77090D01*
Y75122D01*
X199475Y61520D02*
X198819Y60864D01*
Y59552D01*
X199475Y58896D01*
X202099D01*
X202755Y59552D01*
Y60864D01*
X202099Y61520D01*
X198819Y65455D02*
Y62831D01*
X200787D01*
X200131Y64143D01*
Y64799D01*
X200787Y65455D01*
X202099D01*
X202755Y64799D01*
Y63487D01*
X202099Y62831D01*
X23360Y51509D02*
X22704Y52165D01*
X21392D01*
X20736Y51509D01*
Y48885D01*
X21392Y48229D01*
X22704D01*
X23360Y48885D01*
X24671Y51509D02*
X25328Y52165D01*
X26639D01*
X27295Y51509D01*
Y50853D01*
X26639Y50197D01*
X25984D01*
X26639D01*
X27295Y49541D01*
Y48885D01*
X26639Y48229D01*
X25328D01*
X24671Y48885D01*
X40680Y93597D02*
X40024Y94253D01*
X38712D01*
X38056Y93597D01*
Y90973D01*
X38712Y90317D01*
X40024D01*
X40680Y90973D01*
X44616Y90317D02*
X41992D01*
X44616Y92941D01*
Y93597D01*
X43960Y94253D01*
X42648D01*
X41992Y93597D01*
X55331Y25603D02*
X54675Y26259D01*
X53363D01*
X52707Y25603D01*
Y22979D01*
X53363Y22323D01*
X54675D01*
X55331Y22979D01*
X56643Y22323D02*
X57955D01*
X57298D01*
Y26259D01*
X56643Y25603D01*
D17*
X-310953Y627174D02*
X-311953Y628173D01*
X-313952D01*
X-314952Y627174D01*
Y626174D01*
X-313952Y625174D01*
X-311953D01*
X-310953Y624175D01*
Y623175D01*
X-311953Y622175D01*
X-313952D01*
X-314952Y623175D01*
X-308953Y628173D02*
X-304955D01*
X-306954D01*
Y622175D01*
X-298957Y628173D02*
X-302956D01*
Y622175D01*
X-298957D01*
X-302956Y625174D02*
X-300956D01*
X-296957Y622175D02*
Y628173D01*
X-292959Y622175D01*
Y628173D01*
X-286961Y627174D02*
X-287960Y628173D01*
X-289960D01*
X-290959Y627174D01*
Y623175D01*
X-289960Y622175D01*
X-287960D01*
X-286961Y623175D01*
X-284961Y628173D02*
X-282962D01*
X-283962D01*
Y622175D01*
X-284961D01*
X-282962D01*
X-279963Y628173D02*
Y622175D01*
X-275964D01*
X-273965D02*
X-271966D01*
X-272965D01*
Y628173D01*
X-273965Y627174D01*
M02*
