G04*
G04 #@! TF.GenerationSoftware,Altium Limited,Altium Designer,25.2.1 (25)*
G04*
G04 Layer_Color=8388736*
%FSLAX25Y25*%
%MOIN*%
G70*
G04*
G04 #@! TF.SameCoordinates,19AB45F0-FF71-4E06-AC9F-8C434743CFD0*
G04*
G04*
G04 #@! TF.FilePolarity,Negative*
G04*
G01*
G75*
%ADD33R,0.03812X0.03963*%
%ADD34R,0.03937X0.07874*%
%ADD35R,0.01063X0.03937*%
%ADD36R,0.02047X0.03937*%
%ADD37R,0.03898X0.01181*%
%ADD42R,0.03963X0.03812*%
%ADD44R,0.03747X0.04140*%
%ADD45R,0.03550X0.03550*%
%ADD46R,0.03943X0.04337*%
%ADD47R,0.04140X0.03747*%
%ADD48R,0.06306X0.03943*%
%ADD49R,0.03943X0.06306*%
%ADD50R,0.03943X0.03943*%
%ADD51R,0.10046X0.08865*%
%ADD52R,0.18268X0.10512*%
%ADD53R,0.01306X0.04337*%
%ADD54R,0.04337X0.03943*%
%ADD55R,0.03747X0.03156*%
%ADD56R,0.02264X0.01378*%
%ADD57R,0.01378X0.02264*%
%ADD58R,0.12998X0.06699*%
G04:AMPARAMS|DCode=59|XSize=25.65mil|YSize=35.5mil|CornerRadius=3.95mil|HoleSize=0mil|Usage=FLASHONLY|Rotation=0.000|XOffset=0mil|YOffset=0mil|HoleType=Round|Shape=RoundedRectangle|*
%AMROUNDEDRECTD59*
21,1,0.02565,0.02760,0,0,0.0*
21,1,0.01776,0.03550,0,0,0.0*
1,1,0.00790,0.00888,-0.01380*
1,1,0.00790,-0.00888,-0.01380*
1,1,0.00790,-0.00888,0.01380*
1,1,0.00790,0.00888,0.01380*
%
%ADD59ROUNDEDRECTD59*%
%ADD60R,0.09849X0.04337*%
%ADD61R,0.09849X0.13392*%
%ADD62R,0.06699X0.12998*%
%ADD63C,0.06699*%
G04:AMPARAMS|DCode=64|XSize=66.99mil|YSize=66.99mil|CornerRadius=17.75mil|HoleSize=0mil|Usage=FLASHONLY|Rotation=0.000|XOffset=0mil|YOffset=0mil|HoleType=Round|Shape=RoundedRectangle|*
%AMROUNDEDRECTD64*
21,1,0.06699,0.03150,0,0,0.0*
21,1,0.03150,0.06699,0,0,0.0*
1,1,0.03550,0.01575,-0.01575*
1,1,0.03550,-0.01575,-0.01575*
1,1,0.03550,-0.01575,0.01575*
1,1,0.03550,0.01575,0.01575*
%
%ADD64ROUNDEDRECTD64*%
%ADD65O,0.05124X0.07880*%
%ADD66O,0.05124X0.07093*%
G04:AMPARAMS|DCode=67|XSize=66.99mil|YSize=66.99mil|CornerRadius=17.75mil|HoleSize=0mil|Usage=FLASHONLY|Rotation=90.000|XOffset=0mil|YOffset=0mil|HoleType=Round|Shape=RoundedRectangle|*
%AMROUNDEDRECTD67*
21,1,0.06699,0.03150,0,0,90.0*
21,1,0.03150,0.06699,0,0,90.0*
1,1,0.03550,0.01575,0.01575*
1,1,0.03550,0.01575,-0.01575*
1,1,0.03550,-0.01575,-0.01575*
1,1,0.03550,-0.01575,0.01575*
%
%ADD67ROUNDEDRECTD67*%
G04:AMPARAMS|DCode=68|XSize=33.47mil|YSize=23.62mil|CornerRadius=11.81mil|HoleSize=0mil|Usage=FLASHONLY|Rotation=180.000|XOffset=0mil|YOffset=0mil|HoleType=Round|Shape=RoundedRectangle|*
%AMROUNDEDRECTD68*
21,1,0.03347,0.00000,0,0,180.0*
21,1,0.00984,0.02362,0,0,180.0*
1,1,0.02362,-0.00492,0.00000*
1,1,0.02362,0.00492,0.00000*
1,1,0.02362,0.00492,0.00000*
1,1,0.02362,-0.00492,0.00000*
%
%ADD68ROUNDEDRECTD68*%
%ADD69C,0.02362*%
G04:AMPARAMS|DCode=70|XSize=51.18mil|YSize=102.36mil|CornerRadius=25.59mil|HoleSize=0mil|Usage=FLASHONLY|Rotation=180.000|XOffset=0mil|YOffset=0mil|HoleType=Round|Shape=RoundedRectangle|*
%AMROUNDEDRECTD70*
21,1,0.05118,0.05118,0,0,180.0*
21,1,0.00000,0.10236,0,0,180.0*
1,1,0.05118,0.00000,0.02559*
1,1,0.05118,0.00000,0.02559*
1,1,0.05118,0.00000,-0.02559*
1,1,0.05118,0.00000,-0.02559*
%
%ADD70ROUNDEDRECTD70*%
G04:AMPARAMS|DCode=71|XSize=51.18mil|YSize=90.55mil|CornerRadius=25.59mil|HoleSize=0mil|Usage=FLASHONLY|Rotation=180.000|XOffset=0mil|YOffset=0mil|HoleType=Round|Shape=RoundedRectangle|*
%AMROUNDEDRECTD71*
21,1,0.05118,0.03937,0,0,180.0*
21,1,0.00000,0.09055,0,0,180.0*
1,1,0.05118,0.00000,0.01968*
1,1,0.05118,0.00000,0.01968*
1,1,0.05118,0.00000,-0.01968*
1,1,0.05118,0.00000,-0.01968*
%
%ADD71ROUNDEDRECTD71*%
D33*
X193898Y58788D02*
D03*
Y64504D02*
D03*
D34*
X164659Y133051D02*
D03*
X175682D02*
D03*
D35*
X163281Y116516D02*
D03*
X165249D02*
D03*
X167218D02*
D03*
X169186D02*
D03*
X171155D02*
D03*
X173123D02*
D03*
X175092D02*
D03*
X177060D02*
D03*
D36*
X160918D02*
D03*
X157966D02*
D03*
X179422D02*
D03*
X182375D02*
D03*
D37*
X158134Y94879D02*
D03*
Y96847D02*
D03*
Y98816D02*
D03*
X164472D02*
D03*
Y96847D02*
D03*
Y94879D02*
D03*
D42*
X131440Y14492D02*
D03*
X125725D02*
D03*
X25489Y85412D02*
D03*
X31204D02*
D03*
D44*
X16162Y25591D02*
D03*
X11044D02*
D03*
X31076Y99000D02*
D03*
X25958D02*
D03*
X95492Y6327D02*
D03*
X90374D02*
D03*
X126024Y22639D02*
D03*
X131142D02*
D03*
D45*
X16555Y42372D02*
D03*
X10650D02*
D03*
X16555Y99000D02*
D03*
X10650D02*
D03*
D46*
X189117Y51396D02*
D03*
X194432D02*
D03*
X125590Y6114D02*
D03*
X120275D02*
D03*
X38679Y85412D02*
D03*
X43994D02*
D03*
X33562Y50197D02*
D03*
X38877D02*
D03*
D47*
X132933Y109630D02*
D03*
Y114748D02*
D03*
X196850Y123169D02*
D03*
Y128288D02*
D03*
X51181Y63387D02*
D03*
Y68506D02*
D03*
X51181Y51760D02*
D03*
Y56878D02*
D03*
D48*
X75984Y33189D02*
D03*
Y38189D02*
D03*
Y43189D02*
D03*
Y48189D02*
D03*
Y53189D02*
D03*
Y58189D02*
D03*
Y63189D02*
D03*
Y68189D02*
D03*
Y73189D02*
D03*
Y78189D02*
D03*
Y83189D02*
D03*
Y88189D02*
D03*
Y93189D02*
D03*
Y98189D02*
D03*
X144882D02*
D03*
Y93189D02*
D03*
Y88189D02*
D03*
Y83189D02*
D03*
Y78189D02*
D03*
Y73189D02*
D03*
Y68189D02*
D03*
Y63189D02*
D03*
Y58189D02*
D03*
Y53189D02*
D03*
Y48189D02*
D03*
Y43189D02*
D03*
Y38189D02*
D03*
Y33189D02*
D03*
D49*
X82933Y103110D02*
D03*
X87933D02*
D03*
X92933D02*
D03*
X97933D02*
D03*
X102933D02*
D03*
X107933D02*
D03*
X112933D02*
D03*
X117933D02*
D03*
X122933D02*
D03*
X127933D02*
D03*
X132933D02*
D03*
X137933D02*
D03*
D50*
X110827Y58071D02*
D03*
X116339D02*
D03*
X121850D02*
D03*
X110827Y69095D02*
D03*
X116339D02*
D03*
X121850D02*
D03*
X110827Y63583D02*
D03*
X121850D02*
D03*
X116339D02*
D03*
D51*
X200527Y94213D02*
D03*
X188125D02*
D03*
D52*
X159735Y12524D02*
D03*
D53*
X115551Y116142D02*
D03*
X113976D02*
D03*
X112402D02*
D03*
X110827D02*
D03*
X109252D02*
D03*
X107677D02*
D03*
X106102D02*
D03*
X104528D02*
D03*
X102953D02*
D03*
X101378D02*
D03*
X99803D02*
D03*
X98228D02*
D03*
X96654D02*
D03*
X95079D02*
D03*
X93504D02*
D03*
X91929D02*
D03*
X90354D02*
D03*
X88780D02*
D03*
X87205D02*
D03*
D54*
X196850Y109887D02*
D03*
Y115202D02*
D03*
X193898Y71809D02*
D03*
Y77124D02*
D03*
D55*
X167978Y108551D02*
D03*
Y103630D02*
D03*
X173024Y108551D02*
D03*
Y103630D02*
D03*
X129921Y128189D02*
D03*
Y123268D02*
D03*
X140965Y128189D02*
D03*
Y123268D02*
D03*
D56*
X178887Y65608D02*
D03*
Y67576D02*
D03*
Y69545D02*
D03*
X186072D02*
D03*
Y67576D02*
D03*
Y65608D02*
D03*
D57*
X179527Y72153D02*
D03*
X181496D02*
D03*
X183464D02*
D03*
X185433D02*
D03*
Y62999D02*
D03*
X183464D02*
D03*
X181496D02*
D03*
X179527D02*
D03*
D58*
X28346Y124008D02*
D03*
X48031D02*
D03*
D59*
X112962Y9807D02*
D03*
X109222D02*
D03*
X105482D02*
D03*
Y19847D02*
D03*
X109222D02*
D03*
X112962D02*
D03*
D60*
X39764Y58453D02*
D03*
Y67508D02*
D03*
Y76563D02*
D03*
D61*
X16929Y67508D02*
D03*
D62*
X38189Y15748D02*
D03*
Y35433D02*
D03*
D63*
X192185Y12313D02*
D03*
X153543Y65866D02*
D03*
Y45866D02*
D03*
Y55866D02*
D03*
Y75866D02*
D03*
Y85866D02*
D03*
X66929D02*
D03*
Y65866D02*
D03*
Y45866D02*
D03*
Y55866D02*
D03*
Y75866D02*
D03*
Y95866D02*
D03*
Y105866D02*
D03*
D64*
X182185Y12313D02*
D03*
D65*
X122736Y120276D02*
D03*
X80020D02*
D03*
D66*
X122736Y137992D02*
D03*
X80020D02*
D03*
D67*
X153543Y35866D02*
D03*
X66929D02*
D03*
D68*
X158359Y120846D02*
D03*
D69*
X181982D02*
D03*
D70*
X153163Y133051D02*
D03*
X187178D02*
D03*
D71*
X153163Y117992D02*
D03*
X187178D02*
D03*
M02*
